<?xml version="1.0" encoding="utf-8"?>
<!-- Generator: Adobe Illustrator 26.5.0, SVG Export Plug-In . SVG Version: 6.00 Build 0)  -->
<svg version="1.1" id="Livello_1" xmlns="http://www.w3.org/2000/svg" xmlns:xlink="http://www.w3.org/1999/xlink" x="0px" y="0px" height="125px" width="125px"
	 viewBox="0 0 125 125" style="enable-background:new 0 0 125 125;" xml:space="preserve">
<g>
	<path d="M8.3,84.6c6.2,0,7.7,2.5,7.7,5.1v0.4c0,2.4-1.3,5.2-7.7,5.2H0.6V84.6H8.3z M7.8,92.5c3.6,0,4-1.6,4-2.5v-0.1
		c0-0.9-0.4-2.5-4-2.5h-3v5.1H7.8L7.8,92.5z"/>
	<path d="M17.2,95.4V84.6h4.1v10.7C21.3,95.4,17.2,95.4,17.2,95.4z"/>
	<path d="M36.5,87.8V88h-4.5c0-0.4-0.3-1.1-2.6-1.1h-0.1c-2.1,0-2.4,0.4-2.4,0.8v0c0,0.4,0.3,0.8,2.3,0.8l1.9,0
		c4.1,0.1,5.7,1.1,5.7,3.2v0.2c0,1.8-1,3.6-6.7,3.6h-1.3c-5.9,0-6.6-2.4-6.6-3.8v-0.1h4.5c0,0.6,0.3,1.5,2.7,1.5h0.1
		c2.3,0,2.6-0.5,2.6-1v0c0-0.5-0.3-0.9-2.5-1l-2-0.1c-4.2-0.1-5.3-1.6-5.3-3.2v-0.1c0-1.7,1.2-3.3,6.2-3.3H30
		C35.3,84.5,36.5,86.1,36.5,87.8L36.5,87.8z"/>
	<path d="M53.3,90.9v0.2c0,1.4-1,4.4-7.5,4.4h-0.6c-6.6,0-7.6-3.4-7.6-5.4v-0.4c0-2,0.9-5.3,7.6-5.3h0.6c6.5,0,7.5,3,7.5,4.3V89H49
		c-0.1-0.3-0.4-1.6-3.5-1.6c-3.1,0-3.6,1.3-3.6,2.5V90c0,1.2,0.7,2.7,3.6,2.7c3.2,0,3.5-1.5,3.5-1.8L53.3,90.9L53.3,90.9z"/>
	<path d="M70.4,89.8v0.4c0,2-0.9,5.4-7.8,5.4h-0.6c-7,0-7.8-3.4-7.8-5.4v-0.4c0-2,0.9-5.3,7.8-5.3h0.6
		C69.5,84.4,70.4,87.7,70.4,89.8z M58.3,89.9V90c0,1.1,0.7,2.6,3.9,2.6c3.2,0,3.9-1.5,3.9-2.6v-0.2c0-1.1-0.7-2.5-3.9-2.5
		S58.3,88.7,58.3,89.9z"/>
	<path d="M75.7,95.4h-4.1V84.6h9.8c3.1,0,4.5,1,4.5,2.8v0.2c0,1.6-1.4,2.2-2.2,2.4c1.3,0.3,2.2,1.2,2.2,2.6v1.6c0,0.8,0.1,1,0.2,1.2
		v0.1H82c-0.1-0.1-0.1-0.3-0.1-0.6v-1.3c0-1.2-0.6-1.9-2.2-1.9h-3.9C75.7,91.7,75.7,95.4,75.7,95.4z M75.7,89.1h4.7
		c0.9,0,1.2-0.4,1.2-0.9v0c0-0.5-0.3-0.9-1.2-0.9h-4.7V89.1z"/>
	<path d="M94.9,84.6c6.2,0,7.7,2.5,7.7,5.1v0.4c0,2.4-1.3,5.2-7.7,5.2h-7.6V84.6C87.3,84.6,94.9,84.6,94.9,84.6z M94.4,92.5
		c3.6,0,4-1.6,4-2.5v-0.1c0-0.9-0.4-2.5-4-2.5h-3v5.1H94.4z"/>
	<path d="M103.8,95.4V84.6h4.1v10.7H103.8z"/>
	<path d="M119.7,93.6h-6.1l-0.8,1.7h-4.2l5.3-10.7h5.5l5.6,10.7h-4.5L119.7,93.6L119.7,93.6z M118.3,91l-1.8-3.7l-1.8,3.7H118.3z"/>
</g>
<g>
	<g id="punte">
		<g>
			<polygon points="62.5,44.6 60.8,44.9 62.5,25.3 			"/>
			<polygon points="62.5,44.6 64.2,44.9 62.5,25.3 			"/>
		</g>
		<g>
			<polygon points="57.8,49.3 58.1,51 38.5,49.3 			"/>
			<polygon points="57.8,49.3 58.1,47.7 38.5,49.3 			"/>
		</g>
		<g>
			<polygon points="62.5,54 64.2,53.7 62.5,73.4 			"/>
			<polygon points="62.5,54 60.8,53.7 62.5,73.4 			"/>
		</g>
		<g>
			<polygon points="67.2,49.3 66.9,47.7 86.5,49.3 			"/>
			<polygon points="67.2,49.3 66.9,51 86.5,49.3 			"/>
		</g>
	</g>
	<g id="cerchio_estreno">
		<path d="M64.3,34.4c6.9,0.8,12.3,6.3,13.1,13.1l2.3,0.2c-0.8-8.3-7.3-14.8-15.6-15.6L64.3,34.4L64.3,34.4z"/>
		<path d="M47.6,47.5c0.8-6.9,6.3-12.3,13.1-13.1l0.2-2.3c-8.3,0.8-14.8,7.3-15.6,15.6L47.6,47.5L47.6,47.5z"/>
		<path d="M60.7,64.2c-6.9-0.8-12.3-6.3-13.1-13.1l-2.3-0.2c0.8,8.3,7.3,14.8,15.6,15.6L60.7,64.2L60.7,64.2z"/>
		<path d="M77.4,51.1c-0.8,6.9-6.3,12.3-13.1,13.1l-0.2,2.3c8.3-0.8,14.8-7.3,15.6-15.6L77.4,51.1L77.4,51.1z"/>
	</g>
	<g id="cerchio_mezzo">
		<path d="M54.8,46.9c0.8-2.5,2.8-4.5,5.3-5.3l0.2-1.9c-3.6,0.9-6.5,3.7-7.4,7.4L54.8,46.9L54.8,46.9z"/>
		<path d="M60.1,57c-2.5-0.8-4.5-2.8-5.3-5.3l-1.9-0.2c0.9,3.6,3.7,6.5,7.3,7.3L60.1,57L60.1,57z"/>
		<g>
			<path d="M70.2,46.9l1.9,0.2c-0.8-3.6-3.7-6.5-7.4-7.4l0.2,1.9C67.4,42.4,69.4,44.4,70.2,46.9L70.2,46.9z"/>
			<path d="M70.2,51.7c-0.8,2.5-2.8,4.5-5.3,5.3l-0.2,1.9c3.6-0.8,6.5-3.7,7.4-7.3L70.2,51.7z"/>
		</g>
	</g>
	<g id="cerchio_piccolo">
		<path d="M67.2,49.4c0-1.1-0.2-1.9-0.9-2.7l-0.9,0.8c0.4,0.6,0.6,1.2,0.6,1.9c0,0,0,0.1,0,0.1c0,0,0,0.1,0,0.1
			c0,0.7-0.2,1.4-0.6,1.9l0.9,0.8c0.6-0.8,0.9-1.7,0.9-2.7C67.2,49.5,67.2,49.5,67.2,49.4C67.2,49.4,67.2,49.4,67.2,49.4L67.2,49.4z
			"/>
		<g>
			<path d="M62.5,54.1c1.1,0,1.9-0.2,2.7-0.9l-0.8-0.9c-0.6,0.4-1.2,0.6-1.9,0.6c0,0-0.1,0-0.1,0c0,0-0.1,0-0.1,0
				c-0.7,0-1.4-0.2-1.9-0.6l-0.8,0.9c0.8,0.6,1.7,0.9,2.7,0.9C62.4,54.1,62.4,54.1,62.5,54.1C62.5,54.1,62.5,54.1,62.5,54.1
				L62.5,54.1z"/>
			<path d="M57.8,49.4c0,1.1,0.2,1.9,0.9,2.7l0.9-0.8c-0.4-0.6-0.6-1.2-0.6-1.9c0,0,0-0.1,0-0.1c0,0,0-0.1,0-0.1
				c0-0.7,0.2-1.4,0.6-1.9l-0.9-0.8c-0.6,0.8-0.9,1.7-0.9,2.7C57.8,49.3,57.8,49.3,57.8,49.4C57.8,49.4,57.8,49.4,57.8,49.4
				L57.8,49.4z"/>
		</g>
		<path d="M62.4,44.6c-1.1,0-1.9,0.2-2.7,0.9l0.8,0.9c0.6-0.4,1.2-0.6,1.9-0.6c0,0,0.1,0,0.1,0c0,0,0.1,0,0.1,0
			c0.7,0,1.4,0.2,1.9,0.6l0.8-0.9c-0.8-0.6-1.7-0.9-2.7-0.9C62.5,44.6,62.5,44.6,62.4,44.6C62.4,44.6,62.4,44.6,62.4,44.6L62.4,44.6
			z"/>
	</g>
</g>
</svg>
