<?xml version="1.0" encoding="utf-8"?>
<!-- Generator: Adobe Illustrator 26.5.0, SVG Export Plug-In . SVG Version: 6.00 Build 0)  -->
<svg version="1.1" id="Livello_2_00000036250841665385382830000001292496212214532029_"
	 xmlns="http://www.w3.org/2000/svg" xmlns:xlink="http://www.w3.org/1999/xlink" x="0px" y="0px" viewBox="0 0 100 100" height="75px" width="75px"
	 style="enable-background:new 0 0 100 100;" xml:space="preserve">
<style type="text/css">
	.st0{fill:#FFFFFF;}
</style>
<g id="Livello_1-2">
	<g>
		<path class="st0" d="M0.4,100c0-29.3,0-58.6,0-87.9c4,0,8,0,12.1,0c0,0,0,0,0,0c0,0,0,0,0.1,0v-0.4c0-3.7,0-7.5,0-11.2
			c0-0.1,0-0.3,0-0.4h87.1v87.9c-0.1,0-0.1,0-0.2,0c-3.9,0-7.7,0-11.6,0c-0.1,0-0.2,0-0.3,0v12h-0.5c-28.7,0-57.5,0-86.2,0
			C0.7,100,0.5,100,0.4,100z M12.6,87.9h74.9c0.1-0.4,0.1-75.4,0-75.8H12.6V87.9z"/>
		<path class="st0" d="M36.7,75.7H24.7V24.4c0.3-0.1,11.6-0.1,12.1,0v6.8c0.2-0.1,0.3-0.2,0.4-0.3c1.1-1,2.1-1.9,3.2-2.9
			c1-0.9,2-1.7,3.1-2.4c1.5-0.9,3-1.6,4.7-1.8c0.5-0.1,1.1-0.1,1.6-0.1c2.8,0,5.6-0.1,8.3,0c4.2,0.1,7.9,1.4,11.2,4.1
			c3.3,2.7,5.3,6.2,6,10.4c0.1,0.9,0.2,1.8,0.2,2.8c0,11.4,0,22.8,0,34.2v0.4H63.4c0-0.1,0-0.2,0-0.3c0-0.3,0-0.5,0-0.8
			c0-11.5,0-22.9,0-34.4c0-1.6-0.6-3-1.7-4.1c-0.9-0.9-1.9-1.5-3.2-1.6c-0.2,0-0.4,0-0.6,0c-2.5,0-4.9,0-7.4,0c-2,0-3.7,0.7-5.2,2
			c-1.3,1.1-2.5,2.2-3.8,3.4c-1.5,1.3-2.9,2.6-4.4,3.9c-0.2,0.2-0.3,0.4-0.3,0.7c0,10.2,0,20.5,0,30.7
			C36.7,75.3,36.7,75.5,36.7,75.7L36.7,75.7z"/>
	</g>
</g>
</svg>
