<?xml version="1.0" encoding="UTF-8"?>
<svg id="Livello_1" data-name="Livello 1" xmlns="http://www.w3.org/2000/svg" viewBox="0 0 766.54 456.3" height="125px" width="125px">
  <defs>
    <style>
      .cls-1 {
        fill: #fff;
      }
    </style>
  </defs>
  <g>
    <path class="cls-1" d="M50.69,363.94c37.95,0,47.51,15.57,47.51,31.14v2.65c0,14.95-8.23,32.11-47.42,32.03H3.98v-65.82H50.69Zm-2.92,48.39c21.85,0,24.33-9.64,24.33-15.39v-.53c0-5.75-2.39-15.22-24.33-15.22H29.11v31.14h18.67Z"/>
    <path class="cls-1" d="M105.45,429.76v-65.82h25.04v65.82h-25.04Z"/>
    <path class="cls-1" d="M223.91,383.58v.71h-27.34c-.27-2.39-1.68-6.99-15.92-6.99h-.88c-13.18,0-14.51,2.3-14.51,4.87v.09c0,2.65,1.95,4.87,14.33,5.04l11.85,.27c25.04,.62,34.77,6.63,34.77,19.82v1.24c0,11.15-6.19,22.38-40.79,22.38h-8.05c-36.36,0-40.17-14.77-40.17-23.36v-.88h27.6c.27,3.54,2.12,9.29,16.46,9.29h.8c14.07,0,16.1-3.01,16.1-6.19v-.09c0-3.27-1.59-5.57-15.48-5.93l-12.21-.35c-25.48-.8-32.29-9.55-32.29-19.82v-.8c0-10.71,7.25-20.08,37.87-20.08h7.87c32.56,0,39.99,10.35,39.99,20.79Z"/>
    <path class="cls-1" d="M326.7,402.42v1.42c0,8.67-6.1,27.16-45.83,27.16h-3.45c-40.52,0-46.54-20.61-46.54-33.09v-2.57c0-12.56,5.48-32.65,46.54-32.65h3.45c40.08,0,45.74,18.22,45.83,26.63v1.15h-26.1c-.44-1.68-2.65-10.09-21.67-10.09s-22.03,8.05-22.03,15.39v1.06c0,7.08,4.42,16.37,22.12,16.37,19.38,0,21.32-9.29,21.68-10.79h26.01Z"/>
    <path class="cls-1" d="M431.71,395.34v2.65c0,12.3-5.4,33-47.95,33h-3.98c-42.64,0-48.04-20.7-48.04-33v-2.65c0-12.47,5.4-32.65,48.04-32.65h3.98c42.47,0,47.95,20.17,47.95,32.65Zm-73.96,.62v1.06c0,6.9,4.51,16.19,23.98,16.19s23.98-9.02,23.98-16.01v-1.24c0-6.99-4.42-15.57-23.98-15.57s-23.98,8.58-23.98,15.57Z"/>
    <path class="cls-1" d="M464.35,429.76h-25.13v-65.82h59.81c19.29,0,27.69,6.19,27.69,16.9v.97c0,9.55-8.32,13.45-13.27,14.69,8.05,1.86,13.54,7.17,13.54,15.66v9.73c0,4.6,.62,6.28,1.24,7.43v.44h-25.66c-.53-.71-.8-1.59-.8-3.45v-7.7c0-7.61-3.45-11.41-13.36-11.41h-24.06v22.56Zm0-38.49h28.84c5.48,0,7.61-2.48,7.61-5.66v-.09c0-3.1-2.04-5.57-7.61-5.57h-28.84v11.32Z"/>
    <path class="cls-1" d="M581.83,363.94c37.95,0,47.51,15.57,47.51,31.14v2.65c0,14.95-8.23,32.11-47.42,32.03h-46.8v-65.82h46.71Zm-2.92,48.39c21.85,0,24.33-9.64,24.33-15.39v-.53c0-5.75-2.39-15.22-24.33-15.22h-18.67v31.14h18.67Z"/>
    <path class="cls-1" d="M636.58,429.76v-65.82h25.04v65.82h-25.04Z"/>
    <path class="cls-1" d="M733.81,419.14h-37.6l-5.04,10.62h-25.48l32.56-65.82h33.8l34.42,65.82h-27.51l-5.13-10.62Zm-8.05-16.46l-11.06-22.65-10.79,22.65h21.85Z"/>
  </g>
  <g>
    <g id="punte">
      <g>
        <polygon class="cls-1" points="383.26 118.55 373.08 120.49 383.26 0 383.26 118.55"/>
        <polygon class="cls-1" points="383.26 118.55 393.44 120.49 383.26 0 383.26 118.55"/>
      </g>
      <g>
        <polygon class="cls-1" points="354.51 147.37 356.45 157.55 235.96 147.37 354.51 147.37"/>
        <polygon class="cls-1" points="354.51 147.37 356.45 137.19 235.96 147.37 354.51 147.37"/>
      </g>
      <g>
        <polygon class="cls-1" points="383.26 176.16 393.44 174.22 383.26 294.71 383.26 176.16"/>
        <polygon class="cls-1" points="383.26 176.16 373.08 174.22 383.26 294.71 383.26 176.16"/>
      </g>
      <g>
        <polygon class="cls-1" points="412.03 147.37 410.09 137.19 530.58 147.37 412.03 147.37"/>
        <polygon class="cls-1" points="412.03 147.37 410.09 157.55 530.58 147.37 412.03 147.37"/>
      </g>
    </g>
    <g id="cerchio_estreno" data-name="cerchio estreno">
      <path class="cls-1" d="M394.31,55.85c42.08,5.02,75.45,38.4,80.46,80.48l13.96,1.18c-4.67-50.64-44.97-90.95-95.61-95.63l1.18,13.96Z"/>
      <path class="cls-1" d="M291.76,136.33c5.02-42.07,38.38-75.44,80.44-80.48l1.18-13.96c-50.62,4.69-90.92,44.99-95.59,95.62l13.96-1.18Z"/>
      <path class="cls-1" d="M372.2,238.86c-42.05-5.03-75.4-38.38-80.43-80.43l-13.96-1.18c4.69,50.61,44.97,90.89,95.58,95.57l-1.18-13.96Z"/>
      <path class="cls-1" d="M474.77,158.43c-5.04,42.06-38.4,75.41-80.46,80.43l-1.18,13.96c50.62-4.67,90.91-44.96,95.6-95.58l-13.96,1.18Z"/>
    </g>
    <g id="cerchio_mezzo" data-name="cerchio mezzo">
      <path class="cls-1" d="M335.98,132.6c4.82-15.47,17.02-27.68,32.48-32.52l.98-11.61c-22.32,5.22-39.88,22.79-45.09,45.11l11.62-.98Z"/>
      <path class="cls-1" d="M368.46,194.63c-15.44-4.83-27.64-17.02-32.47-32.46l-11.61-.98c5.22,22.3,22.77,39.85,45.07,45.07l-.98-11.63Z"/>
      <g>
        <path class="cls-1" d="M430.55,132.6l11.62,.98c-5.21-22.33-22.78-39.91-45.11-45.12l.98,11.61c15.47,4.83,27.68,17.05,32.5,32.53Z"/>
        <path class="cls-1" d="M430.54,162.17c-4.84,15.45-17.03,27.65-32.49,32.48l-.98,11.61c22.32-5.21,39.88-22.76,45.1-45.07l-11.63,.98Z"/>
      </g>
    </g>
    <g id="cerchio_piccolo" data-name="cerchio piccolo">
      <path class="cls-1" d="M412.37,147.59c0-6.71-1.53-11.89-5.31-16.83l-5.73,4.93c2.23,3.42,3.54,7.51,3.54,11.91,0,.17-.01,.33-.02,.49,0,.16,.02,.33,.02,.49,0,4.39-1.3,8.48-3.54,11.91l5.73,4.93c3.79-4.94,5.31-10.12,5.31-16.83,0-.16,0-.33-.01-.49,0-.16,.01-.33,.01-.49Z"/>
      <g>
        <path class="cls-1" d="M383.53,176.45c6.71,0,11.89-1.53,16.83-5.31l-4.93-5.73c-3.42,2.23-7.51,3.54-11.91,3.54-.17,0-.33-.01-.49-.02-.16,0-.33,.02-.49,.02-4.39,0-8.48-1.3-11.91-3.54l-4.93,5.73c4.94,3.79,10.12,5.31,16.83,5.31,.16,0,.33,0,.49-.01,.16,0,.33,.01,.49,.01Z"/>
        <path class="cls-1" d="M354.17,148.08c0,6.71,1.53,11.89,5.31,16.83l5.73-4.93c-2.23-3.42-3.54-7.51-3.54-11.91,0-.17,.01-.33,.02-.49,0-.16-.02-.33-.02-.49,0-4.39,1.3-8.48,3.54-11.91l-5.73-4.93c-3.79,4.94-5.31,10.12-5.31,16.83,0,.16,0,.33,.01,.49,0,.16-.01,.33-.01,.49Z"/>
      </g>
      <path class="cls-1" d="M382.54,118.26c-6.71,0-11.89,1.53-16.83,5.31l4.93,5.73c3.42-2.23,7.51-3.54,11.91-3.54,.17,0,.33,.01,.49,.02,.16,0,.33-.02,.49-.02,4.39,0,8.48,1.3,11.91,3.54l4.93-5.73c-4.94-3.79-10.12-5.31-16.83-5.31-.16,0-.33,0-.49,.01-.16,0-.33-.01-.49-.01Z"/>
    </g>
  </g>
</svg>
