<?xml version="1.0" encoding="UTF-8"?>
<svg id="Livello_1" data-name="Livello 1" xmlns="http://www.w3.org/2000/svg" viewBox="0 0 958.48 348.34" height="125px" width="125px">
  <defs>
    <style>
      .cls-1 {
        fill: #e21f02;
      }
    </style>
  </defs>
  <path class="cls-1" d="M242.9,0c-.09,1.38-.25,2.77-.25,4.15-.01,111.33,0,222.66-.02,333.99,0,5.17,.44,4.39-4.53,4.4-17.91,.03-35.81,.02-53.72,0-4.44,0-3.96,.46-3.97-4.1-.02-6.61,0-13.23,0-19.84v-3.01c-.59,.36-.86,.45-1,.63-12.66,16.68-30.07,25.63-50.06,29.71-52.96,10.81-104.93-19.99-122.5-72.27-3.49-10.37-5.63-21.01-6.32-31.94-.06-1-.35-1.99-.53-2.98,0-4.85,0-9.69,0-14.54,.18-.99,.37-1.99,.55-2.98,1.52-8.78,2.31-17.77,4.69-26.31,15.71-56.6,71.51-90.05,127.95-76.83,18.46,4.32,34.45,12.97,46.11,28.46,.19,.25,.52,.38,1.12,.82,0-1.31,0-2.23,0-3.15,0-47.05,0-94.1,0-141.15,0-1.02-.12-2.03-.19-3.05,20.89,0,41.79,0,62.68,0ZM120.81,290.5c31.79,0,57.77-26.51,57.79-58.96,.02-32.02-26.36-58.77-57.85-58.66-31.8,.11-57.55,26.26-57.58,58.46-.03,32.37,26.07,59.16,57.64,59.16Z"/>
  <path class="cls-1" d="M711.76,187.02h-59.14c-.21-1.54-.34-3.09-.65-4.61-1.2-5.85-4.3-10.44-9.27-13.75-9.67-6.44-25.13-6.42-34.77,.04-6.83,4.57-9.88,11.64-8.02,18.71,1.31,4.95,4.64,8.51,9.12,10.35,6.59,2.71,13.43,4.89,20.29,6.88,13.49,3.91,27.23,7.04,40.56,11.4,13.84,4.53,25.95,12.15,35.25,23.68,18.27,22.67,18.88,62.46-10.76,86.2-12.95,10.37-27.78,16.52-43.9,19.75-24.17,4.84-47.86,3.34-70.71-6.36-17.8-7.56-32.02-19.24-40.66-36.94-4.24-8.69-7.2-22.21-6.39-29.29h57.85c.39,2.08,.6,4.21,1.21,6.22,2.62,8.64,8.49,14.43,16.79,17.48,11.72,4.32,23.43,3.73,34.77-1.57,5.03-2.35,9.03-5.92,11.2-11.2,3.08-7.48,1.12-14.75-6.02-18.5-5.53-2.91-11.63-4.94-17.67-6.65-13.96-3.97-28.12-7.21-42.03-11.32-9.14-2.7-17.54-7.24-25.33-12.81-17.07-12.2-25.45-28.96-26.09-49.74-.7-22.8,10.32-39.46,28.07-52.3,14.31-10.35,30.63-15.47,48.14-17.01,19.07-1.67,37.62,.56,55.31,8.02,19.9,8.39,34.39,22,40.39,43.37,1.81,6.46,2.61,13.07,2.46,19.95Z"/>
  <path class="cls-1" d="M337.51,273.06h58.29c.22,1.54,.34,3.01,.65,4.44,1.79,8.06,6.44,14.16,13.78,17.66,13.91,6.63,27.87,6.11,41.13-1.78,3.18-1.89,5.95-5.21,7.76-8.5,4.15-7.55,1.85-15.64-5.77-19.6-5.39-2.8-11.31-4.75-17.18-6.41-14.05-3.97-28.33-7.17-42.3-11.39-10.48-3.16-20.06-8.45-28.65-15.37-14.63-11.79-21.76-27.27-22.63-45.83-1.16-24.85,11.13-42.34,30.85-55.54,14.27-9.55,30.33-14.15,47.32-15.28,20.81-1.38,40.94,1.57,59.67,11.26,20.41,10.57,32.85,26.99,35.86,50.05,.43,3.3,.49,6.65,.73,10.19h-59.14c-.11-.29-.35-.69-.4-1.12-1.65-12.17-7.95-18.93-20.14-21.31-7.72-1.51-15.26-.8-22.28,2.95-6.01,3.21-10.08,7.92-10.54,15.06-.37,5.71,2.07,10.09,6.59,13.41,5.06,3.71,10.94,5.48,16.9,7.08,14.56,3.89,29.24,7.42,43.65,11.8,14.28,4.34,27.07,11.55,37.02,23.02,10.47,12.07,14.85,26.3,14.2,42.07-1.06,25.53-14.9,42.88-36.46,54.67-20.59,11.27-42.91,14.99-66.2,13.23-17.86-1.35-34.61-6.3-49.67-16.16-17.92-11.73-29.14-27.94-32.26-49.36-.44-3-.53-6.06-.79-9.26Z"/>
  <path class="cls-1" d="M958.48,169.05h-46.98v3.81c0,55.34,0,110.68,0,166.02q0,3.66-3.58,3.66c-18.37,0-36.75,0-55.12,0h-3.4v-4.15c0-55.06,0-110.12,0-165.18,0-4.65,.42-4.16-4.24-4.17-11.1-.02-22.2-.06-33.29,.04-2.26,.02-3.05-.55-3.03-2.95,.11-14.16,.05-28.32,.06-42.48,0-.82,.07-1.64,.12-2.77h40.39c0-1.49,0-2.68,0-3.86,0-24.32,0-48.63,0-72.95q0-4,3.87-4.01c18.19,0,36.37,0,54.56,0h3.62V120.8h47.02v48.24Z"/>
  <path class="cls-1" d="M264.85,120.91h61.69v221.45h-61.69V120.91Z"/>
  <path class="cls-1" d="M732.87,120.92h61.65v221.44h-61.65V120.92Z"/>
  <path class="cls-1" d="M763.56,81.94c-19.5-.36-35.8-13.5-38.92-32.24-2.09-12.59,2.05-23.38,11.44-31.99,14.4-13.19,37.52-14.07,52.77-1.89,11.48,9.17,16.25,21.27,13.22,35.69-3.24,15.42-13.38,24.71-28.34,28.85-3.29,.91-6.78,1.07-10.18,1.58Z"/>
  <path class="cls-1" d="M295.53,81.94c-11.18-.42-20.83-4.22-28.72-12.09-15.15-15.11-14.3-38.69,1.82-52.76,14.96-13.05,38.8-13.15,53.62,.06,10.71,9.54,14.72,21.62,11.31,35.56-3.62,14.83-13.63,23.72-28.14,27.68-3.2,.87-6.59,1.06-9.89,1.56Z"/>
</svg>
