<?xml version="1.0" encoding="UTF-8"?>
<svg id="Livello_1" data-name="Livello 1" xmlns="http://www.w3.org/2000/svg" viewBox="0 0 790.99 456.33" height="90px" width="90px">
  <path d="M30.32,57.04h125.65c20.21,0,36.7,2.93,49.46,8.78,12.76,5.85,22.6,13.16,29.52,21.94,6.91,8.78,11.63,18.35,14.16,28.72,2.52,10.37,3.79,19.94,3.79,28.72s-1.27,18.29-3.79,28.52c-2.53,10.24-7.25,19.75-14.16,28.52-6.92,8.78-16.75,16.02-29.52,21.74-12.76,5.72-29.26,8.58-49.46,8.58H80.18v109.3H30.32V57.04Zm49.86,134.82h73c5.58,0,11.3-.8,17.15-2.39,5.85-1.6,11.23-4.19,16.16-7.78,4.92-3.59,8.91-8.38,11.97-14.36,3.05-5.98,4.59-13.49,4.59-22.54s-1.33-17.02-3.99-23.14c-2.66-6.11-6.25-10.97-10.77-14.56-4.52-3.59-9.71-6.05-15.56-7.38-5.85-1.33-12.1-1.99-18.75-1.99H80.18v94.14Z"/>
  <path d="M291.19,57.04h45.47V341.85h-45.47V57.04Z"/>
  <path d="M558.84,295.97c0,5.58,.73,9.57,2.19,11.97,1.46,2.39,4.32,3.59,8.58,3.59h4.79c1.86,0,3.99-.26,6.38-.8v31.51c-1.6,.53-3.66,1.13-6.18,1.8-2.53,.66-5.12,1.26-7.78,1.79-2.66,.53-5.32,.93-7.98,1.2-2.66,.26-4.92,.4-6.78,.4-9.31,0-17.02-1.86-23.14-5.58-6.12-3.72-10.11-10.23-11.97-19.55-9.04,8.78-20.14,15.16-33.31,19.15-13.16,3.99-25.87,5.98-38.09,5.98-9.31,0-18.22-1.26-26.72-3.79-8.52-2.52-16.02-6.25-22.54-11.17-6.52-4.92-11.71-11.17-15.56-18.75-3.86-7.58-5.78-16.42-5.78-26.53,0-12.76,2.32-23.14,6.98-31.11,4.65-7.98,10.77-14.22,18.35-18.75,7.58-4.52,16.09-7.78,25.53-9.77,9.44-2,18.95-3.52,28.52-4.59,8.24-1.59,16.09-2.72,23.54-3.39,7.44-.66,14.02-1.79,19.74-3.39,5.71-1.6,10.23-4.05,13.56-7.38s4.99-8.31,4.99-14.96c0-5.85-1.4-10.63-4.19-14.36-2.79-3.72-6.25-6.58-10.37-8.58-4.12-1.99-8.71-3.32-13.76-3.99-5.05-.66-9.84-1-14.36-1-12.76,0-23.27,2.66-31.51,7.98-8.25,5.32-12.9,13.56-13.96,24.73h-45.47c.8-13.29,3.99-24.33,9.57-33.11,5.58-8.78,12.7-15.82,21.34-21.14,8.64-5.32,18.41-9.04,29.32-11.17,10.9-2.13,22.07-3.19,33.51-3.19,10.1,0,20.07,1.07,29.92,3.19,9.84,2.13,18.68,5.58,26.53,10.37,7.84,4.79,14.16,10.97,18.95,18.55,4.79,7.58,7.18,16.82,7.18,27.72v106.1Zm-45.47-57.44c-6.92,4.53-15.43,7.25-25.53,8.18-10.11,.93-20.21,2.33-30.31,4.19-4.79,.8-9.44,1.93-13.96,3.39-4.53,1.46-8.51,3.46-11.97,5.98-3.46,2.53-6.18,5.85-8.18,9.97-1.99,4.13-2.99,9.11-2.99,14.96,0,5.05,1.46,9.31,4.39,12.76,2.92,3.46,6.45,6.18,10.57,8.18,4.12,1.99,8.64,3.39,13.56,4.19,4.92,.8,9.37,1.2,13.36,1.2,5.05,0,10.5-.66,16.35-1.99,5.85-1.33,11.37-3.59,16.55-6.78,5.19-3.19,9.5-7.24,12.96-12.17,3.45-4.92,5.19-10.97,5.19-18.15v-33.91Z"/>
  <path d="M585.16,135.62h49.86l53.85,153.97h.8l52.25-153.97h47.47l-80.18,217.39c-3.73,9.31-7.38,18.21-10.97,26.73-3.59,8.51-7.98,16.02-13.16,22.54-5.19,6.51-11.64,11.7-19.35,15.56-7.72,3.85-17.55,5.78-29.52,5.78-10.64,0-21.14-.8-31.51-2.39v-38.29c3.72,.53,7.31,1.13,10.77,1.79,3.45,.66,7.04,1,10.77,1,5.32,0,9.7-.67,13.16-2,3.45-1.33,6.31-3.26,8.58-5.78,2.26-2.53,4.19-5.52,5.78-8.98,1.6-3.46,3.05-7.45,4.39-11.97l5.19-15.96-78.18-205.43Z"/>
</svg>
