<?xml version="1.0" encoding="UTF-8"?>
<svg id="Livello_1" data-name="Livello 1" xmlns="http://www.w3.org/2000/svg" viewBox="0 0 852.3076923077 437.0298575976" height="90px" width="90px">
  <path d="M126.3081225471,14.7515875664c67.3017722814,0,94.4964928714,49.7725320943,94.4964928714,99.094634034,0,50.2604980953-27.19472059,99.1321698802-94.4964928714,99.1321698802H41.9463081564v119.4015268417H0V14.7515875664H126.3081225471Zm-2.7588846975,159.0393804553c39.6378536136,0,55.3090694125-29.5031751328,55.3090694125-59.9447464213,0-29.5031751328-15.2020177211-60.3576407298-53.0006148697-60.3576407298H41.9463081564v120.3023871511H123.5492378496Z"/>
  <path d="M272.1348851312,332.3799183223V0h40.1070516914V332.3799183223h-40.1070516914Z"/>
  <path d="M551.5704923531,117.0743043757h40.0882837683v215.3056139465h-40.0882837683v-38.2865631495c-14.338693258,25.8246622028-44.2922985455,43.8043325446-78.8252770725,43.8043325446-56.2850014143,0-105.5883354309-47.4828454746-105.5883354309-113.3957914457,0-63.6232593514,46.5632172421-112.945361291,107.3900560497-112.945361291,32.2808277535,0,62.6848631957,13.8131914108,77.0235564537,39.1874234589v-33.6696540638Zm0,107.4275918959c0-44.2547626993-37.3857028401-75.1467641424-73.3450435236-75.1467641424-39.1686555358,0-70.5110871336,34.5705143732-70.5110871336,75.1467641424,0,41.0266799239,31.3424315978,75.5971942971,70.9615172883,75.5971942971,38.2865631495,0,72.8946133689-31.7928617526,72.8946133689-75.5971942971Z"/>
  <path d="M808.9162540716,117.0743043757h43.3914382361l-133.7026842534,319.9555532218h-42.4155062342l45.1931588549-111.106104826-86.7078047797-208.8494483958h43.3163665436l65.0120856617,158.5889503006,65.9129459711-158.5889503006Z"/>
</svg>
