<?xml version="1.0" encoding="UTF-8"?>
<svg id="Livello_1" data-name="Livello 1" xmlns="http://www.w3.org/2000/svg" viewBox="0 0 86.37 41.71" height="90px" width="90px">
  <defs>
    <style>
      .cls-1 {
        fill: #fff;
      }
    </style>
  </defs>
  <path class="cls-1" d="M0,0H14.3c2.3,0,4.18,.33,5.63,1s2.57,1.5,3.36,2.5c.79,1,1.32,2.09,1.61,3.27,.29,1.18,.43,2.27,.43,3.27s-.14,2.08-.43,3.25c-.29,1.17-.82,2.25-1.61,3.25-.79,1-1.91,1.82-3.36,2.47-1.45,.65-3.33,.98-5.63,.98H5.67v12.44H0V0ZM5.67,15.34H13.98c.63,0,1.29-.09,1.95-.27,.67-.18,1.28-.48,1.84-.89,.56-.41,1.01-.95,1.36-1.63,.35-.68,.52-1.53,.52-2.56s-.15-1.94-.45-2.63c-.3-.7-.71-1.25-1.23-1.66s-1.1-.69-1.77-.84c-.67-.15-1.38-.23-2.13-.23H5.67V15.34Z"/>
  <path class="cls-1" d="M29.68,0h5.17V32.41h-5.17V0Z"/>
  <path class="cls-1" d="M60.14,27.19c0,.63,.08,1.09,.25,1.36,.17,.27,.49,.41,.98,.41h.55c.21,0,.45-.03,.73-.09v3.59c-.18,.06-.42,.13-.7,.2-.29,.08-.58,.14-.89,.2-.3,.06-.61,.11-.91,.14-.3,.03-.56,.05-.77,.05-1.06,0-1.94-.21-2.63-.63s-1.15-1.16-1.36-2.22c-1.03,1-2.29,1.72-3.79,2.18-1.5,.45-2.94,.68-4.33,.68-1.06,0-2.07-.14-3.04-.43-.97-.29-1.82-.71-2.56-1.27-.74-.56-1.33-1.27-1.77-2.13-.44-.86-.66-1.87-.66-3.02,0-1.45,.26-2.63,.79-3.54,.53-.91,1.23-1.62,2.09-2.13,.86-.51,1.83-.89,2.9-1.11,1.07-.23,2.16-.4,3.25-.52,.94-.18,1.83-.31,2.68-.39,.85-.08,1.6-.2,2.25-.39,.65-.18,1.16-.46,1.54-.84s.57-.95,.57-1.7c0-.67-.16-1.21-.48-1.63-.32-.42-.71-.75-1.18-.98-.47-.23-.99-.38-1.57-.45-.57-.08-1.12-.11-1.63-.11-1.45,0-2.65,.3-3.59,.91-.94,.61-1.47,1.54-1.59,2.81h-5.17c.09-1.51,.45-2.77,1.09-3.77,.63-1,1.45-1.8,2.43-2.41,.98-.61,2.09-1.03,3.34-1.27,1.24-.24,2.51-.36,3.81-.36,1.15,0,2.28,.12,3.4,.36,1.12,.24,2.13,.63,3.02,1.18,.89,.55,1.61,1.25,2.16,2.11,.55,.86,.82,1.91,.82,3.15v12.07h0Zm-5.17-6.53c-.79,.52-1.76,.82-2.9,.93-1.15,.11-2.3,.27-3.45,.48-.55,.09-1.07,.22-1.59,.39-.52,.17-.97,.39-1.36,.68-.39,.29-.7,.67-.93,1.13-.23,.47-.34,1.04-.34,1.7,0,.57,.17,1.06,.5,1.45,.33,.39,.73,.7,1.2,.93,.47,.23,.98,.39,1.54,.48,.56,.09,1.07,.14,1.52,.14,.57,0,1.19-.08,1.86-.23s1.29-.41,1.88-.77c.59-.36,1.08-.82,1.47-1.38,.39-.56,.59-1.25,.59-2.07v-3.86h0Z"/>
  <path class="cls-1" d="M63.13,8.94h5.67l6.13,17.52h.09l5.95-17.52h5.4l-9.12,24.73c-.42,1.06-.84,2.07-1.25,3.04-.41,.97-.91,1.82-1.5,2.56-.59,.74-1.32,1.33-2.2,1.77-.88,.44-2,.66-3.36,.66-1.21,0-2.41-.09-3.59-.27v-4.36c.42,.06,.83,.13,1.23,.2,.39,.08,.8,.11,1.23,.11,.61,0,1.1-.08,1.5-.23,.39-.15,.72-.37,.98-.66,.26-.29,.48-.63,.66-1.02,.18-.39,.35-.85,.5-1.36l.59-1.82-8.9-23.37h0Z"/>
</svg>
