<?xml version="1.0" encoding="UTF-8"?>
<svg id="Livello_1" data-name="Livello 1" xmlns="http://www.w3.org/2000/svg" viewBox="0 0 692.61 435">
  <defs>
    <style>
      .cls-1 {
        fill: #fff;
      }

      .cls-2 {
        stroke: rgba(226, 32, 0, 0);
      }

      .cls-2, .cls-3 {
        fill: none;
        stroke-linecap: round;
        stroke-miterlimit: 10;
        stroke-width: 29.09px;
      }

      .cls-3 {
        stroke: #fff;
      }
    </style>
  </defs>
  <line class="cls-2" x1="14.55" y1="14.55" x2="678.07" y2="420.45"/>
  <g>
    <path class="cls-1" d="M167.94,295.01l84.03,74.38c7.44,6.58,19.16,1.3,19.16-8.63V67.23c0-9.89-11.64-15.18-19.09-8.69l-84.08,73.28c-2.1,1.83-4.79,2.84-7.57,2.84H66.93c-6.36,0-11.52,5.16-11.52,11.52v133.79c0,6.33,5.11,11.48,11.45,11.52l93.53,.62c2.79,.02,5.47,1.05,7.56,2.89h0Z"/>
    <path class="cls-3" d="M367.73,122.98h0c47.44,51.73,47.44,131.16,0,182.89h0"/>
    <path class="cls-3" d="M447.92,69.04h0c75.43,82.26,75.43,208.54,0,290.79h0"/>
    <path class="cls-3" d="M532.46,14.55h0c103.51,112.88,103.51,286.17,0,399.04h0"/>
  </g>
</svg>