<?xml version="1.0" encoding="UTF-8"?>
<svg id="Livello_1" data-name="Livello 1" xmlns="http://www.w3.org/2000/svg" viewBox="0 0 994.93 354.31" height="125px" width="125px">
  <defs>
    <style>
      .cls-1 {
        fill: #f7e933;
      }

      .cls-2 {
        fill: #df3fe0;
      }

      .cls-3 {
        fill: #df3ee0;
      }

      .cls-4 {
        fill: #75fe8e;
      }
    </style>
  </defs>
  <path class="cls-3" d="M760.86,172.81c-2.66,4.97-6.21,10.48-8.64,16.45-2.98,7.31-5.85,14.73-4.63,23.1,1.47,10.1-.23,19.67-5.88,28.54-1.68,2.64-2.76,6.51-2.29,9.53,2.13,13.97-2.63,26.48-8.15,38.58-4.02,8.81-17.71,11.44-26.04,5.05-6.03-4.62-12.12-5.3-18.76-3.72-9.55,2.26-16.71-.63-23.29-7.78-2.36-2.57-7.3-3.01-11.19-3.88-5.41-1.22-10.94-1.92-16.91-2.93v-18.07c-3.47-.35-7.01-.88-10.56-1.04-5.45-.25-8-3.91-5.7-8.96,2.52-5.52,3.45-11.19,1.35-16.86-2.81-7.59-.52-13.99,3.95-19.89,3.92-5.17,4.54-10.93,2.3-16.45-2.43-6-3.49-13.07-10-16.76-1.26,.89-2.58,2.05-4.1,2.86-6.38,3.39-4.22,9.97-5.72,15.15-1.5,5.18-.14,10.14,2.26,14.73,4.36,8.32,2.83,16.35-1.64,23.78-4.43,7.38-5.91,14.49-3.94,23.16,1.18,5.21-.5,11.32-1.9,16.77-1.02,3.95-7.78,6.53-12.08,5.06-7.63-2.61-14.61-.57-21.89,1.63-8.03,2.41-15.87,1.37-22.73-4.1-3.02-2.41-6.18-4.62-9.34-6.85-6.03-4.25-13.31-1.57-19.64-3.4-6.51-1.88-12.78-4.95-18.68-8.32-1.44-.83-1.45-4.87-1.41-7.42,.06-3.91-.62-6.18-5.37-5.94-3.9,.2-6.43-4.47-6.59-8.64-.21-5.73-.64-11.65-2.33-17.07-2.35-7.56-1.67-14.44,1.77-21.27,3.34-6.63,1.76-13.39,.82-20.23-5.19,7.29-10.22,14.91-8.1,24.09,2.18,9.49-2.6,15.13-8.65,20.79-5.51,5.15-9.84,10.73-11.32,18.75-.82,4.42-4.29,9.29-7.99,12.03-7.01,5.2-15.11,8.9-22.65,13.42-6.8,4.08-14.14,3.77-21.46,2.81-4.95-.65-9.75-2.78-14.69-3.06-3.76-.21-7.74,1.12-11.43,2.34-8.95,2.94-19.44,.97-26.13-6.1-1.43-1.51-4.43-2.14-6.71-2.14-6.73,0-13.28-1.92-16.55-7.35-4.63-7.7-13-10.17-18.56-16.02-4.15-4.36-7.78-10.25-9.12-16.03-2.44-10.56-6.52-18.89-16.14-24.9-7.83-4.89-10.08-13.76-10.96-22.63-.71-7.21-.78-14.5-1.82-21.66-.98-6.74-4.59-12.4-10.04-16.51-4.78-3.62-6.95-8.39-7.28-14.07-.48-8.26-.02-16.63-1.21-24.77-.73-5.03-3.24-10.04-5.9-14.49-3.67-6.14-8.83-11.43-12.21-17.7-2.85-5.28-.42-11,2.92-15.44,5.8-7.72,13.65-11.17,23.59-9.67,6.2,.94,12.05,.13,17.24-4.39,7.18-6.25,15.47-8.76,24.49-3.84,6.81,3.72,12.99,1.83,19.2-1.29,1.13-.57,2.16-1.31,3.27-1.91,6.84-3.63,10.32-1.63,10.86,6.32,.17,2.52,.03,5.06,.03,9.12,7.16-3.15,13.55-5.96,19.9-8.74,0-1.97-.58-5.05,.17-7.76,.72-2.62,2.43-5.25,4.41-7.14,1.4-1.34,3.94-1.87,6.03-2.03,4.36-.35,8.78,0,13.14-.32,5.62-.41,10.33-2.8,14.64-6.59,5.29-4.66,11.85-3.1,17.65-1.39,8.54,2.52,16.58,1.82,24.81-.9,7.58-2.5,14.29,2.55,14.94,11.45,2.82-.53,5.66-.78,8.31-1.62,8.88-2.8,15.34,2.1,14.96,11.3-.06,1.34,1.17,2.76,1.88,4.1,1.6,3.07,3.25,6.12,4.62,8.69,2.01-6.26,4.62-13.63,6.65-21.16,.74-2.75,.34-5.9,.05-8.82-.77-7.74,5.47-10.28,12.59-7.46,7.32,2.9,14.1,1.61,20.2-1.92,7.84-4.54,15.09-3.52,22.19,.54,4.56,2.61,8.87,2.8,13.78,1.81,8.42-1.7,17.01-2.66,24.91,1.8,2.88,1.62,4.94,4.64,7.55,6.8,2.42,2,5.34,5.56,7.59,5.24,9.46-1.34,13.32,4.56,17.43,11.11,2.27,3.62,4.96,7.28,8.29,9.86,3.88,2.99,5.59,1.92,7.78-2.56,2.08-4.23,4.29-8.41,6.76-12.42,3.6-5.83,8.56-9.4,15.66-6.54,5.7,2.3,10.63,.33,15.6-1.78,10.77-4.56,20.64-4.52,30.54,2.98,5.95,4.51,13.14,7.16,21.22,6.45,12.32-1.08,23.12,3.8,33.06,10.28,2.47,1.61,4.04,5.68,4.57,8.87,.65,3.88,3.01,5.15,5.91,6.5,4.64,2.16,9.98,3.57,13.65,6.84,5.17,4.6,6.52,11.69,5.21,18.25-1.08,5.43-3.78,10.67-6.49,15.6-3.3,6-5.22,12.05-3.51,18.81,1.61,6.36-.14,12.1-1.83,18.25-2.09,7.59-7.34,13.38-9.74,20.53-1.09,3.26-.19,7.18-.19,9.96,6.52-7.72,13.83-15.4,19.89-23.96,2.92-4.13,4.4-9.84,4.95-14.99,1.56-14.84,9.94-23.75,23.11-29.17,4.92-2.02,9.85-4.05,14.61-6.41,1.99-.99,4-2.57,5.19-4.41,5.59-8.64,14.45-10.24,22.79-7.93,9.13,2.53,17.45,.3,26.18,.02,7.42-.24,15.05,1.61,22.34,3.47,3.68,.94,6.79,4.01,10.23,5.99,.89,.51,2.06,.62,3.12,.76,9.71,1.29,18.03,4.96,24.74,12.51,1.9,2.13,5.98,3.7,8.81,3.37,7.55-.88,12,3.15,16.18,8.19,4.2,5.05,7.75,10.81,12.62,15.08,4.11,3.61,6.61,7.47,8.11,12.57,2.09,7.12,5.53,13.93,6.86,21.16,1.15,6.25-.02,12.9,.22,19.35,.1,2.74,1.35,5.42,1.83,8.17,.69,3.92,1.99,7.99,1.54,11.82-1.14,9.59-4.75,18.3-9.91,26.67-4.78,7.78-11.44,15.05-12.13,24.68-.53,7.49-4.62,12.49-9.07,17.78-2.52,3-3.91,6.92-5.9,10.38-1.12,1.94-2.5,3.73-3.62,5.66-1.57,2.69-2.88,5.53-4.53,8.17-4.34,6.94-10.29,11.57-18.71,12.45-.47,.05-1.08-.15-1.42,.08-7.46,5.09-17.17,6.58-22.74,14.78-4.01,5.9-10.2,8.15-17.19,7.98-5.39-.13-10.77-.61-16.15-.86-1.38-.06-2.99-.24-4.13,.35-7.18,3.67-15.1,2.3-22.61,3.6-8.4,1.45-14.86-2.54-21.45-6.44-2.44-1.45-4.78-2.18-7.71-2.78-10.67-2.2-20.83-6.56-24.93-18.04-2.65-7.41-8.64-10.56-15.19-11.81-14.52-2.77-23.08-14.44-20.42-28.58,1.86-9.91,1.47-19.04-3.48-28.03-5.76-10.48-4.15-20.14,2.44-30.25,5.84-8.98,7.31-19.61,4.87-28.71Zm-122.86-27.9c.81,2.09,1.87,3.74,2.02,5.47,.29,3.48,.47,7.06-.03,10.49-.74,5.06-1.49,10.28-3.4,14.95-1.89,4.62-2.93,8.72-1.02,13.56,2.28,5.77,1.6,11.6,.27,17.67-1.54,7.06-9.02,13.25-3.44,21.52,3.11,4.61-1.18,8.36-2.09,12.43-.87,3.9-.02,5.53,3.85,5.04,5.38-.69,8.82,2.04,12.23,5.68,2.17,2.32,5.02,5.02,7.88,5.46,5.29,.81,10.88,.59,16.22-.14,5.12-.69,9.22-.07,12.64,4.06,4.09,4.94,11.2,4.27,14.17-1.29,.99-1.86,1.6-3.96,2.16-6.01,1.06-3.9,1.24-8.24,3.12-11.67,2.02-3.68,1.25-6.76,.74-10.35-.43-3.07-.56-6.61,.56-9.39,4.42-11.03,9.69-21.42,9.32-34.13-.3-10.27,3.19-20.42,8.04-29.86,2.94-5.72,6.03-11.35,5.68-18.44-.5-10.23,.68-19.98,7.26-29.05,5.06-6.97,7.25-15.48,6.05-24.96-.63-4.96,2.62-10.56,4.65-15.66,1.65-4.14,4.8-7.76,6.01-11.97,1.11-3.86,1.85-9.36-2.2-11.61-10.58-5.9-20.96-12.2-34.26-11.27-8.97,.63-17.37-3.28-25.29-8.12-3.63-2.22-8.81-2.47-13.29-2.47-1.81,0-3.68,2.99-5.4,4.76-2.59,2.66-5.68,4.71-9.18,2.75-10.29-5.75-10.06-4.42-17.13,5.15-.47,.63-.76,1.39-1.09,2.12-3.31,7.35-8.03,13.58-14.34,18.65-4.49,3.61-5.71,3.68-8.86-1.15-4.86-7.45-11.43-12.94-19.48-16.35-8.54-3.61-14-9.65-16.51-18.37-.94-3.27-2.93-5-5.98-5.84-10.1-2.79-20.34-2.99-30.74-2.14-3.59,.29-8.04,.1-10.84-1.75-6.64-4.4-12.73-3.64-19.04-.17-5.46,3-10.81,5.86-17.18,2.38-.82-.45-2.11-.06-3.45-.06-.06,1.04-.31,1.86-.12,2.56,2.45,9.04-.38,17.26-3.58,25.55-2.43,6.29-1.55,12.4,1.78,18.42,4.4,7.96,6.71,16.59,5.15,25.75-.91,5.34-2.29,10.61-3.76,15.83-2.7,9.54-3.78,18.73,.82,28.27,2.25,4.67,2.35,10.27,0,15.57-1.74,3.93-3.09,8.09-4.13,12.26-1.23,4.92,1.6,8.86,3.52,13.17,4,8.92,1.84,17.86-1.64,26.46-2.43,6.01-4.53,12.24-1.48,18.26,2.83,5.59,5.41,10.85,3.35,16.99,.43,.35,.54,.52,.66,.53,.63,.06,1.27,.11,1.9,.1,8.67-.03,17.04-.3,24.11,6.83,5.49,5.54,12.69,7.68,20.67,3.8,6.75-3.29,13.72-3.8,20.72-.18,1.62,.84,3.74,.71,6.12,1.1-.23-2.68-.31-4.57-.57-6.43-1.41-10.11-1.85-19.77,4.13-29.17,3.42-5.38,5.53-12.44,1.55-18.71-6.18-9.73-4.47-19.04-.06-28.63,2.98-6.47,10.03-12.15,4.23-20.6-.45-.65,1.08-3.25,2.28-4.16,.54-.41,3.09,.78,3.79,1.86,1.95,3,4.16,6.15,4.92,9.55,2.24,9.96,9.17,16.53,15.43,23.72,10.34-9.39,20.42-18.53,31.54-28.62Zm129.73,114.23c-.07,11.68,3.04,16.76,13.2,18.88,5.97,1.25,10.83,3.49,14.73,8.12,.67,.79,2.3,.87,3.52,1.06,4.52,.73,9.71,.22,13.4,2.35,3.92,2.25,6.32,7.07,9.59,10.57,1.81,1.93,4.05,4.93,6.07,4.91,5.47-.03,11.02-1.05,16.36-2.38,5.12-1.28,9.97-1.86,15.08-.07,4.81,1.68,9.28,.75,13.21-2.65,1.41-1.22,3.1-2.12,4.62-3.21,4.24-3.04,8.69-5.85,12.64-9.25,4.14-3.56,8.67-5.9,14.02-6.82,1.88-.32,4.17-.4,5.5-1.51,7.49-6.24,14.4-12.92,17.75-22.6,1.76-5.09,4.75-9.75,7.19-14.6,3.15-6.26,6.58-12.29,6.23-19.82-.14-3.02,1.52-6.37,3.07-9.18,2.34-4.23,5.29-8.12,8-12.14,4.61-6.85,5.71-14.37,3.97-22.29-.88-4.01-3.11-7.9-3.19-11.88-.15-7.27,1.08-14.55,1.27-21.84,.21-7.65-2.16-14.13-8.18-19.66-6.86-6.3-12.61-13.79-19.14-20.47-1.54-1.58-4.23-2.69-6.46-2.82-5.88-.33-10.82-1.85-14.69-6.7-1.67-2.09-4.27-3.66-6.75-4.81-3.73-1.73-7.86-2.6-11.57-4.36-4.63-2.19-9.86-3.51-13.93-1.02-8.6,5.26-16.65,5.19-25.14,.52-3.22-1.77-5.38-1.05-7.3,2.34-2.4,4.25-5.67,7.68-10.69,9.39-6.25,2.12-12.57,4.38-18.34,7.52-8.63,4.69-16.84,10.15-15.73,22.06,.15,1.62-.28,3.45-.93,4.98-2.98,7.05-6.29,13.56-12.52,18.84-6.57,5.58-12.08,12.27-10.68,22.67,1.07,7.97,1.47,16.43-2.53,24.2-2.49,4.85-4.63,9.88-6.96,14.81-2.86,6.07-1.93,11.59,1.25,17.45,2.17,4,3.35,8.78,3.91,13.34,.65,5.28,.15,10.71,.15,16.07ZM443.1,18.03c-6.27,.6-11.58,1.22-16.9,1.58-3.39,.23-6.81,.14-10.21,.06-4.5-.1-9.99-2.06-13.32-.17-9.48,5.38-19.37,7.9-30.01,8.71-1.22,.09-3.34,1.99-3.27,2.92,.32,4.32,.33,9.03,2.15,12.78,4.83,9.96,7.76,20.49,4.92,30.98-3.52,12.98-.41,23.76,5.76,34.91,2.91,5.26,4.86,11.82,4.77,17.75-.12,7.38-2.75,14.72-4.4,22.06-1.44,6.37-4.99,10.81-11.9,11.32-8.12,.6-15.43-2.59-19.74-8.9-3.11-4.57-3.24-11.15-4.77-16.81-1.19-4.41-1.55-9.4-3.93-13.06-6.71-10.31-9.94-20.96-6.57-33.09,2.77-9.96-.06-19.04-4.91-27.52-3.92-6.85-5.16-13.95-4.18-21.86-9.44,5.37-18.95,5.53-28.67,1.07-4.46-2.05-8.64-.78-12.12,2.28-8,7.05-16.96,9.56-27.52,7.33-2.36-.5-5.73,.71-7.76,2.26-5.63,4.31-4.94,13.21,.42,18.69,4.94,5.06,9.94,10.27,13.79,16.14,4.45,6.79,2.38,14.72,.92,22.03-1.63,8.12,1.07,13.88,7.05,19.11,10.6,9.29,15.42,20.68,12.43,35.07-1.84,8.86-.59,17.06,8.34,22.32,2.78,1.64,5.2,3.98,7.52,6.27,7,6.88,9.15,15.72,9.81,25.11,.36,5.13,1.68,9.78,6.48,12.66,6.83,4.1,13.42,8.29,18,15.25,4.39,6.67,7.37,7.11,14.95,4.02,7.73-3.15,15.16-5.08,23.4-.44,4.44,2.5,10.09,3.22,15.31,3.92,7.27,.98,12.86-3.71,18.87-6.77,6.51-3.32,9.33-8.87,10.31-16,1.51-10.96,6.7-19.55,17.36-24.26,5.87-2.59,6.26-5.53,5.85-12.11-.39-6.16,.3-12.63,1.91-18.59,1.11-4.07,5.5-7.2,6.86-11.28,2.32-6.93,3.56-14.18,.68-21.54-1.62-4.13-2.62-8.48-.3-12.95,1.86-3.57,4.48-7.37,4.56-11.11,.12-5.65-1.87-11.32-2.6-17.03-.6-4.68-2.09-9.94-.62-14.02,2.28-6.32,3.43-11.17-1.13-17.18-6.6-8.7-5.73-18.75-2.91-28.87,.82-2.96,1.11-7.11-.37-9.42-2.56-3.99-5.43-7.48-4.3-13.64Zm38.02,35.66c-1.69,7.04-2.63,14.45,1.06,21.26,3.41,6.27,4.95,12.61,4.46,19.71,1.06-2.81,1.42-5.72,2.18-8.52,1.58-5.84,1.02-11.23-1.71-16.75-2.47-4.97-4.01-10.39-6-15.7Zm-114.05,18.31c1.41-9.88-2.77-18.7-6.01-27.74-.27,9.76-3.55,20.12,6.01,27.74Zm119.47,61.11c-1.09,2.84-2.64,5.68-3.19,8.71-.5,2.75-3.09,6,.72,9.17,2.72-6.16,5.4-11.66,2.47-17.88Zm-110.51-12.93c-1.91-4.15-3.83-8.3-5.74-12.45-.91,5.39-.23,10.08,5.74,12.45Z"/>
  <path class="cls-3" d="M229.32,293.69c-2.78,2.02-5.47,4.16-8.34,6.05-7.16,4.71-13.81,1.5-13.35-7.15,.32-6.03-2.27-10.61-5.97-13.63-7-5.72-9.4-13.4-11.89-21.27-3.03-9.61-3.24-9.84-14.4-10.42,.76,6.79,4.33,12.25,8.25,17.39,7.49,9.83,10.1,21.67,14.49,32.82,1.85,4.71,5.86,8.54,8.77,12.86,.99,1.47,2.18,3.18,2.18,4.78,0,.92-2.09,2.09-3.45,2.69-2.71,1.2-5.8,1.7-8.29,3.23-2.11,1.29-4.12,3.34-5.24,5.54-4.35,8.47-9.75,11.73-19.87,10.43-10.29-1.32-24.8,5.27-28.11,15.05-.8,2.35-5.82,3.04-8.72,1.31-3.74-2.22-6.83-4.97-7.87-9.54-.54-2.37-1.65-4.61-2.88-7.91-1.63,2.03-2.86,3.18-3.62,4.58-2.45,4.56-6.21,5.82-10.35,2.47-2.77-2.24-5.04-5.38-6.77-8.53-1.92-3.5-2.51-7.75-4.56-11.16-1.87-3.11-4.43-6.37-7.51-8.09-11.42-6.37-16.28-16.53-17.37-28.75-.74-8.33-4.96-14.78-11.22-18.87-9.74-6.36-14.19-15.05-15.7-25.94-1.37-9.9-7.02-17.38-14.45-23.32-8.35-6.68-12.82-15.31-13.63-25.49-.83-10.36-4.23-18.85-12.63-25.19-7.37-5.56-8.36-17.21-4.98-25.46,4.62-11.28,14.3-11.08,22.83-14.25,2.63-.98,5.59-1.75,7.64-3.51,5.01-4.3,9.71-9,14.29-13.77,9.3-9.67,20.79-12.14,33.54-10.36,7.03,.98,11.26-3.56,15.81-7.49,3.76-3.25,7.43-6.63,10.96-10.13,8.02-7.95,17.5-10.04,28.03-6.63,3.45,1.12,5.72,.02,8.29-1.6,11.07-7,21.86-7.44,33.51-.45,4.61,2.77,11.12,2.21,16.59,3.8,4.94,1.43,9.64,3.68,14.41,5.66,2.49,1.04,4.83,3.07,7.35,3.28,10.67,.89,18.7,5.67,23.42,15.24,1.48,3,2.34,6.63,2.33,9.96-.03,5.23,2.35,8.89,6.25,11.51,5.32,3.57,8.15,8.37,9.69,14.46,2.09,8.27,4.36,16.41,1.28,24.93-1.84,5.11-3.97,10.18-5.09,15.46-.82,3.85-.48,8.02-.19,12.01,.26,3.55,2.67,5.03,6.2,5.13,8.5,.23,15.26,4.22,20.71,10.4,1.78,2.02,3.33,4.66,3.91,7.26,1.94,8.69,6.64,15.07,14.32,19.51,9.79,5.66,16.3,13.77,18.79,25.05,.66,2.98,2.71,5.67,4.24,8.43,2.93,5.26,1.73,8.8-4.02,10.82-5.85,2.05-12.02,3.36-17.58,5.99-3.95,1.87-7.63,4.95-10.52,8.28-6.92,7.97-14.43,13.54-25.84,11.45-5.42-.99-10.79-.23-14.81,4.42-.8,.93-1.97,1.73-3.13,2.13-2.89,.98-7.13,3.28-8.53,2.16-2.6-2.08-3.98-6.07-5.08-9.52-.74-2.33-.14-5.1-.14-7.67-.67-.15-1.33-.3-2-.45ZM8.28,152.23c1.12,2.33,1.62,5.58,3.47,6.82,10.49,7.04,16.13,16.08,15.91,29.18-.12,6.92,3.12,13.46,9.28,17.64,7.71,5.24,14.51,11.4,18.08,20.1,2.07,5.04,3.21,10.6,3.88,16.04,.9,7.37,2.86,13.34,10.49,16.61,10.69,4.58,15.69,13.65,16.8,24.78,.99,9.88,3.12,17.7,14,22.25,5.93,2.48,10.1,9.83,12.45,16.85,.75,2.23,1.72,4.38,2.57,6.53,4.99-3.4,8.91-7.58,13.63-8.9,5.36-1.5,11.45-.73,17.19-.41,4.45,.25,10.19-2.44,12.01-6.66,1.87-4.36,5.06-7.14,9.44-8.78,1.04-.39,1.89-1.27,3.06-2.08-5.05-6.24-7.95-12.69-9.65-20.16-1.47-6.46-4.5-13.08-8.56-18.29-4.24-5.44-8.51-10.58-10-17.36-1.51-6.87-2.54-13.85-3.89-21.36,3.16,0,6.14-.46,8.92,.09,8.22,1.62,16.33,3.62,24.87,2.3,2.65-.41,5.56,.01,8.22,.62,13.35,3.04,22.68,15.27,24.33,28.44,.55,4.43,3.07,9.92,6.51,12.39,5.33,3.83,10.79,6.65,10.29,14.43,4.94-2.93,9.18-4.3,14.39-2.97,8.43,2.15,11.78,.2,17.14-6.99,2.38-3.19,4.43-7.99,9.75-7.04,10.23,1.82,16.91-5.29,25.58-8.91-6.43-10.63-12.18-20.81-18.67-30.51-2.43-3.63-6.1-7.48-10.02-8.82-7.36-2.52-11.9-6.98-15-13.75-3.42-7.47-8.84-12.83-16.8-15.78-14.79-5.48-12.52-4.61-10.96-18.39,.1-.92,.39-1.82,.63-2.72,2.7-9.85,5.05-19.74,4.15-30.11-.65-7.5-2.16-14.33-10.83-16.61-.84-.22-1.57-1.05-2.26-1.69-5.92-5.45-7.25-12.51-6.55-20.03,.53-5.78-.62-7.53-6.59-7.73-8.32-.29-16.87,.08-24.03-5.06-7.37-5.29-14.05-4.62-21.36,.3-4.65,3.13-10.12,4.5-16.07,2.93-4.2-1.1-8.73-2.18-12.94-1.72-6.2,.68-8.79,6.33-11.71,11.07-5.97,9.72-15.25,14.08-26.03,15.23-5.34,.57-10.87-.9-16.28-.69-6.6,.26-12,3.37-15.87,8.86-3.78,5.37-6.85,11.41-13.52,14.05-2.86,1.13-5.65,2.46-8.47,3.69-2.31,.34-4.93,.09-6.87,1.12-4.88,2.6-9.47,5.73-14.09,8.79-.38,.25-.03,1.59-.01,2.42Z"/>
  <path class="cls-4" d="M638,144.91c-11.12,10.09-21.2,19.24-31.54,28.62-6.26-7.19-13.19-13.76-15.43-23.72-.76-3.39-2.97-6.55-4.92-9.55-.7-1.07-3.25-2.26-3.79-1.86-1.2,.91-2.73,3.51-2.28,4.16,5.8,8.45-1.25,14.13-4.23,20.6-4.42,9.59-6.13,18.91,.06,28.63,3.99,6.27,1.88,13.33-1.55,18.71-5.98,9.4-5.54,19.06-4.13,29.17,.26,1.87,.34,3.76,.57,6.43-2.38-.4-4.5-.27-6.12-1.1-7-3.62-13.96-3.11-20.72,.18-7.98,3.89-15.18,1.74-20.67-3.8-7.07-7.13-15.44-6.86-24.11-6.83-.63,0-1.27-.04-1.9-.1-.13-.01-.24-.18-.66-.53,2.06-6.14-.53-11.4-3.35-16.99-3.05-6.02-.95-12.25,1.48-18.26,3.47-8.6,5.64-17.54,1.64-26.46-1.93-4.3-4.76-8.25-3.52-13.17,1.05-4.17,2.39-8.33,4.13-12.26,2.34-5.29,2.25-10.89,0-15.57-4.6-9.54-3.51-18.74-.82-28.27,1.47-5.22,2.85-10.49,3.76-15.83,1.56-9.17-.75-17.79-5.15-25.75-3.33-6.02-4.21-12.14-1.78-18.42,3.2-8.29,6.03-16.51,3.58-25.55-.19-.7,.06-1.52,.12-2.56,1.34,0,2.62-.39,3.45,.06,6.37,3.48,11.72,.63,17.18-2.38,6.31-3.47,12.4-4.23,19.04,.17,2.8,1.86,7.24,2.05,10.84,1.75,10.4-.85,20.64-.66,30.74,2.14,3.05,.84,5.04,2.57,5.98,5.84,2.51,8.72,7.97,14.76,16.51,18.37,8.06,3.41,14.62,8.9,19.48,16.35,3.15,4.83,4.37,4.76,8.86,1.15,6.31-5.07,11.03-11.3,14.34-18.65,.33-.72,.62-1.49,1.09-2.12,7.07-9.57,6.84-10.91,17.13-5.15,3.5,1.96,6.59-.1,9.18-2.75,1.71-1.76,3.59-4.75,5.4-4.76,4.48,0,9.66,.25,13.29,2.47,7.92,4.84,16.32,8.75,25.29,8.12,13.3-.93,23.68,5.37,34.26,11.27,4.04,2.25,3.3,7.75,2.2,11.61-1.21,4.21-4.36,7.83-6.01,11.97-2.04,5.1-5.28,10.7-4.65,15.66,1.2,9.48-.99,17.99-6.05,24.96-6.58,9.06-7.76,18.82-7.26,29.05,.35,7.09-2.75,12.72-5.68,18.44-4.84,9.44-8.34,19.6-8.04,29.86,.37,12.71-4.9,23.1-9.32,34.13-1.11,2.78-.99,6.32-.56,9.39,.51,3.59,1.28,6.68-.74,10.35-1.88,3.43-2.06,7.77-3.12,11.67-.56,2.05-1.16,4.15-2.16,6.01-2.97,5.56-10.08,6.23-14.17,1.29-3.42-4.14-7.52-4.76-12.64-4.06-5.34,.72-10.93,.95-16.22,.14-2.87-.44-5.71-3.14-7.88-5.46-3.41-3.65-6.85-6.37-12.23-5.68-3.87,.49-4.72-1.13-3.85-5.04,.91-4.08,5.2-7.83,2.09-12.43-5.58-8.27,1.9-14.46,3.44-21.52,1.33-6.07,2-11.9-.27-17.67-1.91-4.84-.87-8.93,1.02-13.56,1.91-4.68,2.66-9.9,3.4-14.95,.5-3.43,.32-7.01,.03-10.49-.14-1.73-1.21-3.38-2.02-5.47Z"/>
  <path class="cls-4" d="M767.72,259.13c0-5.36,.5-10.79-.15-16.07-.57-4.56-1.74-9.34-3.91-13.34-3.18-5.86-4.11-11.39-1.25-17.45,2.33-4.93,4.47-9.96,6.96-14.81,4-7.77,3.6-16.23,2.53-24.2-1.4-10.4,4.11-17.09,10.68-22.67,6.23-5.29,9.55-11.8,12.52-18.84,.65-1.53,1.08-3.35,.93-4.98-1.11-11.91,7.1-17.36,15.73-22.06,5.77-3.14,12.09-5.4,18.34-7.52,5.02-1.7,8.29-5.14,10.69-9.39,1.92-3.39,4.08-4.11,7.3-2.34,8.49,4.67,16.54,4.75,25.14-.52,4.07-2.49,9.3-1.17,13.93,1.02,3.71,1.76,7.84,2.63,11.57,4.36,2.48,1.15,5.09,2.72,6.75,4.81,3.87,4.85,8.81,6.36,14.69,6.7,2.23,.13,4.92,1.24,6.46,2.82,6.53,6.68,12.29,14.17,19.14,20.47,6.02,5.53,8.38,12.01,8.18,19.66-.2,7.29-1.43,14.57-1.27,21.84,.08,3.98,2.31,7.87,3.19,11.88,1.74,7.93,.64,15.44-3.97,22.29-2.71,4.02-5.66,7.91-8,12.14-1.55,2.81-3.21,6.16-3.07,9.18,.35,7.53-3.08,13.56-6.23,19.82-2.44,4.85-5.43,9.52-7.19,14.6-3.35,9.68-10.25,16.35-17.75,22.6-1.33,1.11-3.61,1.19-5.5,1.51-5.35,.92-9.88,3.25-14.02,6.82-3.95,3.39-8.39,6.2-12.64,9.25-1.52,1.09-3.21,1.99-4.62,3.21-3.94,3.4-8.4,4.33-13.21,2.65-5.11-1.79-9.96-1.21-15.08,.07-5.34,1.33-10.9,2.35-16.36,2.38-2.03,.01-4.27-2.98-6.07-4.91-3.27-3.5-5.67-8.31-9.59-10.57-3.69-2.12-8.88-1.62-13.4-2.35-1.22-.2-2.85-.28-3.52-1.06-3.91-4.63-8.76-6.87-14.73-8.12-10.16-2.12-13.28-7.21-13.2-18.88Zm89.63-38.21c1.25-.33,3.67-.34,5.22-1.51,5.37-4.04,10.59-8.33,15.54-12.87,1.58-1.45,2.83-3.93,3.03-6.05,.48-5.08,2.27-9.29,5.67-13.07,3.66-4.06,4.7-11.72,1.74-14.61-4.34-4.25-8.84-8.51-13.9-11.8-4.59-2.98-9.9-3.68-14.95,.13-4.54,3.41-9.38,6.42-14,9.73-3.93,2.81-5.71,10.42-4.25,14.94,.66,2.05,1.02,5.51-.12,6.59-5.19,4.91-4.67,9.95-2.31,15.92,2.26,5.72,11.49,12.89,18.33,12.6Z"/>
  <path class="cls-4" d="M443.1,18.03c-1.14,6.16,1.74,9.65,4.3,13.64,1.48,2.31,1.19,6.47,.37,9.42-2.82,10.12-3.69,20.17,2.91,28.87,4.56,6.01,3.4,10.86,1.13,17.18-1.47,4.08,.02,9.34,.62,14.02,.73,5.71,2.72,11.38,2.6,17.03-.08,3.74-2.7,7.54-4.56,11.11-2.33,4.47-1.32,8.82,.3,12.95,2.88,7.36,1.63,14.61-.68,21.54-1.36,4.07-5.76,7.2-6.86,11.28-1.62,5.95-2.3,12.43-1.91,18.59,.42,6.58,.03,9.51-5.85,12.11-10.67,4.71-15.85,13.3-17.36,24.26-.99,7.14-3.8,12.69-10.31,16-6,3.06-11.6,7.75-18.87,6.77-5.22-.7-10.87-1.42-15.31-3.92-8.24-4.65-15.67-2.71-23.4,.44-7.58,3.09-10.56,2.65-14.95-4.02-4.58-6.96-11.17-11.15-18-15.25-4.79-2.88-6.12-7.53-6.48-12.66-.66-9.39-2.8-18.23-9.81-25.11-2.33-2.28-4.74-4.63-7.52-6.27-8.92-5.26-10.18-13.45-8.34-22.32,3-14.39-1.83-25.79-12.43-35.07-5.98-5.24-8.67-10.99-7.05-19.11,1.46-7.3,3.54-15.23-.92-22.03-3.85-5.88-8.85-11.08-13.79-16.14-5.36-5.49-6.05-14.39-.42-18.69,2.03-1.56,5.4-2.76,7.76-2.26,10.57,2.23,19.52-.28,27.52-7.33,3.48-3.06,7.66-4.33,12.12-2.28,9.72,4.46,19.23,4.3,28.67-1.07-.98,7.91,.26,15.01,4.18,21.86,4.85,8.48,7.67,17.56,4.91,27.52-3.37,12.13-.14,22.78,6.57,33.09,2.38,3.66,2.74,8.65,3.93,13.06,1.53,5.66,1.66,12.25,4.77,16.81,4.31,6.32,11.62,9.5,19.74,8.9,6.91-.51,10.47-4.95,11.9-11.32,1.65-7.34,4.28-14.68,4.4-22.06,.09-5.93-1.86-12.5-4.77-17.75-6.17-11.15-9.27-21.93-5.76-34.91,2.84-10.49-.1-21.02-4.92-30.98-1.82-3.75-1.83-8.47-2.15-12.78-.07-.93,2.05-2.83,3.27-2.92,10.64-.8,20.53-3.33,30.01-8.71,3.33-1.89,8.82,.07,13.32,.17,3.4,.08,6.82,.17,10.21-.06,5.33-.36,10.64-.98,16.9-1.58Z"/>
  <path class="cls-4" d="M29.25,139.9c2.82-1.24,5.61-2.56,8.47-3.69,6.67-2.63,9.74-8.67,13.52-14.05,3.87-5.5,9.27-8.61,15.87-8.86,5.41-.21,10.94,1.26,16.28,.69,10.78-1.15,20.06-5.51,26.03-15.23,2.91-4.74,5.51-10.4,11.71-11.07,4.21-.46,8.74,.61,12.94,1.72,5.96,1.56,11.42,.2,16.07-2.93,7.31-4.93,13.99-5.59,21.36-.3,7.16,5.14,15.71,4.77,24.03,5.06,5.97,.21,7.12,1.96,6.59,7.73-.7,7.52,.63,14.58,6.55,20.03,.69,.64,1.41,1.46,2.26,1.69,8.67,2.29,10.19,9.11,10.83,16.61,.89,10.36-1.46,20.25-4.15,30.11-.25,.9-.53,1.8-.63,2.72-1.56,13.78-3.83,12.92,10.96,18.39,7.96,2.95,13.38,8.31,16.8,15.78,3.1,6.77,7.64,11.24,15,13.75,3.93,1.34,7.6,5.19,10.02,8.82,6.49,9.7,12.24,19.89,18.67,30.51-8.67,3.62-15.35,10.74-25.58,8.91-5.32-.95-7.37,3.85-9.75,7.04-5.36,7.19-8.71,9.14-17.14,6.99-5.21-1.33-9.45,.04-14.39,2.97,.5-7.78-4.96-10.6-10.29-14.43-3.44-2.47-5.96-7.96-6.51-12.39-1.65-13.17-10.98-25.4-24.33-28.44-2.66-.61-5.57-1.03-8.22-.62-8.54,1.32-16.64-.68-24.87-2.3-2.78-.55-5.76-.09-8.92-.09,1.34,7.51,2.38,14.49,3.89,21.36,1.49,6.78,5.77,11.92,10,17.36,4.06,5.21,7.09,11.84,8.56,18.29,1.7,7.46,4.61,13.92,9.65,20.16-1.16,.81-2.02,1.69-3.06,2.08-4.39,1.64-7.57,4.42-9.44,8.78-1.81,4.22-7.56,6.91-12.01,6.66-5.74-.32-11.84-1.09-17.19,.41-4.72,1.32-8.64,5.5-13.63,8.9-.85-2.15-1.82-4.3-2.57-6.53-2.35-7.02-6.52-14.37-12.45-16.85-10.88-4.55-13.01-12.37-14-22.25-1.11-11.12-6.11-20.2-16.8-24.78-7.63-3.27-9.58-9.24-10.49-16.61-.67-5.44-1.81-11-3.88-16.04-3.57-8.7-10.37-14.86-18.08-20.1-6.16-4.18-9.4-10.72-9.28-17.64,.23-13.1-5.41-22.14-15.91-29.18-1.85-1.24-2.35-4.5-3.47-6.82,1.05-.83,2.42-1.46,3.11-2.53,2.39-3.75,6.09-4.09,9.89-3.98,4.28,.13,6.6-2.14,7.97-5.82Zm121.84,22.55c-.28-1.4-.24-4.47-1.5-6.84-6.92-13.01-24.75-15.63-35.55-12.56-4.34,1.24-8.53,3.35-12.93,3.88-3.61,.43-5.72,1.52-4.64,5.13,1.52,5.06,3.02,10.52,7.92,13.41,5.24,3.09,6.35,7.67,6.35,13.07,0,1.08,.03,2.36,.57,3.21,3.79,5.97,7.63,11.9,11.75,17.64,.32,.45,3.77-.24,4.1-1.07,2.59-6.46,8.26-8.78,13.75-11.96,3.72-2.16,6.92-6.32,8.73-10.32,1.6-3.53,.96-8.07,1.44-13.6Z"/>
  <path class="cls-1" d="M29.25,139.9c-1.38,3.69-3.69,5.96-7.97,5.82-3.8-.12-7.49,.23-9.89,3.98-.68,1.07-2.05,1.7-3.11,2.53-.01-.83-.36-2.17,.01-2.42,4.61-3.06,9.21-6.19,14.09-8.79,1.94-1.03,4.56-.79,6.87-1.12Z"/>
  <path class="cls-3" d="M857.35,220.92c-6.83,.29-16.07-6.88-18.33-12.6-2.36-5.97-2.88-11.01,2.31-15.92,1.15-1.09,.79-4.55,.12-6.59-1.46-4.52,.32-12.13,4.25-14.94,4.62-3.31,9.46-6.31,14-9.73,5.06-3.81,10.37-3.11,14.95-.13,5.06,3.29,9.56,7.55,13.9,11.8,2.95,2.89,1.92,10.55-1.74,14.61-3.41,3.78-5.2,7.99-5.67,13.07-.2,2.12-1.45,4.61-3.03,6.05-4.95,4.55-10.17,8.83-15.54,12.87-1.55,1.17-3.98,1.18-5.22,1.51Zm3.88-13.55c4.82-1.58,8.27-5.41,10.55-11.54,1.07-2.9,2.31-5.83,4.03-8.36,2.77-4.06,2.2-7.53-.71-11.16-1.58,.7-3.03,1.26-4.4,1.96-5.96,3.08-9.91,9.52-9.55,14.42,.35,4.8,.08,9.64,.08,14.68Z"/>
  <path class="cls-2" d="M151.08,162.45c-.48,5.54,.16,10.08-1.44,13.6-1.82,4-5.01,8.16-8.73,10.32-5.49,3.18-11.16,5.5-13.75,11.96-.33,.83-3.78,1.52-4.1,1.07-4.11-5.74-7.96-11.68-11.75-17.64-.54-.85-.57-2.13-.57-3.21,0-5.4-1.11-9.98-6.35-13.07-4.9-2.89-6.4-8.34-7.92-13.41-1.08-3.61,1.03-4.69,4.64-5.13,4.4-.53,8.59-2.65,12.93-3.88,10.81-3.08,28.63-.45,35.55,12.56,1.26,2.37,1.21,5.44,1.5,6.84Zm-9.72,5.41c-2.46-4.16-4.14-8.4-7.04-11.48-2.69-2.86-6.01-.75-8.96,1.17-2.65,1.72-2.67,3.57-1.52,6.06,2.24,4.84,4.21,9.8,6.63,14.54,1.04,2.04,3.26,3.16,4.91,.64,2.17-3.31,3.83-6.94,5.98-10.92Z"/>
</svg>
