<?xml version="1.0" encoding="UTF-8"?>
<svg id="Livello_1" data-name="Livello 1" xmlns="http://www.w3.org/2000/svg" viewBox="0 0 938.99 334.39" height="125px" width="125px">
  <defs>
    <style>
      .cls-1 {
        fill: #f7e933;
      }

      .cls-2 {
        fill: #df3fe0;
      }

      .cls-3 {
        fill: #df3ee0;
      }

      .cls-4 {
        fill: #75fe8e;
      }
    </style>
  </defs>
  <path class="cls-3" d="M718.08,163.09c-2.51,4.7-5.86,9.89-8.16,15.52-2.81,6.9-5.52,13.9-4.37,21.81,1.39,9.53-.22,18.56-5.55,26.94-1.59,2.49-2.6,6.14-2.16,9,2.01,13.19-2.48,24.99-7.69,36.41-3.79,8.31-16.71,10.8-24.57,4.77-5.69-4.36-11.44-5-17.71-3.52-9.01,2.13-15.77-.59-21.98-7.34-2.23-2.42-6.89-2.84-10.56-3.66-5.11-1.15-10.33-1.82-15.96-2.77v-17.05c-3.28-.33-6.61-.83-9.96-.98-5.15-.24-7.55-3.69-5.38-8.46,2.37-5.21,3.26-10.56,1.28-15.92-2.65-7.16-.49-13.2,3.73-18.77,3.7-4.88,4.29-10.31,2.17-15.53-2.3-5.66-3.29-12.33-9.44-15.82-1.19,.84-2.44,1.94-3.87,2.7-6.02,3.2-3.98,9.41-5.4,14.3-1.42,4.89-.14,9.57,2.13,13.9,4.11,7.86,2.67,15.43-1.54,22.44-4.19,6.96-5.57,13.67-3.71,21.86,1.12,4.91-.47,10.69-1.8,15.82-.96,3.73-7.34,6.16-11.4,4.77-7.2-2.46-13.78-.53-20.66,1.53-7.58,2.28-14.98,1.3-21.46-3.87-2.85-2.27-5.84-4.36-8.81-6.46-5.69-4.01-12.56-1.48-18.54-3.21-6.14-1.78-12.06-4.67-17.63-7.86-1.36-.78-1.37-4.59-1.33-7,.06-3.69-.59-5.83-5.07-5.6-3.68,.19-6.07-4.22-6.22-8.15-.2-5.4-.61-10.99-2.2-16.11-2.22-7.14-1.58-13.62,1.67-20.07,3.15-6.25,1.66-12.63,.77-19.09-4.9,6.88-9.64,14.07-7.65,22.74,2.06,8.95-2.45,14.28-8.17,19.62-5.2,4.86-9.29,10.13-10.69,17.69-.77,4.17-4.05,8.77-7.54,11.36-6.62,4.9-14.26,8.4-21.37,12.67-6.41,3.85-13.34,3.56-20.26,2.65-4.67-.61-9.2-2.63-13.86-2.89-3.55-.2-7.3,1.06-10.79,2.21-8.44,2.77-18.35,.91-24.66-5.75-1.35-1.43-4.18-2.02-6.34-2.02-6.35,0-12.54-1.81-15.62-6.94-4.37-7.27-12.27-9.6-17.52-15.12-3.92-4.12-7.35-9.67-8.61-15.13-2.3-9.96-6.15-17.83-15.23-23.5-7.39-4.62-9.52-12.99-10.34-21.35-.67-6.81-.74-13.69-1.71-20.44-.92-6.36-4.34-11.7-9.47-15.59-4.51-3.42-6.56-7.92-6.87-13.28-.45-7.8-.02-15.7-1.14-23.38-.69-4.75-3.06-9.47-5.57-13.68-3.46-5.8-8.34-10.79-11.53-16.7-2.69-4.98-.39-10.38,2.75-14.57,5.47-7.29,12.88-10.55,22.27-9.13,5.85,.89,11.37,.12,16.27-4.14,6.78-5.9,14.6-8.27,23.11-3.63,6.43,3.51,12.26,1.73,18.12-1.22,1.06-.53,2.04-1.24,3.09-1.8,6.45-3.42,9.74-1.54,10.25,5.97,.16,2.38,.03,4.78,.03,8.61,6.76-2.97,12.79-5.62,18.78-8.25,0-1.86-.55-4.76,.16-7.33,.68-2.47,2.29-4.95,4.16-6.74,1.32-1.26,3.72-1.76,5.69-1.92,4.12-.33,8.28,0,12.4-.31,5.3-.39,9.75-2.64,13.82-6.22,4.99-4.4,11.19-2.93,16.65-1.32,8.06,2.37,15.64,1.71,23.42-.85,7.15-2.36,13.49,2.41,14.1,10.81,2.66-.5,5.34-.74,7.85-1.53,8.38-2.64,14.47,1.98,14.12,10.66-.05,1.27,1.11,2.6,1.77,3.87,1.51,2.9,3.06,5.77,4.36,8.2,1.89-5.9,4.36-12.87,6.28-19.97,.7-2.6,.32-5.57,.05-8.33-.72-7.3,5.16-9.71,11.88-7.04,6.91,2.74,13.31,1.52,19.07-1.81,7.4-4.28,14.24-3.32,20.94,.51,4.31,2.46,8.37,2.65,13,1.71,7.95-1.6,16.05-2.51,23.51,1.69,2.72,1.53,4.66,4.38,7.13,6.42,2.28,1.89,5.04,5.24,7.16,4.94,8.93-1.26,12.57,4.31,16.45,10.48,2.14,3.42,4.68,6.88,7.83,9.3,3.66,2.82,5.27,1.81,7.35-2.41,1.96-3.99,4.05-7.94,6.38-11.72,3.4-5.5,8.08-8.87,14.78-6.17,5.38,2.17,10.04,.31,14.72-1.68,10.16-4.31,19.48-4.27,28.82,2.81,5.61,4.25,12.4,6.76,20.02,6.09,11.62-1.02,21.82,3.59,31.2,9.7,2.33,1.52,3.81,5.36,4.32,8.37,.62,3.66,2.84,4.86,5.58,6.14,4.37,2.04,9.42,3.37,12.88,6.46,4.87,4.34,6.15,11.03,4.92,17.23-1.02,5.12-3.57,10.07-6.12,14.72-3.12,5.67-4.92,11.37-3.31,17.76,1.52,6.01-.13,11.42-1.73,17.23-1.97,7.17-6.93,12.63-9.19,19.38-1.03,3.07-.18,6.78-.18,9.4,6.16-7.29,13.05-14.53,18.77-22.61,2.76-3.9,4.16-9.28,4.67-14.15,1.47-14,9.38-22.41,21.81-27.53,4.64-1.91,9.3-3.82,13.79-6.05,1.88-.93,3.78-2.43,4.9-4.16,5.28-8.15,13.64-9.66,21.51-7.49,8.62,2.38,16.47,.28,24.71,.02,7-.23,14.2,1.52,21.08,3.28,3.47,.89,6.41,3.79,9.66,5.65,.84,.48,1.94,.58,2.95,.71,9.16,1.22,17.02,4.68,23.35,11.8,1.79,2.01,5.65,3.49,8.32,3.18,7.13-.83,11.33,2.97,15.27,7.73,3.96,4.77,7.32,10.2,11.91,14.24,3.88,3.41,6.24,7.05,7.65,11.86,1.97,6.72,5.22,13.15,6.47,19.97,1.09,5.9-.02,12.17,.21,18.27,.1,2.59,1.27,5.11,1.73,7.71,.65,3.7,1.88,7.54,1.45,11.15-1.07,9.05-4.49,17.27-9.35,25.17-4.51,7.34-10.8,14.2-11.44,23.29-.5,7.07-4.36,11.79-8.56,16.78-2.38,2.83-3.69,6.53-5.57,9.79-1.05,1.83-2.36,3.52-3.42,5.34-1.48,2.54-2.72,5.22-4.27,7.71-4.1,6.55-9.71,10.92-17.66,11.75-.45,.05-1.02-.14-1.34,.07-7.04,4.81-16.2,6.21-21.46,13.95-3.78,5.56-9.63,7.69-16.23,7.53-5.08-.12-10.16-.58-15.24-.81-1.3-.06-2.82-.22-3.9,.33-6.78,3.46-14.25,2.17-21.34,3.4-7.93,1.37-14.02-2.39-20.25-6.08-2.3-1.36-4.51-2.05-7.27-2.62-10.07-2.08-19.66-6.2-23.53-17.03-2.5-6.99-8.15-9.97-14.34-11.14-13.71-2.61-21.78-13.62-19.27-26.98,1.76-9.35,1.38-17.97-3.28-26.45-5.44-9.89-3.91-19,2.3-28.55,5.52-8.47,6.9-18.51,4.59-27.09Zm-115.95-26.33c.76,1.98,1.77,3.53,1.9,5.16,.27,3.28,.44,6.66-.03,9.9-.7,4.77-1.4,9.7-3.21,14.11-1.78,4.36-2.77,8.23-.96,12.79,2.15,5.44,1.51,10.95,.26,16.68-1.45,6.66-8.52,12.51-3.25,20.31,2.93,4.35-1.11,7.89-1.97,11.73-.82,3.68-.02,5.22,3.63,4.75,5.08-.65,8.32,1.92,11.54,5.36,2.05,2.19,4.74,4.74,7.44,5.15,4.99,.77,10.27,.55,15.31-.13,4.84-.65,8.7-.07,11.93,3.84,3.86,4.67,10.57,4.03,13.38-1.22,.94-1.76,1.51-3.74,2.03-5.67,1-3.68,1.17-7.78,2.95-11.01,1.91-3.47,1.18-6.38,.7-9.77-.41-2.89-.53-6.24,.52-8.86,4.17-10.41,9.15-20.21,8.8-32.21-.28-9.69,3.01-19.27,7.59-28.18,2.77-5.4,5.69-10.71,5.36-17.4-.48-9.66,.64-18.86,6.85-27.42,4.78-6.58,6.84-14.61,5.71-23.56-.59-4.68,2.47-9.97,4.39-14.78,1.56-3.9,4.53-7.32,5.68-11.3,1.05-3.64,1.74-8.83-2.07-10.96-9.99-5.57-19.78-11.51-32.33-10.63-8.47,.59-16.4-3.1-23.87-7.67-3.43-2.09-8.31-2.33-12.54-2.33-1.7,0-3.48,2.83-5.09,4.49-2.44,2.51-5.36,4.45-8.66,2.6-9.71-5.43-9.49-4.17-16.17,4.86-.44,.6-.72,1.32-1.03,2-3.12,6.93-7.58,12.81-13.53,17.6-4.24,3.41-5.39,3.47-8.36-1.09-4.59-7.03-10.78-12.22-18.39-15.43-8.06-3.41-13.21-9.11-15.58-17.34-.89-3.09-2.77-4.72-5.65-5.51-9.53-2.64-19.2-2.82-29.01-2.02-3.39,.28-7.58,.1-10.23-1.65-6.27-4.15-12.01-3.43-17.97-.16-5.16,2.84-10.2,5.53-16.22,2.25-.78-.42-1.99-.06-3.25-.06-.06,.98-.29,1.76-.12,2.42,2.31,8.53-.36,16.29-3.38,24.11-2.29,5.93-1.46,11.71,1.68,17.39,4.15,7.52,6.34,15.65,4.86,24.31-.86,5.04-2.16,10.02-3.55,14.94-2.54,9-3.57,17.68,.77,26.68,2.13,4.41,2.22,9.69,0,14.69-1.64,3.71-2.91,7.63-3.9,11.57-1.16,4.64,1.51,8.36,3.33,12.43,3.77,8.42,1.73,16.86-1.55,24.97-2.29,5.67-4.27,11.55-1.39,17.23,2.67,5.27,5.11,10.24,3.17,16.03,.4,.33,.51,.49,.63,.5,.6,.06,1.2,.1,1.8,.1,8.19-.03,16.08-.28,22.75,6.44,5.18,5.23,11.98,7.25,19.51,3.59,6.37-3.1,12.94-3.58,19.55-.17,1.53,.79,3.53,.67,5.77,1.04-.22-2.53-.29-4.31-.54-6.07-1.33-9.54-1.75-18.66,3.9-27.53,3.23-5.08,5.22-11.74,1.46-17.66-5.83-9.18-4.22-17.97-.05-27.02,2.81-6.11,9.47-11.46,4-19.44-.42-.62,1.02-3.07,2.15-3.93,.51-.38,2.92,.74,3.58,1.75,1.84,2.83,3.93,5.81,4.65,9.01,2.11,9.4,8.66,15.6,14.56,22.39,9.76-8.86,19.27-17.49,29.76-27.01Zm122.43,107.81c-.07,11.02,2.87,15.82,12.46,17.82,5.64,1.18,10.22,3.29,13.91,7.66,.63,.74,2.17,.82,3.32,1,4.27,.69,9.17,.21,12.65,2.21,3.7,2.13,5.96,6.67,9.05,9.98,1.7,1.83,3.82,4.65,5.73,4.64,5.16-.03,10.4-.99,15.44-2.25,4.83-1.2,9.41-1.75,14.23-.07,4.54,1.59,8.76,.71,12.47-2.5,1.33-1.15,2.92-2,4.36-3.03,4-2.87,8.2-5.53,11.93-8.73,3.91-3.36,8.18-5.57,13.24-6.43,1.78-.3,3.93-.38,5.19-1.43,7.07-5.89,13.59-12.19,16.75-21.33,1.66-4.8,4.48-9.2,6.78-13.78,2.97-5.91,6.21-11.6,5.88-18.71-.13-2.85,1.43-6.01,2.9-8.66,2.21-3.99,4.99-7.66,7.55-11.46,4.35-6.46,5.39-13.56,3.75-21.04-.83-3.79-2.93-7.46-3.01-11.21-.15-6.86,1.02-13.73,1.2-20.61,.2-7.22-2.04-13.34-7.72-18.56-6.47-5.95-11.9-13.01-18.07-19.32-1.46-1.49-3.99-2.54-6.1-2.66-5.55-.31-10.21-1.74-13.86-6.32-1.57-1.97-4.03-3.45-6.37-4.54-3.52-1.63-7.42-2.45-10.92-4.11-4.37-2.06-9.3-3.31-13.15-.96-8.11,4.97-15.71,4.89-23.73,.49-3.04-1.67-5.08-.99-6.89,2.21-2.27,4.01-5.35,7.25-10.09,8.86-5.9,2-11.86,4.13-17.31,7.1-8.14,4.43-15.89,9.58-14.85,20.82,.14,1.53-.27,3.25-.88,4.7-2.81,6.65-5.94,12.8-11.82,17.79-6.21,5.26-11.4,11.58-10.08,21.39,1.01,7.52,1.38,15.51-2.39,22.84-2.35,4.58-4.37,9.32-6.57,13.98-2.7,5.72-1.82,10.94,1.18,16.47,2.05,3.77,3.16,8.28,3.69,12.59,.62,4.99,.14,10.11,.14,15.17ZM418.19,17.02c-5.91,.57-10.93,1.16-15.95,1.49-3.2,.22-6.43,.13-9.64,.06-4.25-.09-9.43-1.94-12.57-.16-8.94,5.07-18.28,7.46-28.32,8.22-1.15,.09-3.15,1.88-3.08,2.75,.3,4.07,.31,8.52,2.03,12.07,4.56,9.4,7.33,19.34,4.65,29.24-3.32,12.25-.39,22.42,5.43,32.95,2.74,4.96,4.59,11.16,4.5,16.76-.11,6.96-2.59,13.9-4.15,20.82-1.35,6.02-4.71,10.2-11.24,10.68-7.67,.57-14.57-2.44-18.63-8.4-2.94-4.31-3.06-10.52-4.5-15.87-1.12-4.16-1.46-8.87-3.71-12.32-6.33-9.73-9.38-19.78-6.2-31.23,2.61-9.4-.06-17.97-4.63-25.97-3.7-6.47-4.87-13.16-3.95-20.63-8.91,5.07-17.89,5.22-27.06,1.01-4.21-1.93-8.16-.74-11.44,2.15-7.55,6.65-16.01,9.02-25.98,6.92-2.23-.47-5.41,.67-7.33,2.13-5.31,4.06-4.67,12.46,.39,17.64,4.67,4.78,9.38,9.69,13.01,15.24,4.2,6.41,2.25,13.9,.87,20.79-1.54,7.66,1.01,13.1,6.65,18.04,10,8.76,14.56,19.52,11.73,33.1-1.74,8.36-.55,16.1,7.87,21.06,2.62,1.54,4.91,3.76,7.1,5.92,6.61,6.49,8.64,14.84,9.25,23.7,.34,4.85,1.59,9.23,6.11,11.95,6.44,3.87,12.67,7.82,16.99,14.39,4.14,6.3,6.96,6.71,14.11,3.79,7.3-2.97,14.31-4.8,22.08-.41,4.19,2.36,9.53,3.04,14.45,3.7,6.86,.92,12.14-3.5,17.81-6.39,6.15-3.13,8.8-8.37,9.73-15.1,1.43-10.34,6.32-18.45,16.39-22.9,5.54-2.45,5.91-5.22,5.52-11.43-.37-5.81,.28-11.92,1.81-17.54,1.04-3.85,5.19-6.8,6.48-10.64,2.19-6.54,3.36-13.38,.65-20.33-1.53-3.9-2.48-8.01-.28-12.22,1.76-3.37,4.23-6.95,4.31-10.49,.11-5.33-1.76-10.69-2.45-16.07-.56-4.42-1.97-9.38-.58-13.23,2.15-5.96,3.24-10.54-1.06-16.21-6.23-8.21-5.41-17.7-2.75-27.25,.78-2.79,1.05-6.71-.35-8.89-2.41-3.76-5.13-7.06-4.06-12.88Zm35.89,33.66c-1.6,6.64-2.49,13.64,1,20.06,3.22,5.92,4.67,11.9,4.21,18.6,1-2.66,1.34-5.4,2.06-8.04,1.49-5.51,.97-10.6-1.62-15.8-2.33-4.69-3.79-9.81-5.66-14.82Zm-107.64,17.28c1.33-9.32-2.61-17.65-5.67-26.18-.26,9.21-3.35,18.99,5.67,26.18Zm112.75,57.67c-1.03,2.68-2.49,5.36-3.01,8.22-.47,2.59-2.92,5.66,.68,8.65,2.57-5.81,5.09-11,2.33-16.87Zm-104.29-12.21c-1.81-3.92-3.61-7.83-5.42-11.75-.86,5.09-.22,9.51,5.42,11.75Z"/>
  <path class="cls-3" d="M216.42,277.18c-2.62,1.91-5.17,3.93-7.87,5.71-6.76,4.45-13.03,1.41-12.6-6.75,.3-5.7-2.15-10.02-5.63-12.87-6.61-5.4-8.87-12.65-11.22-20.08-2.86-9.07-3.06-9.29-13.59-9.84,.72,6.41,4.09,11.56,7.79,16.41,7.07,9.27,9.54,20.45,13.67,30.98,1.75,4.44,5.53,8.06,8.28,12.14,.93,1.38,2.05,3,2.05,4.51,0,.86-1.98,1.97-3.25,2.54-2.56,1.13-5.48,1.61-7.82,3.04-1.99,1.22-3.89,3.16-4.95,5.22-4.1,7.99-9.2,11.07-18.75,9.85-9.71-1.24-23.4,4.97-26.53,14.2-.75,2.22-5.49,2.87-8.23,1.24-3.53-2.1-6.45-4.69-7.43-9-.51-2.23-1.56-4.35-2.71-7.46-1.53,1.91-2.7,3-3.41,4.33-2.31,4.3-5.86,5.49-9.77,2.33-2.61-2.11-4.75-5.07-6.39-8.05-1.81-3.3-2.37-7.32-4.3-10.53-1.76-2.94-4.18-6.01-7.09-7.63-10.78-6.01-15.37-15.6-16.39-27.13-.7-7.86-4.68-13.95-10.59-17.81-9.2-6-13.39-14.21-14.81-24.48-1.29-9.35-6.63-16.4-13.64-22.01-7.88-6.3-12.1-14.45-12.87-24.06-.79-9.78-3.99-17.79-11.92-23.78-6.95-5.25-7.89-16.24-4.7-24.02,4.36-10.64,13.49-10.45,21.54-13.45,2.49-.92,5.28-1.66,7.21-3.31,4.73-4.06,9.16-8.5,13.49-12.99,8.78-9.13,19.62-11.46,31.65-9.78,6.63,.93,10.62-3.36,14.92-7.07,3.55-3.07,7.01-6.26,10.34-9.56,7.57-7.5,16.52-9.48,26.45-6.26,3.25,1.05,5.4,.02,7.82-1.51,10.45-6.61,20.63-7.02,31.62-.43,4.35,2.61,10.5,2.09,15.65,3.58,4.66,1.35,9.1,3.47,13.6,5.34,2.35,.98,4.56,2.9,6.94,3.1,10.07,.84,17.64,5.35,22.11,14.39,1.4,2.83,2.21,6.26,2.2,9.4-.02,4.93,2.22,8.39,5.9,10.87,5.02,3.37,7.69,7.9,9.15,13.65,1.97,7.81,4.12,15.49,1.21,23.53-1.74,4.82-3.74,9.61-4.81,14.59-.78,3.63-.45,7.56-.18,11.33,.24,3.35,2.52,4.75,5.85,4.84,8.02,.22,14.4,3.99,19.54,9.82,1.68,1.91,3.14,4.4,3.69,6.85,1.83,8.2,6.27,14.22,13.51,18.41,9.24,5.34,15.38,12.99,17.73,23.64,.62,2.81,2.55,5.35,4,7.95,2.77,4.96,1.63,8.3-3.79,10.21-5.52,1.94-11.34,3.17-16.59,5.66-3.73,1.77-7.2,4.67-9.93,7.81-6.53,7.52-13.62,12.78-24.39,10.81-5.11-.94-10.18-.22-13.97,4.17-.76,.88-1.86,1.64-2.95,2.01-2.72,.92-6.73,3.09-8.05,2.04-2.46-1.96-3.76-5.73-4.79-8.98-.7-2.2-.13-4.81-.13-7.24-.63-.14-1.26-.28-1.89-.42ZM7.81,143.67c1.06,2.19,1.53,5.27,3.28,6.44,9.9,6.64,15.23,15.17,15.01,27.54-.11,6.53,2.95,12.7,8.76,16.65,7.28,4.94,13.69,10.76,17.06,18.97,1.95,4.76,3.03,10.01,3.66,15.14,.85,6.95,2.7,12.59,9.9,15.68,10.09,4.32,14.81,12.89,15.86,23.38,.93,9.33,2.94,16.71,13.21,21,5.6,2.34,9.53,9.28,11.75,15.9,.7,2.1,1.62,4.13,2.43,6.16,4.71-3.21,8.41-7.16,12.87-8.4,5.06-1.42,10.81-.69,16.23-.39,4.2,.24,9.62-2.3,11.33-6.28,1.77-4.11,4.77-6.74,8.91-8.28,.98-.37,1.79-1.2,2.89-1.96-4.76-5.89-7.51-11.98-9.11-19.03-1.39-6.1-4.24-12.35-8.07-17.27-4-5.14-8.04-9.98-9.44-16.39-1.42-6.48-2.4-13.07-3.67-20.16,2.98,0,5.8-.44,8.42,.08,7.76,1.53,15.41,3.42,23.47,2.17,2.5-.39,5.25,.01,7.76,.58,12.6,2.87,21.41,14.41,22.96,26.84,.52,4.18,2.9,9.36,6.15,11.69,5.03,3.61,10.19,6.28,9.71,13.62,4.66-2.76,8.66-4.06,13.58-2.81,7.95,2.03,11.11,.19,16.18-6.6,2.24-3.01,4.18-7.54,9.2-6.64,9.65,1.72,15.96-4.99,24.14-8.41-6.07-10.03-11.5-19.64-17.62-28.8-2.29-3.42-5.75-7.06-9.46-8.33-6.95-2.37-11.24-6.59-14.16-12.98-3.23-7.05-8.34-12.11-15.85-14.89-13.96-5.17-11.82-4.35-10.34-17.36,.1-.87,.37-1.72,.6-2.57,2.55-9.3,4.76-18.63,3.92-28.41-.61-7.08-2.04-13.52-10.22-15.68-.8-.21-1.48-.99-2.13-1.59-5.59-5.14-6.84-11.8-6.18-18.9,.5-5.45-.58-7.1-6.22-7.3-7.86-.27-15.92,.07-22.68-4.77-6.95-4.99-13.26-4.36-20.16,.29-4.39,2.96-9.55,4.24-15.17,2.77-3.96-1.04-8.24-2.05-12.21-1.62-5.85,.64-8.3,5.97-11.05,10.45-5.64,9.17-14.4,13.29-24.57,14.37-5.04,.54-10.26-.85-15.36-.65-6.23,.24-11.33,3.18-14.98,8.37-3.57,5.07-6.47,10.77-12.76,13.26-2.7,1.07-5.33,2.32-7.99,3.49-2.18,.32-4.65,.08-6.48,1.06-4.6,2.45-8.94,5.4-13.3,8.29-.35,.23-.02,1.5-.01,2.28Z"/>
  <path class="cls-4" d="M602.13,136.76c-10.49,9.52-20,18.16-29.76,27.01-5.9-6.78-12.45-12.99-14.56-22.39-.72-3.2-2.81-6.18-4.65-9.01-.66-1.01-3.07-2.14-3.58-1.75-1.14,.86-2.57,3.31-2.15,3.93,5.47,7.98-1.18,13.33-4,19.44-4.17,9.05-5.78,17.85,.05,27.02,3.76,5.92,1.77,12.59-1.46,17.66-5.65,8.87-5.23,17.99-3.9,27.53,.24,1.76,.32,3.54,.54,6.07-2.24-.37-4.24-.25-5.77-1.04-6.61-3.42-13.18-2.94-19.55,.17-7.53,3.67-14.33,1.64-19.51-3.59-6.67-6.73-14.57-6.47-22.75-6.44-.6,0-1.2-.04-1.8-.1-.12-.01-.22-.17-.63-.5,1.94-5.79-.5-10.76-3.17-16.03-2.88-5.68-.9-11.57,1.39-17.23,3.28-8.12,5.32-16.55,1.55-24.97-1.82-4.06-4.49-7.78-3.33-12.43,.99-3.94,2.26-7.86,3.9-11.57,2.21-5,2.12-10.28,0-14.69-4.34-9-3.32-17.68-.77-26.68,1.39-4.92,2.69-9.9,3.55-14.94,1.48-8.65-.71-16.79-4.86-24.31-3.14-5.68-3.97-11.45-1.68-17.39,3.02-7.82,5.69-15.58,3.38-24.11-.18-.66,.06-1.43,.12-2.42,1.26,0,2.48-.37,3.25,.06,6.01,3.28,11.06,.59,16.22-2.25,5.96-3.28,11.7-3.99,17.97,.16,2.64,1.75,6.84,1.93,10.23,1.65,9.81-.8,19.48-.62,29.01,2.02,2.88,.8,4.76,2.43,5.65,5.51,2.37,8.23,7.52,13.93,15.58,17.34,7.6,3.21,13.8,8.4,18.39,15.43,2.98,4.56,4.12,4.5,8.36,1.09,5.96-4.79,10.41-10.67,13.53-17.6,.31-.68,.59-1.4,1.03-2,6.67-9.03,6.46-10.3,16.17-4.86,3.3,1.85,6.22-.09,8.66-2.6,1.62-1.66,3.39-4.49,5.09-4.49,4.23,0,9.11,.24,12.54,2.33,7.47,4.57,15.4,8.26,23.87,7.67,12.55-.88,22.34,5.07,32.33,10.63,3.81,2.13,3.12,7.32,2.07,10.96-1.14,3.98-4.12,7.39-5.68,11.3-1.92,4.81-4.98,10.1-4.39,14.78,1.13,8.95-.93,16.98-5.71,23.56-6.21,8.55-7.33,17.76-6.85,27.42,.33,6.69-2.59,12-5.36,17.4-4.57,8.91-7.87,18.5-7.59,28.18,.35,12-4.63,21.8-8.8,32.21-1.05,2.62-.93,5.97-.52,8.86,.48,3.39,1.21,6.3-.7,9.77-1.78,3.23-1.95,7.33-2.95,11.01-.53,1.94-1.1,3.92-2.03,5.67-2.8,5.25-9.52,5.88-13.38,1.22-3.23-3.9-7.09-4.49-11.93-3.84-5.04,.68-10.32,.89-15.31,.13-2.7-.42-5.39-2.96-7.44-5.15-3.22-3.44-6.47-6.01-11.54-5.36-3.65,.47-4.46-1.07-3.63-4.75,.86-3.85,4.91-7.39,1.97-11.73-5.27-7.81,1.8-13.65,3.25-20.31,1.25-5.73,1.89-11.23-.26-16.68-1.8-4.57-.82-8.43,.96-12.79,1.8-4.41,2.51-9.34,3.21-14.11,.47-3.24,.3-6.62,.03-9.9-.13-1.63-1.14-3.19-1.9-5.16Z"/>
  <path class="cls-4" d="M724.56,244.57c0-5.06,.47-10.18-.14-15.17-.53-4.3-1.65-8.81-3.69-12.59-3-5.53-3.87-10.75-1.18-16.47,2.19-4.66,4.21-9.4,6.57-13.98,3.77-7.33,3.4-15.32,2.39-22.84-1.32-9.81,3.88-16.13,10.08-21.39,5.88-4.99,9.01-11.13,11.82-17.79,.61-1.44,1.02-3.16,.88-4.7-1.05-11.24,6.7-16.39,14.85-20.82,5.45-2.97,11.41-5.1,17.31-7.1,4.73-1.61,7.82-4.85,10.09-8.86,1.81-3.2,3.85-3.88,6.89-2.21,8.01,4.41,15.61,4.48,23.73-.49,3.84-2.35,8.78-1.1,13.15,.96,3.5,1.66,7.4,2.48,10.92,4.11,2.34,1.09,4.8,2.57,6.37,4.54,3.65,4.57,8.31,6.01,13.86,6.32,2.11,.12,4.64,1.17,6.1,2.66,6.16,6.31,11.6,13.37,18.07,19.32,5.68,5.22,7.91,11.33,7.72,18.56-.19,6.88-1.35,13.75-1.2,20.61,.08,3.75,2.18,7.42,3.01,11.21,1.64,7.48,.6,14.57-3.75,21.04-2.55,3.8-5.34,7.47-7.55,11.46-1.46,2.65-3.03,5.81-2.9,8.66,.33,7.11-2.91,12.8-5.88,18.71-2.3,4.58-5.12,8.98-6.78,13.78-3.16,9.13-9.68,15.43-16.75,21.33-1.26,1.05-3.41,1.12-5.19,1.43-5.05,.87-9.32,3.07-13.24,6.43-3.72,3.2-7.92,5.85-11.93,8.73-1.44,1.03-3.03,1.88-4.36,3.03-3.71,3.21-7.93,4.09-12.47,2.5-4.82-1.69-9.4-1.14-14.23,.07-5.04,1.26-10.28,2.22-15.44,2.25-1.91,.01-4.03-2.81-5.73-4.64-3.09-3.31-5.35-7.85-9.05-9.98-3.48-2-8.38-1.53-12.65-2.21-1.15-.19-2.69-.26-3.32-1-3.69-4.37-8.27-6.49-13.91-7.66-9.59-2-12.53-6.8-12.46-17.82Zm84.59-36.07c1.18-.31,3.46-.32,4.93-1.42,5.07-3.81,9.99-7.86,14.66-12.15,1.49-1.37,2.67-3.71,2.86-5.71,.45-4.79,2.14-8.77,5.36-12.34,3.45-3.83,4.43-11.06,1.65-13.79-4.09-4.01-8.34-8.03-13.11-11.13-4.33-2.81-9.34-3.47-14.11,.12-4.28,3.22-8.85,6.06-13.21,9.18-3.71,2.65-5.39,9.83-4.01,14.1,.63,1.93,.97,5.2-.12,6.22-4.9,4.64-4.41,9.39-2.18,15.03,2.13,5.4,10.85,12.16,17.3,11.89Z"/>
  <path class="cls-4" d="M418.19,17.02c-1.07,5.82,1.64,9.11,4.06,12.88,1.4,2.18,1.13,6.1,.35,8.89-2.66,9.55-3.48,19.03,2.75,27.25,4.3,5.67,3.21,10.25,1.06,16.21-1.39,3.85,.02,8.82,.58,13.23,.69,5.39,2.56,10.74,2.45,16.07-.08,3.53-2.55,7.11-4.31,10.49-2.2,4.21-1.24,8.32,.28,12.22,2.72,6.95,1.54,13.79-.65,20.33-1.29,3.84-5.43,6.8-6.48,10.64-1.53,5.62-2.17,11.73-1.81,17.54,.39,6.21,.02,8.98-5.52,11.43-10.07,4.45-14.96,12.55-16.39,22.9-.93,6.74-3.59,11.97-9.73,15.1-5.67,2.89-10.95,7.31-17.81,6.39-4.92-.66-10.26-1.34-14.45-3.7-7.78-4.38-14.79-2.56-22.08,.41-7.15,2.91-9.97,2.51-14.11-3.79-4.32-6.57-10.54-10.52-16.99-14.39-4.52-2.71-5.77-7.1-6.11-11.95-.62-8.86-2.65-17.21-9.25-23.7-2.19-2.16-4.48-4.37-7.1-5.92-8.42-4.96-9.61-12.7-7.87-21.06,2.83-13.58-1.73-24.34-11.73-33.1-5.64-4.94-8.19-10.38-6.65-18.04,1.38-6.89,3.34-14.38-.87-20.79-3.63-5.55-8.35-10.46-13.01-15.24-5.06-5.18-5.71-13.58-.39-17.64,1.92-1.47,5.1-2.6,7.33-2.13,9.97,2.1,18.43-.26,25.98-6.92,3.28-2.89,7.23-4.08,11.44-2.15,9.17,4.21,18.15,4.06,27.06-1.01-.93,7.47,.25,14.17,3.95,20.63,4.58,8,7.24,16.58,4.63,25.97-3.18,11.45-.13,21.5,6.2,31.23,2.25,3.45,2.59,8.16,3.71,12.32,1.45,5.35,1.56,11.56,4.5,15.87,4.07,5.96,10.97,8.97,18.63,8.4,6.52-.48,9.88-4.67,11.24-10.68,1.56-6.92,4.04-13.86,4.15-20.82,.09-5.6-1.76-11.79-4.5-16.76-5.82-10.52-8.75-20.69-5.43-32.95,2.68-9.9-.09-19.84-4.65-29.24-1.72-3.54-1.73-7.99-2.03-12.07-.06-.88,1.94-2.67,3.08-2.75,10.04-.76,19.38-3.14,28.32-8.22,3.14-1.78,8.32,.06,12.57,.16,3.21,.07,6.44,.16,9.64-.06,5.03-.34,10.04-.93,15.95-1.49Z"/>
  <path class="cls-4" d="M27.6,132.03c2.66-1.17,5.29-2.42,7.99-3.49,6.29-2.48,9.19-8.19,12.76-13.26,3.65-5.19,8.75-8.12,14.98-8.37,5.11-.2,10.33,1.19,15.36,.65,10.17-1.09,18.93-5.2,24.57-14.37,2.75-4.48,5.2-9.81,11.05-10.45,3.98-.43,8.25,.58,12.21,1.62,5.62,1.47,10.78,.19,15.17-2.77,6.9-4.65,13.2-5.27,20.16-.29,6.76,4.85,14.82,4.5,22.68,4.77,5.64,.19,6.72,1.85,6.22,7.3-.66,7.1,.59,13.76,6.18,18.9,.65,.6,1.33,1.38,2.13,1.59,8.18,2.16,9.61,8.6,10.22,15.68,.84,9.78-1.37,19.11-3.92,28.41-.23,.85-.5,1.7-.6,2.57-1.47,13.01-3.61,12.19,10.34,17.36,7.51,2.78,12.63,7.84,15.85,14.89,2.92,6.39,7.21,10.61,14.16,12.98,3.71,1.27,7.17,4.9,9.46,8.33,6.12,9.15,11.55,18.77,17.62,28.8-8.18,3.42-14.49,10.13-24.14,8.41-5.02-.9-6.95,3.64-9.2,6.64-5.06,6.79-8.22,8.63-16.18,6.6-4.92-1.25-8.91,.04-13.58,2.81,.47-7.34-4.68-10-9.71-13.62-3.25-2.33-5.63-7.51-6.15-11.69-1.55-12.43-10.37-23.97-22.96-26.84-2.51-.57-5.25-.97-7.76-.58-8.06,1.25-15.71-.64-23.47-2.17-2.62-.52-5.44-.08-8.42-.08,1.27,7.09,2.24,13.67,3.67,20.16,1.41,6.4,5.44,11.25,9.44,16.39,3.83,4.92,6.69,11.17,8.07,17.27,1.6,7.04,4.35,13.14,9.11,19.03-1.1,.77-1.9,1.6-2.89,1.96-4.14,1.54-7.14,4.17-8.91,8.28-1.71,3.98-7.14,6.52-11.33,6.28-5.42-.3-11.17-1.03-16.23,.39-4.46,1.25-8.16,5.19-12.87,8.4-.8-2.03-1.72-4.06-2.43-6.16-2.22-6.62-6.15-13.56-11.75-15.9-10.27-4.29-12.28-11.67-13.21-21-1.05-10.5-5.77-19.06-15.86-23.38-7.2-3.09-9.05-8.72-9.9-15.68-.63-5.13-1.71-10.38-3.66-15.14-3.37-8.21-9.78-14.02-17.06-18.97-5.81-3.95-8.87-10.12-8.76-16.65,.22-12.37-5.11-20.9-15.01-27.54-1.75-1.17-2.22-4.24-3.28-6.44,1-.78,2.29-1.38,2.93-2.39,2.26-3.54,5.74-3.86,9.33-3.75,4.04,.13,6.22-2.02,7.52-5.5Zm114.99,21.28c-.27-1.32-.22-4.22-1.41-6.46-6.53-12.28-23.35-14.75-33.55-11.85-4.09,1.17-8.05,3.17-12.21,3.66-3.4,.41-5.4,1.43-4.38,4.84,1.44,4.78,2.85,9.93,7.48,12.65,4.94,2.92,6,7.24,6,12.34,0,1.02,.03,2.23,.54,3.03,3.57,5.63,7.21,11.23,11.08,16.65,.3,.42,3.56-.23,3.87-1.01,2.45-6.09,7.8-8.29,12.98-11.29,3.51-2.03,6.53-5.97,8.24-9.74,1.51-3.33,.91-7.61,1.36-12.84Z"/>
  <path class="cls-1" d="M27.6,132.03c-1.3,3.48-3.48,5.62-7.52,5.5-3.59-.11-7.07,.21-9.33,3.75-.64,1.01-1.94,1.6-2.93,2.39-.01-.79-.34-2.05,.01-2.28,4.35-2.89,8.69-5.84,13.3-8.29,1.83-.97,4.3-.74,6.48-1.06Z"/>
  <path class="cls-3" d="M809.15,208.5c-6.45,.27-15.16-6.49-17.3-11.89-2.22-5.63-2.72-10.39,2.18-15.03,1.08-1.02,.74-4.29,.12-6.22-1.38-4.27,.3-11.44,4.01-14.1,4.36-3.12,8.93-5.96,13.21-9.18,4.77-3.59,9.78-2.93,14.11-.12,4.78,3.1,9.02,7.12,13.11,11.13,2.79,2.73,1.81,9.96-1.65,13.79-3.22,3.57-4.91,7.54-5.36,12.34-.19,2-1.37,4.35-2.86,5.71-4.67,4.29-9.59,8.33-14.66,12.15-1.46,1.1-3.75,1.11-4.93,1.42Zm3.66-12.79c4.55-1.49,7.81-5.1,9.95-10.9,1.01-2.73,2.18-5.5,3.81-7.89,2.61-3.83,2.08-7.11-.67-10.53-1.49,.66-2.86,1.19-4.15,1.85-5.62,2.9-9.35,8.98-9.01,13.61,.33,4.53,.07,9.1,.07,13.85Z"/>
  <path class="cls-2" d="M142.59,153.32c-.45,5.22,.15,9.51-1.36,12.84-1.71,3.77-4.73,7.71-8.24,9.74-5.18,3-10.53,5.19-12.98,11.29-.31,.78-3.57,1.43-3.87,1.01-3.88-5.42-7.51-11.02-11.08-16.65-.51-.81-.54-2.01-.54-3.03,0-5.1-1.05-9.42-6-12.34-4.62-2.73-6.04-7.88-7.48-12.65-1.02-3.41,.97-4.43,4.38-4.84,4.15-.5,8.11-2.5,12.21-3.66,10.2-2.9,27.02-.43,33.55,11.85,1.19,2.24,1.15,5.13,1.41,6.46Zm-9.18,5.1c-2.32-3.92-3.9-7.93-6.64-10.84-2.54-2.7-5.67-.71-8.46,1.1-2.5,1.62-2.52,3.36-1.43,5.72,2.11,4.56,3.98,9.25,6.25,13.72,.98,1.92,3.07,2.98,4.63,.6,2.05-3.12,3.62-6.55,5.64-10.31Z"/>
</svg>
