<?xml version="1.0" encoding="utf-8"?>
<!-- Generator: Adobe Illustrator 26.5.0, SVG Export Plug-In . SVG Version: 6.00 Build 0)  -->
<svg version="1.1" id="Livello_1" xmlns="http://www.w3.org/2000/svg" xmlns:xlink="http://www.w3.org/1999/xlink" x="0px" y="0px" height="100px" width="100px"
	 viewBox="0 0 125 125" style="enable-background:new 0 0 125 125;" xml:space="preserve">
<path d="M89.1,10.7c1.5,0.5,1.8,1,1.8,2.7c-0.1,6-0.2,12-0.3,18c0,4.6,0.1,9.2,0.2,13.8c0,3.4,0.1,6.8,0.1,10.3c0,1.7-0.2,3.4-0.7,5
	c-0.9,2.6-2.7,4-5.5,4.3c-3,0.3-6,0.8-9,1.1c-2.5,0.3-5.1,0.4-7.7,0.6c-0.7,0-1.4,0-2.1-0.2c-2.2-0.5-3.4-2-3.9-4.1
	c-0.3-1.3-0.5-2.6-0.5-4c-0.1-4.7,0-9.3,0-14c0-6.1,0.1-12.2,0-18.4c0-3.6-0.2-7.1-0.3-10.7c0-0.6-0.1-1.1-0.1-1.7
	c-0.1-1.7,0.2-2.1,1.8-2.7c2.9,0,5.7,0,8.6,0c0.4,0.2,0.8,0.3,1.1,0.5c0.7,0.5,0.8,1.3,0.8,2.1c-0.1,3.3-0.2,6.7-0.4,10
	c0,1.4-0.1,2.8-0.1,4.2c-0.1,4.5-0.1,9-0.1,13.5c0,2,1.9,3.4,3.8,3c1.5-0.3,2.5-1.6,2.5-3.2c0-2.2,0-4.4-0.1-6.6
	c0-3.3-0.1-6.7-0.2-10c0-1.3-0.1-2.6-0.1-3.9c-0.1-2.5-0.2-4.9-0.3-7.4c0-1.1,0.6-1.9,1.7-2.2c0.1,0,0.2-0.1,0.2-0.1
	C83.4,10.7,86.2,10.7,89.1,10.7L89.1,10.7z"/>
<path d="M124.9,27.8c-0.2,2.6-2.8,5.5-5.8,5.7c0.1,0.1,0.1,0.1,0.1,0.1c2.7,0.8,3.9,2.8,4.3,5.5c0.2,1.4,0.3,2.8,0.4,4.3
	c0.3,4.4,0.5,8.8,0.7,13.2c0,0.5,0,0.9,0,1.4c0,1-0.5,1.6-1.5,1.7c-1.4,0.2-2.8,0.4-4.3,0.5c-1.6,0.2-3.3,0.4-4.9,0.6
	c-0.1,0-0.2,0-0.3,0c-1.8,0.1-2.5-0.5-2.5-2.3c0.1-3.9,0.2-7.8,0.3-11.7c0-0.7-0.1-1.5-0.3-2.2c-0.3-1-1.1-1.5-2.2-1.5
	c-1.1,0-1.8,0.5-2.2,1.5c-0.2,0.5-0.3,1-0.3,1.5c0.1,3,0.2,6,0.2,9c0,1.5,0.1,3.1,0,4.6c0,1.2-0.6,1.9-1.8,2
	c-2.4,0.3-4.7,0.6-7.1,0.9c-0.5,0.1-1,0.1-1.5,0.1c-1,0-1.6-0.6-1.8-1.6c-0.1-0.7-0.1-1.4-0.1-2c0-2.8,0.1-5.6,0.1-8.5
	c0-3.8,0.1-7.6,0.1-11.5c0-5.5,0-11.1-0.1-16.6c0-2.9-0.1-5.8-0.1-8.7c0-2,0.3-2.5,2.2-3.3c7.5,0,15,0,22.5,0c0.1,0,0.2,0.1,0.3,0.1
	c2.7,0.4,5,2.9,5.3,5.6C124.9,20.2,124.9,24,124.9,27.8L124.9,27.8z M112.8,25.2c0,0-0.1,0-0.1,0c0-1.1-0.1-2.2-0.6-3.1
	c-0.6-1.1-1.6-1.6-2.8-1.6c-1.2,0-2.3,0.5-2.8,1.6c-0.9,1.9-0.9,4-0.1,5.9c0.5,1.3,1.6,1.9,3,1.9c1.4,0,2.4-0.6,2.9-2
	C112.5,27.1,112.6,26.2,112.8,25.2L112.8,25.2z"/>
<path d="M18.5,10.7c0.5,0.1,0.9,0.2,1.4,0.3c3.3,0.7,5.1,2.5,5.7,5.9c0.2,0.9,0.2,1.9,0.2,2.9c0,3.7,0,7.5,0,11.2c0,0.5,0,1-0.1,1.6
	c-0.2,1.1-0.7,1.7-1.8,1.7c-1.4,0.1-2.9,0.2-4.3,0.1c-1.5-0.1-2.2-1.1-2.3-2.7c0-0.6-0.1-1.2-0.3-1.7c-0.5-1.3-1.7-2-3.1-1.8
	c-1.3,0.2-2.3,1.1-2.5,2.5c-0.3,2.6,0.3,5,2.3,6.9c1.1,1,2.3,1.8,3.6,2.6c2.3,1.4,4.4,3.1,6.1,5.2c1.5,1.9,2.3,4,2.3,6.4
	c0.1,4.8,0.1,9.5,0.1,14.3c0,0.5-0.1,1-0.2,1.6c-0.4,2.3-1.8,3.7-3.9,4.6c-1.5,0.6-3.1,0.8-4.7,1c-3,0.4-6.1,0.7-9.1,0.8
	c-4.2,0-7.3-2.7-7.8-6.9C0,66.4,0,65.8,0,65.3c0-4.5,0-9,0-13.4c0-0.2,0-0.5,0-0.7c0.1-1.4,0.9-2.2,2.3-2.2c1.2,0,2.3,0,3.5,0
	c1.9-0.1,2.8,1.1,2.9,2.8c0,0.9,0.3,1.8,0.9,2.5c0.8,0.9,2,1.2,3.2,0.8c1.2-0.4,1.9-1.5,2-2.8c0.2-2.6-0.8-4.7-3-6.3
	c-2-1.5-4.1-2.9-6.1-4.5c-1-0.8-2-1.7-2.9-2.7c-1.9-2-2.6-4.4-2.6-7.1C0,27.5,0,23.3,0,19.1c0-1,0.2-2,0.4-3c0.8-3.1,3-4.7,6.1-5.3
	c0.3-0.1,0.6-0.1,0.9-0.2C11.1,10.7,14.8,10.7,18.5,10.7L18.5,10.7z"/>
<path d="M125,112.6c0,0.1-0.1,0.2-0.1,0.3c-0.2,0.8-0.8,1.2-1.5,1.3c-0.4,0.1-0.7,0.1-1.1,0.1c-2.6,0-5.2,0-7.8,0
	c-0.1,0-0.3,0-0.4,0c-1.8-0.2-2.4-0.9-2.3-2.7c0.1-2.9,0.2-5.7,0.3-8.6c0-1.3-0.9-2.2-2.2-2.2c-1.3,0-2.3,0.9-2.2,2.3
	c0.1,3,0.2,6,0.3,8.9c0,1.6-0.5,2.2-2,2.3c-0.9,0.1-1.8,0.1-2.7,0.1c-1.9,0-3.9,0-5.8,0c-0.4,0-0.7,0-1.1-0.1
	c-1.1-0.2-1.7-1-1.7-2.3c0.1-1.5,0.2-2.9,0.3-4.4c0.2-2.2,0.3-4.3,0.5-6.5c0.3-4.2,0.6-8.3,0.8-12.5c0.1-1.9,0.2-3.8,0.3-5.7
	c0.2-3.7,0.3-7.5,0.5-11.2c0.1-1.4,1.1-2.4,2.7-2.6c3.5-0.4,7.1-0.9,10.6-1.3c2.8-0.3,5.5-0.7,8.3-1c0.5-0.1,1-0.1,1.5-0.1
	c1.4,0.1,2.4,1,2.4,2.4c0.2,3.1,0.3,6.2,0.4,9.2c0.3,5.4,0.6,10.8,0.9,16.2c0.2,3.2,0.4,6.4,0.6,9.7c0.1,2.2,0.3,4.4,0.4,6.6
	c0,0.1,0.1,0.2,0.1,0.3L125,112.6L125,112.6z M113.3,86.3c0-1.9-0.1-3.4-0.7-4.8c-0.6-1.1-1.5-1.7-2.7-1.7c-1.2,0-2.2,0.6-2.7,1.7
	c-0.2,0.3-0.3,0.7-0.4,1.1c-0.5,2.2-0.5,4.3,0,6.5c0.2,0.8,0.5,1.6,1.2,2.1c1.7,1.3,4.1,0.6,4.8-1.5
	C113.2,88.5,113.3,87.2,113.3,86.3L113.3,86.3z"/>
<path d="M41.2,10.8C41.2,10.7,41.2,10.7,41.2,10.8l4.1-0.1c0,0,0,0.1,0,0.1C44,10.8,42.6,10.8,41.2,10.8z"/>
<path d="M41.2,10.8c1.4,0,2.7,0,4.1,0c1.8,0.1,3.6,0.1,5.4,0.4c2.4,0.3,4.4,1.3,5.7,3.4c0.9,1.3,1.1,2.8,1.1,4.4
	c0,2.3-0.1,4.7-0.1,7c-0.1,6.7-0.1,13.4-0.1,20.1c0,4.4,0.2,8.8,0.2,13.2c0,1.4,0,2.7-0.3,4.1c-0.4,2.3-1.8,3.9-4.1,4.5
	c-1.9,0.5-3.8,0.9-5.7,1.2c-3.4,0.6-6.9,0.7-10.3,0.7c-1.4,0-2.8-0.3-4.1-0.9c-2-1-3.1-2.7-3.2-4.9c-0.1-1.6,0-3.3,0-4.9
	c0-3.5,0.1-7.1,0.1-10.6c0-4.7,0.1-9.3,0-14c0-5-0.1-10.1-0.2-15.1c0-1.6,0.1-3.1,0.8-4.5c1.2-2.2,3.2-3.4,5.7-3.8
	C37.9,10.9,39.6,10.9,41.2,10.8L41.2,10.8z M47.4,40.7c-0.1-1-0.1-1.9-0.2-2.9c-0.1-1.3-0.4-2.6-1.1-3.7c-1.2-1.9-3.8-1.9-5-0.1
	c-0.4,0.6-0.7,1.3-0.9,2.1c-0.6,2.6-0.5,5.3-0.3,8c0.1,1.2,0.4,2.4,1.1,3.4c1.2,1.8,3.8,1.9,5,0c0.3-0.5,0.6-1.1,0.8-1.7
	C47.3,44.2,47.3,42.5,47.4,40.7L47.4,40.7z"/>
<path d="M54.6,114.2c-1.5,0-3.1,0.1-4.6,0c-1.2-0.1-1.8-0.7-1.8-1.9c0-1.7,0.1-3.4,0.1-5.1c0-0.6-0.1-1.3-0.3-1.9
	c-0.3-0.9-1.1-1.2-2.1-1.1c-0.9,0-1.5,0.5-1.8,1.3c-0.1,0.4-0.2,0.9-0.2,1.3c0,1.7,0.1,3.4,0.1,5.1c0,1.7-0.7,2.4-2.4,2.4
	c-2.7,0-5.4,0-8.1,0c-0.2,0-0.3,0-0.5,0c-1.3-0.1-2-0.8-2-2.2c0-1.1,0.1-2.1,0.2-3.2c0.2-2.2,0.4-4.3,0.5-6.5
	c0.2-4.5,0.4-8.9,0.7-13.4c0.2-3.1,0.3-6.2,0.5-9.3c0-0.3,0-0.6,0.1-0.9c0.2-1,0.8-1.7,1.8-1.8c1.6-0.3,3.2-0.4,4.9-0.6
	c3.3-0.4,6.6-0.8,9.9-1.2c2.3-0.3,4.5-0.6,6.8-0.8c1.7-0.2,2.5,0.5,2.7,2.2c0.1,0.9,0.1,1.9,0.2,2.8c0.2,4.4,0.4,8.7,0.6,13.1
	c0.2,4,0.5,8,0.7,12.1c0.1,2.2,0.3,4.4,0.5,6.7c0,0.5,0,1-0.1,1.5c-0.2,1-0.7,1.5-1.7,1.6C57.7,114.3,56.1,114.2,54.6,114.2
	C54.6,114.2,54.6,114.2,54.6,114.2L54.6,114.2z M49.6,91.5c-0.1-0.4-0.1-1.2-0.3-1.8c-0.4-1.4-1.3-2.4-2.8-2.5
	c-1.4-0.2-2.6,0.5-3.2,1.9c-0.9,2-0.9,4,0.1,5.9c1.2,2.2,4.1,2.3,5.4,0.2C49.4,94.1,49.6,92.9,49.6,91.5L49.6,91.5z"/>
<path d="M8.9,114.3c-2.2-0.1-4.4,0-6.5-0.2C0.7,113.9,0,113,0,111.2c0.1-6.4,0.2-12.7,0.2-19.1c0-2.7-0.1-5.3-0.2-8
	c0-0.3,0-0.6,0-0.9c0.2-1.5,1-2.3,2.8-2.5c3.9-0.4,7.7-0.9,11.6-1.2c5.7-0.5,11.7,3.7,12.8,9.9c0.5,2.8,0.5,5.5,0.5,8.3
	c0,2,0,3.9-0.2,5.9c-0.2,2.3-1.3,4.2-2.8,6c-2.4,2.8-5.5,4.2-9.1,4.5c-2.1,0.2-4.2,0.1-6.3,0.1C9.3,114.2,9.1,114.2,8.9,114.3
	C8.9,114.3,8.9,114.3,8.9,114.3L8.9,114.3z M10,96.6C10,96.6,10,96.6,10,96.6c-0.1,0.9-0.1,1.7-0.1,2.6c0,0.5,0,1,0.1,1.5
	c0.1,0.9,0.5,1.3,1.4,1.3c0.6,0,1.3,0,1.9,0c1.4-0.1,2.4-0.8,2.8-2.2c0.7-2.3,0.7-4.6-0.1-6.8c-0.5-1.4-1.5-2-3-2
	c-0.4,0-0.7,0-1.1,0c-1.3,0-1.8,0.5-1.9,1.8C10,94,10,95.3,10,96.6L10,96.6z"/>
<path d="M91.5,78.8c0,2.2,0,4.4,0,6.5c0,1.4-1.1,2.2-2.4,1.5c-0.6-0.3-1.1-0.8-1.6-1.2c-0.4-0.3-0.8-0.7-1.3-1c-1-0.5-2,0.1-2,1.2
	c0.1,3.5,0.2,7,0.4,10.6c0.1,2.4,0.2,4.8,0.4,7.2c0.1,2.7,0.3,5.4,0.5,8c0.1,1.5-0.7,2.5-2.2,2.5c-3.6,0-7.2,0-10.8,0
	c-1.6,0-2.4-1-2.3-2.5c0.3-4.2,0.6-8.3,0.8-12.5c0.1-2.3,0.2-4.6,0.4-6.9c0.1-2,0.2-4,0.3-6c0-0.6-0.1-1.2-0.7-1.6
	c-0.6-0.4-1.2-0.2-1.7,0.2c-0.5,0.4-1,0.9-1.5,1.3c-0.5,0.4-1,0.8-1.8,0.8c-1,0-1.7-0.6-1.7-1.6c0-1.4,0-2.8,0-4.2
	c0-1.8,0-3.6,0-5.3c0-0.4,0-0.7,0.1-1.1c0.1-0.8,0.5-1.4,1.3-1.6c1.2-0.3,2.3-0.5,3.5-0.6c3.5-0.5,6.9-0.9,10.4-1.3
	c3-0.4,6-0.7,8.9-1.1c0.5-0.1,0.9,0,1.4,0c0.8,0.1,1.2,0.5,1.3,1.2c0.1,0.4,0.1,0.7,0.1,1.1C91.5,74.7,91.5,76.7,91.5,78.8
	L91.5,78.8z"/>
</svg>
