<?xml version="1.0" encoding="utf-8"?>
<!-- Generator: Adobe Illustrator 26.5.0, SVG Export Plug-In . SVG Version: 6.00 Build 0)  -->
<svg version="1.1" id="Livello_1" xmlns="http://www.w3.org/2000/svg" xmlns:xlink="http://www.w3.org/1999/xlink" x="0px" y="0px" height="125px" width="125px"
	 viewBox="0 0 125 125" style="enable-background:new 0 0 125 125;" xml:space="preserve">
<style type="text/css">
	.st0{fill:#E1E9FF;}
</style>
<path class="st0" d="M0,40.4c0-0.2,0.1-0.5,0.1-0.7c0.1-1.2,0.4-2.4,0.9-3.5c1.1-2.5,3-4.1,5.6-4.8C7.9,31,9.2,31,10.5,31
	c1.1,0,2.2,0.1,3.2,0.3c2.5,0.5,4.6,1.7,6.4,3.4c0.9,0.9,1.7,1.9,2.5,2.9c0.5,0.7,1,1.3,1.5,2c0.4,0.5,0.9,1,1.4,1.4
	c0.8,0.7,1.8,1.1,2.9,1c1.9-0.1,3.2-1.1,3.9-2.8c0.3-0.6,0.3-1.3,0.3-1.9c-0.1-0.6-0.4-1.1-1-1.3c-0.5-0.2-1.1-0.3-1.7-0.3
	c-0.7,0-1.5,0-2.2-0.1c-0.3,0-0.6-0.1-0.9-0.2c-0.6-0.2-0.9-0.7-0.9-1.2c0-0.6,0.3-1,0.9-1.2s1.2-0.3,1.8-0.2c1.6,0.2,2.8,1,3.7,2.3
	c0.6,0.9,0.9,1.8,0.9,2.9c-0.1,2.2-1.6,4.2-3.8,4.6c-0.2,0-0.4,0.1-0.6,0.1c-2.1,0.1-4.1-0.3-6-1.2c-1.3-0.7-2.4-1.6-3.4-2.7
	c-0.7-0.8-1.4-1.7-2.1-2.5s-1.3-1.7-2.1-2.5c-0.9-0.9-1.9-1.6-3.1-1.9c-0.7-0.2-1.3-0.2-2-0.2c-1.4,0-2.7,0.2-4,0.8
	c-2.5,1-4.1,2.8-4.9,5.3c-0.5,1.6-0.7,3.3-0.5,5c0.2,2,1.2,3.6,2.8,4.9c1.3,1,2.8,1.6,4.4,1.9c0.8,0.2,1.7,0.2,2.6,0.2
	s1.8-0.2,2.7-0.4c1-0.2,2-0.4,2.9-0.6c0.8-0.1,1.7-0.2,2.5-0.1c1,0.2,1.7,0.7,2.2,1.7c0.3,0.6,0.5,1.3,0.5,2c0,0.5,0.1,1,0,1.4
	c-0.1,0.9-0.6,1.6-1.5,1.8c-0.6,0.2-1.2,0.2-1.8,0.2c-0.7-0.1-1.4-0.1-2.1-0.2c-1.4-0.1-2.9-0.2-4.3,0.2c-0.4,0.1-0.7,0.3-1,0.4
	c-1.4,0.8-1.6,2.4-1,3.4c0.2,0.5,0.6,0.8,0.9,1.2c0.5,0.5,1.1,0.9,1.8,1.3c0.9,0.5,1.8,1,2.7,1.6c1.2,0.7,2.4,1.4,3.4,2.3
	c1,0.8,1.9,1.7,2.6,2.8c1,1.5,1.5,3.1,1.7,4.9c0.2,2,0,3.9-0.6,5.8c-0.2,0.5-0.4,1-0.6,1.5c-1.1,2.1-2.9,3.3-5.3,3.7
	c-0.3,0.1-0.7,0.1-1,0.1c-0.9,0.1-1.8-0.1-2.6-0.4c-0.5-0.2-1.1-0.5-1.6-0.7s-1-0.3-1.5-0.4c-1.2-0.1-2.2,0.3-3.1,1.2
	c-0.3,0.3-0.5,0.7-0.8,1s-0.5,0.7-0.8,1c-0.7,0.7-1.5,0.9-2.5,0.7c-0.6-0.2-1-0.6-1.1-1.1c-0.3-1.1-0.1-2.5,1.4-3.2
	c0.6-0.3,1.2-0.4,1.9-0.5c2.5-0.2,4.9,0.2,7.2,1.1c0.6,0.2,1.2,0.4,1.8,0.6c0.8,0.3,1.6,0.3,2.3,0.1c0.8-0.2,1.4-0.6,1.9-1.3
	c0.6-0.8,0.9-1.7,1.1-2.6c0.4-1.6,0.5-3.2,0.5-4.8c0-0.9,0-1.7-0.2-2.6c-0.3-1.3-0.8-2.5-1.6-3.5c-0.8-1.1-1.7-2-2.7-2.8
	c-0.8-0.9-1.8-1.7-2.7-2.5c-0.7-0.6-1.3-1.2-1.9-1.9c-0.7-0.8-1.2-1.8-1.4-2.8c-0.1-0.6-0.2-1.2,0-1.8c0.1-0.8,0.6-1.5,1.3-2
	c0.6-0.4,1.3-0.6,2-0.7c1.4-0.2,2.8-0.2,4.1,0c0.6,0.1,1.1,0.2,1.7,0.2c0.4,0,0.8,0,1.3,0c0.9-0.1,1.4-0.7,1.6-1.6
	c0.1-0.4,0.1-0.8,0-1.2c-0.1-0.5-0.4-0.9-0.9-1.1c-0.5-0.2-0.9-0.3-1.4-0.3c-1,0-2,0.1-3,0.4c-1.3,0.3-2.5,0.6-3.8,0.9
	c-2.4,0.5-4.8,0.1-6.9-1.1c-1.9-1-3.2-2.7-3.9-4.7c-0.4-1.1-0.6-2.2-0.7-3.3c0-0.2-0.1-0.5-0.1-0.7C0,41.7,0,41,0,40.4L0,40.4z"/>
<path class="st0" d="M125,53.1C125,53.1,125,53.2,125,53.1c-0.2,0.9-0.8,1.4-1.6,1.5c-0.7,0.1-1.4-0.4-1.7-1.1
	c-0.3-0.8,0.1-1.7,0.9-2s1.7,0,2.1,0.8c0.1,0.2,0.1,0.4,0.2,0.6L125,53.1L125,53.1z"/>
<path class="st0" d="M94.7,50.6c0.1,2.3-0.5,4.4-1.5,6.4c-0.9,1.9-2.1,3.6-3.4,5.2c-1.4,1.9-3,3.6-4.6,5.4c-1.7,1.9-3.4,3.9-4.9,6
	c-1.4,1.9-2.6,3.9-3.5,6.1c-0.9,2.1-1.4,4.4-1.3,6.7c0,1,0.1,1.9,0.5,2.8c0.7,1.7,2.3,2.6,4.1,2.3c0.9-0.1,1.5-0.5,2.1-1.2
	c0.4-0.5,0.7-1,0.9-1.6c0.5-1.1,0.8-2.3,1-3.5c0.3-1.7,0.5-3.5,0.8-5.3s0.6-3.7,1.1-5.4c0.3-0.8,0.5-1.6,1-2.3
	c0.3-0.4,0.6-0.8,0.9-1.1c0.9-0.9,2-1.3,3.2-1.3c0.7,0,1.4,0.1,2.1,0.4c1.3,0.4,2,1.6,1.7,2.9c0,0.1-0.1,0.3-0.1,0.4
	c-0.2,0.4-0.5,0.7-1,0.8c-0.9,0.1-1.4-0.1-1.9-0.9c-0.1-0.2-0.2-0.3-0.3-0.5c-0.1-0.2-0.2-0.3-0.3-0.5c-0.6-1.1-1.8-1.2-2.6-0.9
	c-0.4,0.2-0.8,0.5-1.1,0.8c-0.4,0.5-0.7,1.1-0.9,1.6c-0.4,1.1-0.7,2.3-0.9,3.5c-0.3,1.8-0.5,3.6-0.8,5.5c-0.3,2-0.6,4-1.1,6
	c-0.2,0.8-0.5,1.7-0.9,2.4c-0.2,0.5-0.5,0.9-0.9,1.3c-0.7,0.7-1.5,1.1-2.4,1.1c-1.2,0-2.3-0.1-3.4-0.5c-2.1-0.8-3.3-2.3-3.9-4.4
	c-0.5-2.1-0.4-4.2,0.5-6.2c0.6-1.5,1.5-2.9,2.4-4.2c1.3-1.8,2.7-3.5,4.2-5.2c1.9-2.1,3.8-4.3,5.6-6.4c1.6-1.8,3.1-3.8,4.4-5.8
	c0.9-1.5,1.8-3.1,2.3-4.7c0.5-1.6,0.7-3.2,0.5-4.9c0-0.5-0.1-0.9-0.3-1.4c-0.5-1.3-1.6-1.6-2.7-1.3c-0.5,0.1-0.9,0.4-1.2,0.7
	c-0.5,0.5-0.9,1.1-1.2,1.8c-0.6,1.2-1,2.6-1.4,3.9C85,57,84.5,59,84,60.9c-0.4,1.7-0.9,3.4-1.6,5c-0.3,0.8-0.8,1.6-1.3,2.3
	c-0.3,0.4-0.7,0.8-1.1,1.1c-0.7,0.6-1.6,0.9-2.5,0.9c-0.5,0-1,0-1.4-0.2c-1.1-0.3-1.9-1-2.3-2s-0.5-2.1-0.4-3.2
	c0.1-1.5,0.7-2.9,1.4-4.2c0.6-1.3,1.4-2.5,2.2-3.6c0.6-0.8,1.1-1.7,1.6-2.5c0.2-0.4,0.4-0.7,0.6-1.1c0.1-0.2,0.2-0.4,0.2-0.6
	c0.1-0.4-0.1-0.6-0.4-0.7c-0.1,0-0.1,0-0.2,0c-0.8,0-1.6,0.1-2.3,0.3c-1.2,0.5-1.8,1.4-1.9,2.7c0,0.4,0,0.8,0,1.2s0,0.9-0.1,1.3
	c0,0.2-0.1,0.3-0.2,0.5c-0.3,0.6-0.7,1-1.4,1c-0.7,0-1.2-0.4-1.5-1s-0.4-1.3-0.2-2c0.2-0.7,0.6-1.4,1.1-1.9c1.1-1.2,2.5-2,4-2.4
	c0.8-0.2,1.6-0.3,2.4-0.3c0.3,0,0.7,0.1,1,0.2c0.5,0.1,0.7,0.5,0.8,1c0.1,0.5,0,0.9-0.1,1.4c-0.2,0.9-0.6,1.8-0.9,2.6
	c-0.6,1.5-1.2,2.9-1.7,4.4c-0.5,1.3-0.8,2.7-0.9,4.1c-0.1,0.9-0.1,1.8,0.2,2.6c0.3,1.2,1.2,1.6,2.3,1.2c0.4-0.2,0.8-0.4,1.1-0.8
	c0.4-0.5,0.8-1.1,1-1.6c0.6-1.2,1-2.5,1.3-3.8c0.5-2.1,1.1-4.2,1.6-6.3c0.5-1.9,1-3.8,1.8-5.6c0.5-1.1,1-2.1,1.7-3
	c0.4-0.5,0.8-0.9,1.3-1.3c0.7-0.5,1.5-0.8,2.4-0.8s1.6,0.3,2.1,1.1c0.4,0.5,0.6,1.1,0.7,1.7C94.6,49.3,94.7,50,94.7,50.6L94.7,50.6z
	"/>
<path class="st0" d="M57.6,51.7c1.6,0,3.2,0.1,4.7,0.5c0.9,0.2,1.7,0.5,2.4,1c1.5,1,2.3,2.3,2.4,4.1s-0.6,3.4-1.7,4.8
	c-1.4,1.6-3.2,2.6-5.2,3.1c-1.4,0.3-2.7,0.4-4.1,0.4c-1.1,0-2.2-0.2-3.3-0.7c-0.6-0.2-1.1-0.6-1.5-1c-0.5-0.5-0.8-1.2-0.7-1.9
	c0.1-1.1,1.2-1.7,2.1-1.1c0.5,0.3,0.7,0.7,0.8,1.2c0,0.2,0.1,0.3,0.1,0.5c0.4,1.3,1.2,2,2.5,2.3c0.9,0.2,1.8,0.1,2.8,0
	c0.3-0.1,0.7-0.1,1-0.2c1.1-0.3,2-1,2.6-1.9c0.7-1,1.2-2.1,1.4-3.3c0.1-0.8,0.2-1.6,0.1-2.3c-0.2-1.2-0.8-2.3-1.7-3.1
	c-1.3-1.2-2.8-1.8-4.6-1.8c-1.3,0-2.6,0.2-3.9,0.6c-2.7,0.9-4.4,2.8-5.2,5.6c-0.4,1.5-0.5,3.1-0.4,4.6c0.1,1.9,0.7,3.7,1.8,5.3
	c1.1,1.7,2.5,3,4.4,3.8c1.2,0.5,2.5,0.7,3.8,0.5c1.6-0.2,3.1-0.7,4.6-1.3c0.9-0.4,1.9-0.8,2.9-1.1c1.5-0.5,3-0.5,4.5-0.1
	c0.3,0.1,0.6,0.2,0.9,0.4c0.9,0.6,1.4,1.8,1,2.8c-0.2,0.7-0.8,1.2-1.5,1.1c-0.4,0-0.7-0.2-0.9-0.4c-0.4-0.3-0.6-0.7-0.8-1.2
	c-0.4-1.3-1.7-1.8-2.8-1.7c-0.9,0.1-1.7,0.3-2.5,0.7c-1,0.4-2,0.8-3.1,1c-1.5,0.4-3.1,0.6-4.7,0.6c-3.9-0.2-7.1-1.8-9.5-5
	c-1.3-1.7-1.8-3.7-1.7-5.8c0.1-2.1,0.7-4,1.9-5.8c1.5-2.2,3.5-3.5,6-4.3C54.1,51.9,55.9,51.7,57.6,51.7L57.6,51.7z"/>
<path class="st0" d="M108.4,73.9c-1.1-0.1-2.3-0.2-3.4-0.3c-1.3-0.2-2.5-0.5-3.6-1.1c-1.4-0.8-2.3-1.9-2.5-3.5
	c-0.3-1.6,0-3.1,0.9-4.5c1-1.6,2.4-2.6,4.1-3.3c0.9-0.4,1.9-0.6,2.8-0.7c1.1-0.2,2.1-0.2,3.2-0.2c1.3,0,2.5,0.2,3.7,0.7
	c0.6,0.3,1.2,0.6,1.7,1.1c0.6,0.5,0.9,1.2,0.8,2c0,0.1,0,0.1,0,0.2c-0.1,0.5-0.3,0.9-0.9,1.1c-0.5,0.2-1,0-1.4-0.4
	c-0.3-0.3-0.5-0.6-0.6-1c-0.6-1.7-1.8-2.6-3.4-3c-1.4-0.3-2.8-0.2-4.2,0.2c-1.2,0.4-2.1,1.2-2.8,2.3c-0.7,1.2-1.1,2.5-1.1,3.9
	c-0.1,1.1,0.2,2.2,0.8,3.1c0.8,1.2,1.9,2.1,3.3,2.6c0.7,0.2,1.4,0.3,2.1,0.3c1.6,0,3.1-0.2,4.6-0.8c3.2-1.2,5.1-3.6,5.8-6.9
	c0.5-2.4,0.4-4.7-0.7-6.9s-2.7-3.9-5-5c-1.6-0.8-3.3-1-5-0.7c-1.2,0.2-2.4,0.6-3.5,1.1c-0.7,0.3-1.4,0.7-2.2,0.9
	c-0.8,0.2-1.7,0.3-2.5,0c-0.7-0.2-1.3-0.7-1.7-1.3c-0.2-0.3-0.3-0.7-0.3-1c0.1-0.8,0.7-1.4,1.6-1.3c0.5,0,0.9,0.2,1.3,0.5
	c0.2,0.2,0.4,0.4,0.6,0.6c0.1,0.2,0.3,0.4,0.4,0.6c0.4,0.5,0.9,0.7,1.5,0.6c0.5,0,1-0.2,1.4-0.3c0.9-0.3,1.8-0.6,2.7-0.9
	c3-0.7,5.9-0.4,8.7,0.9c2,0.9,3.8,2.2,5.1,4.1c0.9,1.2,1.4,2.5,1.6,4c0.1,1.2,0,2.4-0.3,3.6c-0.8,2.8-2.5,4.9-4.9,6.4
	c-1.6,1.1-3.4,1.7-5.3,2.1C110.7,73.8,109.4,73.8,108.4,73.9L108.4,73.9z"/>
<path class="st0" d="M26.8,55c-0.2,0.2-0.2,0.4-0.2,0.5c0,0.5,0,1.1,0.1,1.6c0.1,0.9,0.1,1.8-0.2,2.6c-0.6,1.7-2.3,2.8-4,2.5
	c-1-0.1-1.5-0.8-1.5-1.8c0-0.6,0.4-1.1,1.1-1.2c0.5-0.1,1,0,1.5,0.2c0.4,0.2,0.8,0.3,1.2,0.4c0.7,0.2,1.1-0.1,1.3-0.8
	c0.1-0.4,0.1-0.9,0.1-1.4s-0.1-1.1-0.1-1.6c0-0.3,0.1-0.7,0.2-1c0.1-0.2,0.2-0.5,0.4-0.5c0.3,0,0.4,0.2,0.6,0.4
	c0.3,0.5,0.4,1,0.5,1.6c0.2,1.2,0.3,2.3,0.3,3.5c0,1.4,0.1,2.8,0.2,4.3c0.1,1.1,0.2,2.1,0.4,3.2c0.2,1.2,0.5,2.4,1,3.4
	c0.3,0.6,0.7,1.1,1.2,1.6c1.1,1,2.4,1.4,3.9,1.3c1.4-0.1,2.5-0.8,3.4-1.8c0.8-1,0.9-2,0.2-3.1c-0.3-0.6-0.8-1-1.3-1.4
	c-0.6-0.5-1.1-0.9-1.7-1.3c-0.6-0.5-1.2-0.9-1.8-1.4c-1.3-1.1-2.3-2.5-2.9-4.1c-0.8-2-1.2-4-1.2-6.1c0-1.5,0.3-2.9,1-4.2
	c1.2-2.3,3.1-3.6,5.5-4.2c0.5-0.1,0.9-0.2,1.4-0.2c0.9-0.1,1.6,0.2,2.2,0.8c0.4,0.5,0.8,1,1,1.5c0.3,0.7,0.6,1.4,0.9,2.1
	c0.2,0.5,0.4,1,0.6,1.5c0.1,0.3,0.3,0.6,0.6,0.8c0.3,0.3,0.6,0.4,1,0.3c0.8-0.2,1.3-0.6,1.3-1.5c0-0.3,0-0.7,0-1.1
	c-0.1-0.6,0-1.2,0.2-1.8c0.1-0.3,0.3-0.6,0.6-0.8c0.8-0.7,1.9-0.4,2.2,0.6c0.4,1.2,0.1,2.3-0.8,3.1c-1.1,1.1-2.4,1.7-3.9,2
	c-0.6,0.1-1.2,0.1-1.8,0c-1-0.1-1.9-0.6-2.5-1.4c-0.4-0.5-0.8-1-1.1-1.5c-0.3-0.4-0.6-0.9-0.9-1.4c-0.2-0.3-0.4-0.5-0.6-0.7
	c-0.3-0.3-0.6-0.4-1-0.3c-0.7,0.1-1.3,0.2-1.9,0.5c-1.6,0.6-2.6,1.8-3,3.4c-0.4,1.4-0.4,2.8,0,4.2c0.3,1.4,1.1,2.5,2.2,3.4
	c0.9,0.8,1.9,1.4,2.9,2.1c0.7,0.4,1.3,0.8,2,1.2c0.4,0.2,0.8,0.5,1.2,0.8c1.2,0.9,1.9,2.1,2,3.7c0.2,2.5-1.3,5.1-3.5,6.3
	c-1,0.5-2.1,0.7-3.3,0.6c-0.6,0-1.2-0.1-1.7-0.3c-1.2-0.4-2.1-1.2-2.7-2.3c-0.6-1.1-1-2.2-1.2-3.4c-0.2-1.1-0.3-2.2-0.4-3.3
	c-0.2-2-0.3-4-0.4-5.9c0-1.1-0.1-2.3-0.4-3.4c0-0.2-0.1-0.3-0.1-0.5C27,55.2,26.9,55.1,26.8,55L26.8,55z"/>
</svg>
