<?xml version="1.0" encoding="UTF-8"?>
<svg id="Livello_1" data-name="Livello 1" xmlns="http://www.w3.org/2000/svg" viewBox="0 0 981.92 183.69" height="125px" width="125px">
  <defs>
    <style>
      .cls-1 {
        fill: #fff9f0;
      }
    </style>
  </defs>
  <path class="cls-1" d="M115,82.9c0-30.58-12.16-46.57-32.67-46.57s-38.57,14.94-39.61,53.52v90H0V4.01H42.75v29.55C52.13,12.01,71.93,.19,94.53,.19s43.44,8.66,54.91,33.01C163.34,5.06,188.01,.19,207.13,.19c45.5,0,65.34,31.59,65.34,82.36v97.31h-42.75V82.9c0-30.58-12.16-46.57-32.67-46.57s-38.57,14.94-39.62,53.52v90h-42.42V82.9Z"/>
  <path class="cls-1" d="M392.58,.19c51.43,0,95.57,41.35,95.57,91.75s-44.13,91.75-95.57,91.75-95.22-40.67-95.22-91.75S341.84,.19,392.58,.19m0,147c29.89,0,52.47-24.33,52.47-55.25s-22.58-55.26-52.47-55.26-52.13,24.33-52.13,55.26,22.58,55.25,52.13,55.25"/>
  <path class="cls-1" d="M554.45,42.97C560.36,13.04,583.65,.19,602.41,.19c5.9,0,9.38,1.04,14.6,2.43V44.67c-6.48-2.25-13.29-3.42-20.16-3.48-15.65,0-41.7,8.68-41.7,57.34v81.32h-42.74V4.01h42.05V42.97Z"/>
  <path class="cls-1" d="M910.19,0h-32.04c0,38.34,22.04,66.69,29.84,74.49h-.66c-59.17,0-71.71-57.01-71.71-74.49h-32.04c0,38.34,22.04,66.69,29.84,74.49h-.66c-59.17,0-71.71-57.01-71.71-74.49h-32.05c0,38.34,22.04,66.69,29.84,74.49h-95.41v32.86h95.41c-7.8,7.8-29.84,36.14-29.84,74.49h32.05c0-17.48,12.56-74.49,71.73-74.49h.66c-7.8,7.8-29.84,36.14-29.84,74.49h32.01c0-17.48,12.55-74.49,71.72-74.49h.66c-7.8,7.8-29.84,36.14-29.84,74.49h32.02c0-17.48,12.56-74.49,71.73-74.49v-32.86c-59.18,0-71.73-57.01-71.73-74.49"/>
</svg>
