<?xml version="1.0" encoding="UTF-8"?>
<svg id="Livello_1" data-name="Livello 1" xmlns="http://www.w3.org/2000/svg" viewBox="0 0 959.78 294.14" height="125px" width="125px">
  <path d="M79.84,294.14c-5.06-.89-10.16-1.61-15.17-2.7-36.71-7.99-59.92-34.19-63.59-71.69-.41-4.18-.7-8.36-1.07-12.9H44.33c2.28,7.37,4.03,14.55,6.72,21.37,3.87,9.81,10.98,16.59,21.33,19.42,12.32,3.37,24.9,5.09,36.93-.26,5.33-2.37,10.69-6.28,14.15-10.91,7.47-10.01,3.01-23.17-8.97-26.66-11.49-3.35-23.41-5.18-35.09-7.9-9.87-2.3-19.96-4.13-29.45-7.55-23.01-8.3-36.5-24.29-37.4-49.62-.88-24.78,8.78-43.9,30.44-56.28,21.64-12.37,45.02-13.17,68.89-9.22,18.55,3.07,35.14,10.19,47.48,25.02,11.51,13.84,16.28,30.31,18.37,48.24h-49.66c-.18-1.54-.4-3.11-.55-4.68-1.14-11.95-6.79-20.64-18.4-24.62-11.8-4.04-23.86-5.06-35.93-1.22-7.27,2.31-12.23,7.16-12.82,15.07-.58,7.88,3.15,13.84,10.51,16.52,11.76,4.27,23.72,8,35.66,11.74,11.76,3.68,23.94,6.22,35.34,10.77,42.57,17.01,41.84,78.48,7.35,102.08-12.88,8.82-27.2,13-42.42,14.87-1.98,.24-3.93,.73-5.9,1.1h-21.09Z"/>
  <path d="M359.58,294.14c-3.9-.91-7.82-1.73-11.69-2.73-29-7.56-49.8-25.11-60.64-52.96-15.92-40.91-15.46-81.66,6.81-120.31,17.85-30.97,45.78-45.65,81.46-45.6,23.69,.03,45.93,5.15,65.17,19.64,22.55,16.99,33.13,40.3,35.13,68.46h-52.87c-.71-3.09-1.31-6.31-2.19-9.45-5.55-20.06-19.78-31.47-40.52-32.57-25.51-1.35-41.4,8.87-49.17,33.22-7.23,22.65-7.21,45.73,1.08,68.14,7.6,20.56,25.17,30.47,47.55,28.25,22.86-2.27,37.84-15.33,42.15-36.76q2.3-11.45,13.88-11.45h38.19c-1.15,14.69-4.5,28.21-10.53,40.98-14.3,30.29-37.95,47.93-71.31,52.2-.87,.11-1.69,.62-2.53,.95h-29.97Z"/>
  <path d="M921.48,34.37c8.45,8.5,16.64,16.74,25.2,25.35-23.96,22.61-48.34,45.61-73.89,69.72,29.97-.7,58.3-1.37,86.99-2.05v35.66c-28.56-.65-56.95-1.3-86.98-1.99,24.97,23.97,48.98,47.03,73.71,70.78-8.68,7.89-17.15,15.58-26.05,23.66-22.02-23.11-45.03-47.26-69.3-72.73,1.12,36.9,2.18,72.09,3.26,107.7h-37.27c.94-35.41,1.87-70.8,2.84-107.73-24.03,24.81-47.1,48.63-70.91,73.21-7.76-8.64-15.28-17.02-23.15-25.79,23.08-22.01,47.21-45.03,72.44-69.09-30.77,.69-60.01,1.35-89.66,2.02v-35.76c29.46,.69,58.73,1.37,89.66,2.09-25.44-23.99-49.83-46.98-74.01-69.78,8.21-8.61,16.32-17.11,24.91-26.13,23.54,24.7,46.62,48.93,70.7,74.2-.97-36.79-1.91-72.04-2.85-107.73h37.27c-1.06,35.21-2.13,70.45-3.2,105.69,.37,.27,.73,.53,1.1,.8,23.14-24.13,46.28-48.26,69.17-72.12Z"/>
  <path d="M503.43,290.53V5.4h47.87c-.7,46.17-1.4,92.17-2.12,139.71,4.74-4.19,8.54-7.47,12.25-10.84,20.95-19.04,41.93-38.06,62.77-57.22,2.93-2.69,5.83-3.86,9.84-3.82,18.66,.2,37.31,.09,57.88,.09-28.87,28.28-56.62,55.46-84.72,82.98,29.56,44.68,58.99,89.17,89.04,134.59-10.8,0-20.52,0-30.24,0-6.66,0-13.33-.22-19.98,.08-3.77,.17-5.94-1.09-7.95-4.32-20.03-32.19-40.22-64.29-60.37-96.4-.96-1.52-2.03-2.98-3.22-4.71-8.68,7.61-17.18,14.74-25.2,22.38-1.52,1.45-1.8,4.98-1.53,7.42,2.61,23.54,5.46,47.06,8.21,70.59,.17,1.42,.02,2.88,.02,4.59h-52.55Z"/>
  <path d="M247.92,74.28v216.26h-44.49V74.28h44.49Z"/>
  <path d="M248.77,48.38h-46.08V4.49h46.08V48.38Z"/>
</svg>
