<?xml version="1.0" encoding="UTF-8"?>
<svg id="Livello_1" data-name="Livello 1" xmlns="http://www.w3.org/2000/svg" viewBox="0 0 959.78 336.47" height="100px" width="100px">
  <path d="M521.31,336.47c-3.23-.42-6.47-.75-9.68-1.26-14.77-2.35-28.16-7.74-39.19-18.14-10.62-10.01-16.55-22.42-18.45-36.77-1.56-11.76-.7-23.36,3.46-34.56,5.37-14.47,15.72-24.37,29.17-31.37,13.22-6.88,27.36-11.09,41.93-13.67,15.7-2.78,31.52-4.87,47.29-7.22,6.96-1.04,13.92-1.98,21.36-3.04-.25-6.41-.29-12.8-.84-19.15-.3-3.42-1.17-6.87-2.29-10.14-3.05-8.86-9.41-14.04-18.6-15.79-6.25-1.19-12.49-1.11-18.68,.23-12.78,2.76-20.09,10.95-22.87,23.47-.58,2.64-.86,5.34-1.31,8.17h-73.17c.91-4.97,1.54-9.86,2.72-14.62,6.97-28.06,25.07-46.01,51.6-56.11,15.93-6.06,32.57-8.37,49.53-8.85,13.62-.38,27.17,.26,40.55,3.03,15.17,3.15,29.17,8.78,40.74,19.49,10.28,9.52,16.54,21.38,20.23,34.72,3.14,11.35,4.27,22.97,4.28,34.71,.02,28.08-.14,56.16,.06,84.24,.12,17.06,1.13,34.09,4.47,50.89,.39,1.97,.85,3.92,1.33,6.11-.79,.05-1.45,.13-2.11,.13-21.69,0-43.37-.02-65.06,.05-1.85,0-2.3-.56-2.46-2.32-1.02-11.79-2.17-23.56-3.28-35.34-.01-.11-.12-.21-.31-.53-.36,.7-.68,1.26-.97,1.85-10.64,22.06-28.36,34.87-52.12,39.66-4.49,.9-9.1,1.21-13.66,1.8-.38,.05-.75,.23-1.12,.34h-12.55Zm77.49-110.92c-12.11,2.03-23.88,3.82-35.57,6.04-8.64,1.65-17.02,4.27-24.55,9.04-6.99,4.43-11.4,10.56-12.17,18.96-1.1,12.02,4.02,23.65,17.56,28.25,4.74,1.61,9.63,2.11,14.62,1.88,18.99-.84,32.75-11.73,37.97-29.92,3.21-11.16,1.6-22.55,2.13-34.25Z"/>
  <path d="M68.14,336.47c-3.29-.42-6.6-.77-9.88-1.27-12.1-1.85-23.38-5.78-33.08-13.46-10.03-7.94-15.95-18.62-19.75-30.59C1.69,279.37,.22,267.2,.18,254.91,.03,205.03,.05,155.15,0,105.27c0-.61,0-1.23,0-2.01H70.86c0,.93,0,1.87,0,2.81,0,44.8-.01,89.6,.01,134.4,0,7.12,.65,14.18,2.7,21.05,5.06,16.92,17.34,22.83,33.26,21.18,16-1.66,24.98-11.93,30.25-26.15,2.68-7.24,3.85-14.8,3.85-22.52,0-42.71,0-85.42,0-128.13v-2.64h70.63v227.58h-66.85v-38.63c-.14-.05-.28-.11-.42-.16-.29,.47-.6,.94-.87,1.42-12.17,21.87-30.13,36.13-54.78,41.53-3.03,.66-6.14,.99-9.22,1.47h-11.3Z"/>
  <path d="M755.65,152.59v-51.02h132.2v176.57h71.93v51.04h-211.05v-51.01h68.72v-125.59h-61.8Z"/>
  <path d="M381.77,330.86h-82.02v-79.59h82.02v79.59Z"/>
  <path d="M808.43,71.74V0h80.23V71.74h-80.23Z"/>
</svg>
