<?xml version="1.0" encoding="UTF-8"?>
<svg id="Livello_1" data-name="Livello 1" xmlns="http://www.w3.org/2000/svg" viewBox="0 0 960.4 711.31" height="125px" width="125px">
  <defs>
    <style>
      .cls-1 {
        fill: #fff;
      }
    </style>
  </defs>
  <path class="cls-1" d="M505.92,0c20.31,7.63,27.18,17.22,27.06,39.3-.44,81.93-1.06,163.85-1.64,245.77-.06,8.54-2.59,16.19-9.54,21.6-3.6,2.81-2.99,4.8-.03,7.52,6.56,6.04,9.17,13.65,9.1,22.57-.65,83.06-1.16,166.12-1.79,249.18-.03,4.05-.59,8.15-1.41,12.13-3.28,15.84-13,25.37-29.13,25.29-26.48-.13-52.95-1.89-79.43-2.89-6.19-.23-6.41-4.27-6.37-8.94,.29-35.63,.49-71.26,.73-106.89,.58-86.92,1.13-173.83,1.77-260.75,.57-77.83,1.32-155.67,1.77-233.5,.03-5.82,1.91-8.22,7.6-8.53,6.27-.34,12.52-1.23,18.78-1.88,20.85,0,41.71,0,62.56,0Zm-47.7,458.97c-.56,0-1.11,0-1.67,0,0,40.39,.11,80.78-.11,121.17-.04,6.35,1.67,9.31,8.4,8.7,4.26-.38,8.61-.16,12.9,.17,5.61,.43,7.98-1.27,8.01-7.54,.36-77.6,1.08-155.19,1.47-232.79,.11-20.75,3.66-20.26-20.67-20.35-6.07-.02-8.47,1.74-8.43,8.13,.2,40.84,.1,81.67,.1,122.51Zm1.87-295.97c-.56,0-1.12,0-1.68,0,0,40.16,.08,80.33-.09,120.49-.02,5.78,1.72,8.46,7.78,8.03,4.51-.32,9.06-.12,13.59,.05,5.37,.19,8.04-2.31,8.17-7.63,.06-2.27,.12-4.54,.14-6.81,.3-48.79,.6-97.58,.9-146.38,.18-29.27,.28-58.55,.69-87.82,.08-5.91-1.81-8.31-7.8-7.83-4.5,.36-9.08,.23-13.58-.16-6.27-.55-8.26,2.05-8.23,8.24,.2,39.94,.1,79.89,.1,119.83Z"/>
  <path class="cls-1" d="M0,264.21c.38-9.21,1.34-18.44,.97-27.62-.37-9.34,2.6-16.81,9.09-23.2,23.1-22.7,46.13-45.48,69.32-68.1,5.96-5.81,13.32-8.1,21.23-4.64,7.86,3.44,11.29,10.29,11.26,18.65-.18,41.28-.51,82.57-.75,123.85-.03,5.66-2.57,8.26-8.33,8.1-8.38-.24-16.76-.35-25.14-.17-6.26,.13-8.33-2.83-8.24-8.76,.33-23.36,.46-46.72,.61-70.09,.02-2.61-.3-5.23-.55-9.24-2.47,1.65-4.02,2.35-5.14,3.49-3.66,3.71-6.68,8.23-10.82,11.24-10.46,7.61-11.62,17.86-11.56,29.82,.21,44.68-.48,89.36-.75,134.05-.01,2.4,.01,5.49,1.39,7.08,7.52,8.68,15.47,17,24.69,26.97,.66-4.27,1.33-6.69,1.36-9.12,.28-23.13,.44-46.27,.64-69.4,.07-8.45,1.05-9.39,9.39-9.28,8.38,.11,16.76,.21,25.14,.22,4.48,0,6.63,2.01,6.61,6.61-.18,41.29-.23,82.57-.52,123.86-.06,8.26-3.47,15.23-11.41,18.58-8.18,3.46-15.76,1.13-21.8-4.97-23.43-23.66-46.74-47.45-69.94-71.34C3.99,397.99,2.22,394.21,0,390.87c0-42.22,0-84.44,0-126.66Z"/>
  <path class="cls-1" d="M670.61,322.76c0,87.58-.06,175.17,.13,262.75,.01,6.11-1.98,8.97-7.84,10.38-9.01,2.16-17.83,5.07-26.76,7.6-8.16,2.31-9.13,1.61-9.07-6.86,.33-42.43,.75-84.86,1.07-127.28,.32-43.34,.59-86.68,.83-130.01,.05-8.28-.5-8.7-8.95-8.79q-17.39-.18-17.53,16.87c-.6,85.09-1.25,170.18-1.65,255.26-.03,6.61-1.61,10.12-8.69,10.78-8.55,.79-17.01,2.54-25.54,3.63-9.04,1.15-9.44,.77-9.41-8.04,.14-36.53,.27-73.07,.51-109.6,.45-69.21,.96-138.41,1.47-207.62,.59-80.55,1.17-161.1,1.88-241.65,.04-4.94,.63-10,1.81-14.8,4.53-18.42,18.77-27.43,37.29-23.53,14.61,3.08,29.16,6.42,43.64,10.06,21.5,5.41,30.69,17.14,30.6,39.46-.16,43.34-.78,86.67-.95,130.01-.17,43.79-.04,87.58-.04,131.38-.94,0-1.87,0-2.81,0Zm-66.36-151.26c-.51,0-1.03,0-1.54,0,0,34.7-.13,69.41,.05,104.11,.1,19.52-3.54,17.63,18.25,17.97,6.62,.1,8.51-2.55,8.54-8.88,.34-70.78,.99-141.55,1.33-212.33,.09-19.95,2.97-16.03-16.39-20.97-9.49-2.42-10.22-1.86-10.23,7.8-.02,37.43,0,74.87,0,112.3Z"/>
  <path class="cls-1" d="M342.03,570.97c0-7.4-.03-13.66,0-19.92,.36-64.45,.72-128.9,1.1-193.35,.03-5.22,.13-10.44,.26-15.65,.16-6.32-3.06-9.09-9.18-9.05-7.93,.05-15.87,.07-23.8-.01-21.84-.23-34.62-10.89-35.7-32.54-1.19-23.76-.47-47.61-.37-71.43,.18-46.07,.49-92.14,.8-138.21,.11-16.79,.52-33.58,.44-50.37-.02-5.19,1.88-7.83,6.83-9.17,9.39-2.54,18.65-5.57,28-8.25,7.07-2.02,8.95-.58,8.93,7.02-.07,21.56-.27,43.12-.42,64.67-.31,45.84-.6,91.68-.92,137.52-.13,18.38-.1,36.76-.55,55.14-.15,6.07,2.18,7.92,7.92,7.83,22.01-.35,18.3,2.2,18.45-17.65,.64-84.64,1.15-169.29,1.7-253.94,.06-9.77,.02-9.72,9.88-11.53,8.46-1.55,16.89-3.24,25.35-4.83,6.78-1.27,8.31-.14,8.27,6.63-.31,49.92-.71,99.85-1.04,149.77-.3,44.93-.49,89.87-.81,134.8-.66,93.49-1.35,186.99-2.1,280.48-.18,22.22-11.98,33.64-33.66,29.66-19.69-3.62-39.01-9.75-58.15-15.82-16.77-5.32-20.9-19.64-21.07-35.24-.27-24.96,.05-49.93,.22-74.89,.27-39.48,.63-78.97,.94-118.45,.07-8.98,.05-8.99,9.23-8.96,8.84,.03,17.69,.42,26.51,.01,6.39-.3,8.07,2.1,8.01,8.3-.65,63.99-.93,127.99-1.65,191.98-.07,6.42,1.67,9.58,8.01,10.71,5.7,1.02,11.25,2.83,18.56,4.73Z"/>
  <path class="cls-1" d="M914.73,447.29c-6.98,6.46-12.54,12.1-18.63,17.1-5.03,4.13-10.3,8.33-16.14,11.05-14.74,6.87-32.17-1.79-33.99-18.01-1.79-15.91-1.05-32.14-.97-48.23,.27-53.32,.72-106.64,1.14-159.96,.31-39.25,.66-78.5,1.1-117.75,.02-2.06,1.12-4.1,1.72-6.15,2.22,.78,4.84,1.04,6.58,2.42,10.28,8.17,20.54,16.39,30.37,25.09,2.35,2.08,4.29,6.08,4.28,9.18-.39,78.96-1.06,157.91-1.67,236.87-.05,6.71,0,13.41,0,20.12,.66,.3,1.31,.6,1.97,.9,3.84-3.54,7.41-7.46,11.58-10.56,11.08-8.21,14.81-18.57,14.67-32.63-.57-60.13,.08-120.27,.33-180.4,.01-3.22,.47-6.45,.73-9.67,.6-.21,1.2-.42,1.8-.63,5.95,6.01,12.14,11.81,17.79,18.08,6.68,7.4,13.2,14.99,19.16,22.97,2.25,3.01,3.86,7.34,3.84,11.07-.43,104.38-1.08,208.75-1.76,313.12-.23,34.94-.68,69.88-.96,104.82-.26,31.09-25.18,55.28-56.98,55.19-32.43-.09-57.23-23.58-57.2-54.81,.04-41.29,.45-82.59,1.03-123.88,.05-3.37,1.83-7.64,4.28-9.88,9.7-8.85,19.92-17.15,30.13-25.43,1.68-1.36,4.96-2.8,6.26-2.04,1.57,.91,2.55,4.11,2.55,6.32-.08,39.71-.34,79.41-.56,119.12-.07,12.03-.28,24.05-.13,36.08,.1,8.38,5.79,14.2,13.35,14.29,7.62,.09,13.48-5.63,13.55-13.96,.54-68.29,.96-136.59,1.4-204.89,0-1.05-.25-2.11-.62-4.94Z"/>
  <path class="cls-1" d="M805.95,315.14c11.45,8.47,12.97,20.1,12.8,32.95-.7,53.08-1.07,106.17-1.19,159.26-.03,12.05-3.79,21.23-14.85,26.69-31.42,15.52-62.81,31.09-94.34,46.4-5.57,2.71-7.92,.24-7.86-7.33,.26-31.53,.6-63.07,.83-94.6,.31-43.56,.51-87.12,.83-130.68,.72-98.46,1.47-196.92,2.22-295.38,.06-8.34,1.97-9.97,9.08-6.42,28.92,14.43,57.7,29.16,86.5,43.84,14.34,7.31,20.02,19.86,20,35.21-.04,37.89-.39,75.77-.65,113.66-.09,13.16-.03,26.32-.44,39.47-.5,15.89,4.15,18.56-12.93,36.93Zm-58.62-116.13c-.31,0-.61,0-.92,0,0,25.63,0,51.26,0,76.89,0,20.06-.02,19.9,20.13,19.84,6.37-.02,9.01-2.34,8.96-8.79-.1-15.19,.22-30.38,.32-45.58,.26-39.46,.56-78.92,.59-118.39,0-2.54-1.41-6.06-3.35-7.42-6.09-4.27-12.68-7.88-19.23-11.44-3.68-2-6.1-.81-6.23,3.73-.06,2.04-.26,4.08-.26,6.11-.02,28.35-.01,56.7-.01,85.04Zm-2.19,326.81c8.67-4.64,16.07-8.76,23.62-12.59,3.92-1.99,5.25-4.74,5.27-9.18,.23-50.82,.76-101.64,1.02-152.47,.09-17.07,3.77-19.2-18-18.96-11.01,.12-11.31,.09-11.38,11.3-.35,56.72-.72,113.45-1.05,170.17-.02,3.31,.28,6.63,.51,11.73Z"/>
  <path class="cls-1" d="M235.33,310.37c12.92,9.55,13.72,22.06,13.58,35.49-.77,74.43-1.12,148.87-1.66,223.31-.02,2.13-.53,4.26-1,7.86-13.91-6.43-26.83-12.19-39.48-18.51-1.69-.84-2.77-4.54-2.76-6.91,.22-52.88,.65-105.75,1.02-158.63,.13-18.38,.07-36.77,.4-55.15,.11-6.4-2.6-8.95-8.8-9.24-16.95-.79-17.37-.64-17.5,16.59-.46,61.05-.82,122.09-1.21,183.14-.01,2.04,.07,4.09-.04,6.13-.38,6.65-2.37,7.91-7.91,4.53-10.44-6.37-20.88-12.77-30.94-19.7-2.28-1.57-4.31-5.35-4.3-8.11,.12-56.05,.57-112.11,.92-168.16,.27-43.12,.46-86.24,.76-129.37,.23-33.81,.66-67.62,.78-101.44,.03-7.33,2.65-12.77,9.02-16.26,23.42-12.83,46.75-25.84,70.37-38.29,10.76-5.67,24.49,.19,29.37,12.66,2.58,6.6,4.2,14.05,4.19,21.12-.09,64.68-.67,129.36-1.01,194.04-.05,10.33-4.53,18.22-13.8,24.9Zm-28.61-208.69c-7.96,4.4-14.07,8.16-20.52,11.21-4.36,2.06-5.61,4.92-5.63,9.55-.24,51.01-.76,102.02-1,153.03-.09,18.7-3.03,15.93,16.71,16.61,9,.31,9.25-.16,9.31-8.9,.37-53.5,.76-107.01,1.13-160.51,.04-6.29,0-12.58,0-20.99Z"/>
</svg>
