<?xml version="1.0" encoding="UTF-8"?>
<svg id="Livello_1" data-name="Livello 1" xmlns="http://www.w3.org/2000/svg" viewBox="0 0 959.74 499.46" height="125px" width="125px">
  <defs>
    <style>
      .cls-1 {
        fill: #120403;
      }
    </style>
  </defs>
  <path class="cls-1" d="M646.96,210.46c-.42,2.35-1.27,4.75,.86,6.78-.52-.11-1.03-.22-1.55-.33,.5,.13,1.01,.27,1.51,.4,.99,2.17,1.04,2.22-.9,4.04-10.85,10.16-22.04,19.93-33.83,28.99-23.83,18.32-49.53,33.3-78.31,42.43-51.64,16.38-100.89,9.38-147.99-16.03-38.55-20.79-70.02-50.17-99.73-81.83-8.01-8.53-12.07-16.95-11.06-28.84,1.11-13.03,.26-26.22,.24-39.34,0-2.43,.08-4.61,1.9-6.71,31.33-36.21,65.25-69.43,107.31-93.3,12.29-6.98,25.14-12.76,38.59-17.17,1.68-.55,3.37-1.52,5.27-.77,.09-.04,.18-.07,.26-.1-.13,0-.26,0-.39,0,10.52-4.95,21.93-5.96,33.21-7.49,11.04-1.5,22.27-1.69,33.14,.11,10.12,1.67,20.83,.78,30.33,5.74-5.94-.08-2.2,4.86-3.69,7.09,.5,.3,1.2,.96,1.45,.82,.62-.34,1.37-1,1.47-1.63,.34-2.13,.41-4.3,.58-6.46,1.12,.07,2.17,.24,2.46,1.59-.05-.04-.12-.06-.18-.09,.02,.09,.03,.18,.05,.27,2.22-1.75,4.26-.18,6.24,.47,26.55,8.62,50.42,22.12,72.55,39.03,13.49,10.31,26.69,20.96,38.28,33.29,8.17,8.69,18.07,15.84,24.26,26.4,.93,1.59,3.04,2.5,4.59,3.68,8.64,6.57,8.44,15.88,8.58,25.26,.21,14.11,.67,28.22,.92,42.32,.09,5.12-4.43,10.89-9.72,12.4-1.16,.33-1.8,.77-2.07,1.74-2.48,8.97-10.57,13.38-16.23,19.73-3.69,4.15-5.36-2.71-8.58-2.32,.08-.58-.06-1.04-.74-.88-.17,.04-.24,.56-.35,.86-.68-.05-1.21-.02-.46,.77,.12-.3,.23-.6,.35-.9,.45,0,.89,0,1.34,0Zm-107.29-151.97c.09-.05,.18-.09,.27-.14-.14-.01-.27-.02-.41-.03,.23-.02,.46-.04,.7-.06-.19,.07-.39,.14-.55,.22Zm36.38,100.46c.09-.04,.18-.08,.28-.12-.14-.04-.27-.07-.41-.11,.18,.09,.35,.18,.53,.27-.14-.02-.28-.04-.4-.04Zm88.89,9.25c-.17,.07-.37,.12-.49,.24-.06,.06,0,.26,.02,.39,.11-.26,.22-.51,.35-.76,0,0,.12,.13,.12,.13Zm-112.11-133.03c-.67-.21-1.37-.57-1.92,.22-.05,.07,.23,.46,.24,.46,.61-.28,1.2-.58,1.78-.86-.06-.08-.11-.15-.17-.23,.02,.14,.05,.27,.07,.41Zm51.56,16.72c.27-.8-.17-.98-.82-.91-.13,.02-.36,.33-.33,.4,.29,.53,.66,.9,1.27,.37-.25,.64-.04,1.1,.63,1.21,.18,.03,.43-.36,.64-.56-.46-.17-.93-.34-1.39-.51Zm42.69,146.37l-.15,.32-.02-.23c-.19-.45-.37-.9-.56-1.35-.15,.23-.44,.49-.41,.7,.1,.65,.54,.82,1.13,.56Zm-29.29-58.32l.12,.37-.1-.24c-.15-.34-.3-.67-.45-1.01-.16,.19-.31,.38-.47,.58,.3,.09,.6,.18,.9,.3Zm60,8.39c-1.07-.16-2.13-.32-2.74,.87-.13-.03-.26-.07-.39-.1,.09-.04,.18-.08,.27-.11-.05,.11-.1,.22-.16,.33,.87-.85,1.92-1.18,3.1-1.05-.15-.1-.36-.17-.42-.31-.04-.09,.12-.28,.19-.42,.04,.27,.09,.53,.13,.8Zm-51.09-5.71c-.07,.01-.15,.03-.22,.04,.1,.08,.2,.16,.3,.24-.17-.32-.49-.64-.48-.95,.02-.77-.06-2.05-.9-1.23-1.05,1.03,1.22,.98,1.3,1.9Zm-143.23,106.92c-.53,.06-1.06,.11-1.58,.19-.04,0-.05,.23-.08,.36,.6-.24,1.2-.49,1.78-.71l-.25-.17s.14,.33,.14,.33Zm177.73-62.97c.02-.42,.49-1.18-.58-.81,.24,.22,.49,.44,.73,.66,.42,.35,.85,.71,1.27,1.06l.19-.63c-.54-.09-1.08-.18-1.61-.28ZM430.29,21.64c-.07,.01-.13,.02-.2,.03,.11,.07,.23,.14,.34,.2-1.43,.12,.02-1.68-1.16-1.74,.35,.51,.7,1.01,1.01,1.5Zm-25.28,4.35c.7,.42,1.39,.49,2.01-.12,.09-.09,.04-.33,.06-.49-.63,.24-1.26,.49-1.85,.76-.19,.45-.39,.9-.58,1.36,.29-.03,.58-.06,.86-.09-.17-.47-.33-.94-.5-1.41Zm253.8,155.19c.68-.14,1.36-.28,2.04-.41-.18-.25-.35-.51-.53-.76-.56,.45-1.11,.89-1.64,1.32,.04-.05,.09-.1,.13-.14Zm2.43-16.09c.08,.13,.17,.25,.25,.38-.15-.08-.3-.15-.45-.23,.13-.02,.26-.05,.38-.07,1.21,.96-2.11,3.05,.56,3.56,1.56-1.71-.89-2.3-.74-3.64Zm-321.62,5.44c.98-.48,2.47,.72,3.07-.9,.08-.21-.28-.59-.43-.89-.9,.68-1.8,1.36-2.69,2.01,.1,.06,.2,.11,.3,.17-.08-.13-.17-.26-.25-.39Zm336.44-50.94c.1,.39-.23,1.36,.76,.57-.31-.14-.62-.27-.93-.41-.44-.64,.27-2.27-1.36-1.79-.51,.15-1.24,1.3-1.09,1.68,.8,2.03,1.72-.11,2.62-.05Zm-337.07,60.52c.02,.18,0,.37,.08,.52,.04,.09,.21,.11,.33,.16-.18-.18-.37-.36-.55-.54,.23-1.11,.22-2.16-.64-3.03,3.27-.04,4.11-2.05,4.47-5.01-3.28,.64-2.84,3.61-4.29,5.14-.42,.93-1.89,1.5-1.29,2.74,.39,.81,1.26,.28,1.91,.02Zm318.12-3.9c-.08,.04-.16,.07-.24,.11,.12,.05,.23,.1,.35,.15-1.87-.56-1.49-2.78-2.85-4.08-.07,2.27-1.44,5.17,2.73,3.82ZM444.46,20.33c.19,.38,.39,.76,.58,1.15,.13-.12,.26-.24,.39-.36-.35-.24-.7-.48-1.05-.72,.22-1.12,.73-2.61-1.13-2.51-1.66,.09-1.54,1.78-1.15,2.73,.89,2.17,1.58,.07,2.35-.29Zm-128.37,71.74c-3.87-.79-6.18,1.34-8.01,4.32-.75,1.21-1.6,2.47-.27,3.74,.27,.26,1.38,.21,1.55-.06,1.24-1.89-.27-2.8-1.51-3.78,4.62,2.02,8.48,2.6,8.36-4.36l-.15-.23,.02,.36Zm286.07,85.69l-.26-.07,.38,.16c-1.64,2.07-1.64,4.34-.82,6.71,0,.88,.01,1.77,.02,2.65,.32-.05,.63-.11,.95-.16-.31-.84-.63-1.68-.94-2.52,2.47,.91,4.52-.75,6.77-1.13,0,.34,.73,.86-.24,.95,.11-.28,.23-.56,.34-.85,.5-.74,1.54-1.59,1.41-2.19-.32-1.46-1.9-.42-2.81-.91-.46-.45-.91-.91-1.37-1.36-1.14-.43-2.28-.86-3.42-1.27Zm-149.1,38.3c-2.3,1.62-4.22-.09-6.2-.77-21.99-7.62-40.38-20.99-56.99-36.79-10.81-10.28-20.84-21.4-31-32.32-6.67-7.18-14.2-14.32-21.96-20.79-2.4-2-2.28-3.64-.19-5.93,20.46-22.5,42.55-43.04,69.19-58.19,30.25-17.2,62.37-25.08,97.14-19.02,30.21,5.26,55.98,19.86,79.81,38.46,20.89,16.31,37.77,36.73,56.7,55.04,7.28,7.04,14.39,14.24,22.03,21.82,0-8.49-.11-16.11,.05-23.74,.07-3.26-.99-5.65-3.18-8.08-8.46-9.38-17-18.67-25.98-27.56-19.41-19.23-40.28-36.64-63.87-50.58-41.6-24.59-85.56-33.9-132.88-19.71-9.54,2.86-18.78,6.75-28.16,10.17-.45-.11-.89-.22-1.34-.33,.46,.13,.92,.27,1.38,.4-.96,.7-1.85,1.55-2.9,2.08-37.42,19.1-67.94,46.74-96.26,77.17-3.02,3.24-3.1,4.89,.09,8.09,18.53,18.55,36.82,37.33,55.14,56.09,14.99,15.35,30.99,29.48,49.44,40.58,27.53,16.56,56.74,25.51,89.19,18.75,28.38-5.92,52.04-20.64,73.47-39.52,3.14-2.76,5.76-7.83,11.25-3.55,.37,.29,1.1,.13,2.94,.28-5.54-3.2-3.87-5.81-1.22-9.03,2.6-3.16,7.1-4.5,8.37-8.85,.71,.07,.97-.36,.91-.96-.02-.17-.4-.3-.61-.45-.05,.51-.1,1.02-.15,1.54-.44,.02-.88,.05-1.32,.07-.39-1.39-.8-.91-1.22-.02-2.84-2.82-5.89-5.46-8.47-8.5-2.69-3.17-4.62-4.05-7.96-.44-4.63,5.01-9.82,9.55-15.04,13.97-21.57,18.22-45.07,32.67-74.02,35.32-12.39,1.14-24.82,1.18-36.44-4.58,.14,.03,.28,.06,.41,.09-.11,.06-.21,.11-.32,.17,.05-.13,.1-.26,.15-.39Zm110.3,17.14c.7-.91,1.69-1.74,1.04-3.09-.04-.09-.51-.08-.51-.08-.19,1.05-.35,2.11-.51,3.17,.91,3.28,1,3.42-3.97,6.54-20.34,12.76-42.21,21.76-66.3,23.58-10.12,.77-21.06,3.88-30.43-3.56,.5-.78,1-1.57,1.49-2.35-.17-.05-.49-.16-.5-.14-.35,.82-.67,1.65-.99,2.48,1.5,3.92-1.46,2.87-3.11,2.54-5.32-1.07-10.65-2.15-15.86-3.65-24.84-7.15-46.52-20.15-66.51-36.2-24.33-19.54-44.25-43.57-66.55-65.18-4.08-3.96-7.59-8.5-11.37-12.78-.65,.47-1.29,.93-1.94,1.4,0,8.83,.02,17.66-.01,26.49,0,1.74,.75,3.07,1.86,4.31,27.8,30.87,57.73,59.28,94.29,79.79,32.86,18.43,67.84,27.73,105.73,22.81,32.11-4.16,60.64-17.41,87.06-35.58,3.2-2.2,6.19-3.26,9.86-1.8,.04,.29,.08,.59,.12,.88,.19-.13,.38-.26,.56-.38-.27-.12-.54-.25-.82-.37,2.06-1.66-1.85-3.86,.66-5.7,5.01-3.66,9.82-7.59,14.73-11.38,1.72-1.33,5.29,.65,5.72-1.83,1.22-6.96,9.05-7.35,11.71-12.67-.09,1.13-1.54,3,.06,3.19,1.71,.19,.67-2.07,1.01-3.21,5.31-7.96,12.4-14.31,19.47-20.56,7.17-6.34,7.25-6.63,.91-13.49-8.52-9.22-18.19-17.32-26.12-27.15,.13-.54,.27-1.08,.4-1.62-.14,.6-.27,1.19-.41,1.79-9.03-8.08-17.22-17-25.59-25.74-17.53-18.31-36.64-34.6-59.16-46.61-34.85-18.58-70.54-21.33-107.11-5.55-22.92,9.89-42.45,24.75-60.4,41.85q-8.82,8.41-.53,16.83c1.13,1.15,2.38,2.21,3.36,3.48,2.46,3.19,4.37,3.66,7.48,.22,6.77-7.48,14.34-14.19,22.35-20.37,22.9-17.66,47.87-29.77,77.69-29.03,23.41,.58,44.02,9.14,63.19,21.84,29.83,19.76,51.4,48.18,76.56,72.84,2.08,2.04,1.78,3.46-.14,5.48-4.71,4.96-9.06,10.27-14.31,14.71,.05-.37,.03-.77,.16-1.12,.24-.61-.06-.92-.32-.53-.24,.37,.05,1.07,.11,1.62-.3,3.25-2.89-1.98-2.88,.67,.03,6.17-3.8,1.32-5.4,2.17-3.03,1.61,3,4.02-.39,6.83-7.15,5.92-13.74,12.52-21.43,17.83-.27,.28-.56,.92-.8-.02,.28,.05,.56,.09,.84,.14-3.97,3.72-7.99,7.34-14.08,6.24Zm-86.2-44.24c24.34-.84,39.91-16.76,39.31-37.22-.58-19.72-17.19-35.97-36.47-35.31-10.52,.36-19.23,4.74-26.75,12.3-8.26,8.3-7.21,19.61-10.81,29.38,5.24,7.09,6.87,16.43,14.46,22.15,6.99,5.26,14.47,8.51,20.26,8.69Zm-43.67-3.24c-13.76-22.78-12.92-44.18,.29-66.76-15.42,9.19-27.22,19.75-38.31,31.2-1.87,1.93-1.76,3.26,.03,4.97,11.35,10.86,22.9,21.47,38,30.59Zm95.44-1.61c10.44-5.73,19.55-13.25,28.24-21.32q10.94-10.17-.12-20.42c-8.53-7.86-17.4-15.29-29.07-21.96,12.57,22.09,12.59,42.74,.95,63.7Zm102.51,42.18c2.09-.93,3.92-1.49,4.72-3.72-2.75-.4-5.09-.71-4.72,3.72ZM546.6,23.5c1.03-.7,1.49-1.78,1.51-2.97,.02-.98-.7-1.45-1.63-1.17-.95,.28-2.01,.77-1.73,1.99,.21,.9,.52,2,1.85,2.15Zm122.56,172.56c-.07-3.17-1.88-3.93-3.61-4.68-.05-.02-.83,.98-.78,1.45,.25,2.24,2.23,2.36,4.39,3.23Zm-30.23-99.83c-.05-1.2-.48-1.75-1.34-1.86-.8-.1-1.58,.04-1.68,1.02-.08,.76,0,1.62,1.11,1.45,.68-.1,1.33-.42,1.9-.61Zm-32.06,93.12c-.35-.24-.76-.75-1.24-.82-.95-.14-1.31,.61-1.45,1.42-.16,.91,.56,.9,1.11,.91,.85,.02,1.49-.33,1.58-1.52Zm-167.09-53.32c-.3-.57-.55-1.04-.79-1.51-.4,.32-1.05,.57-1.14,.96-.19,.79,.18,1.57,1.06,1.7,.22,.03,.56-.72,.87-1.15Zm48.06-42.36c-.07-1.12-.61-1.59-1.45-1.6-.31,0-.87,.27-.9,.48-.12,.81,.27,1.5,1.11,1.61,.41,.05,.87-.32,1.24-.48Zm-41.17,30.07c-.36,1.5-.6,1.97-.53,2.39,.04,.25,.52,.54,.84,.61,.69,.15,1.03-.24,.81-.91-.16-.5-.49-.94-1.13-2.09Zm-16.41,8.81c-.82,.4-1.36,.51-1.39,.7-.14,.81,.53,.97,1.11,.99,.34,.01,.69-.25,1.03-.39-.28-.49-.56-.98-.75-1.3Zm211.19,75.45c-.38,.23-1.41,.02-.83,.96,.29,.47,.89,.81,1.42,1.05,.7,.31,1.12-.14,1.13-.8,0-1.12-.9-1.12-1.71-1.22Zm-2.39-65.66c-.95-.39-1.43-.62-1.93-.78-.78-.26-1.06,.35-1.02,.86,.04,.43,.43,1.07,.79,1.16,.33,.08,.82-.43,2.16-1.24Zm27.35-33.46c-.26-.16-.52-.31-.78-.47-.11,.35-.31,.7-.3,1.04,0,.16,.43,.3,.66,.44,.14-.33,.28-.67,.41-1.01Zm-37.69,116.34c-.22-.26-.43-.53-.65-.79-.18,.31-.5,.62-.51,.94-.02,.52,.13,1.14,.88,.82,.2-.09,.19-.63,.28-.97ZM535.27,21.68c.39-.26,.68-.45,.96-.64-.46-.21-.91-.51-1.39-.58-.27-.04-.59,.32-.88,.49,.45,.25,.9,.5,1.31,.73Zm-64.55,65.46c-.21-.13-.42-.29-.65-.37-.05-.02-.31,.29-.28,.38,.09,.25,.28,.46,.43,.69,.17-.23,.34-.46,.5-.7Zm208.51,35.23c-.12,.27-.24,.54-.36,.81,.32,.14,.65,.39,.97,.38,.14,0,.26-.53,.39-.81-.33-.13-.66-.26-1-.38ZM529.21,14.35c-.23,.24-.46,.49-.7,.73,.17,.08,.37,.25,.51,.21,.32-.08,.61-.27,.92-.41-.24-.18-.49-.36-.74-.54Zm13.53,2.84c-.14,.32-.41,.65-.36,.93,.03,.19,.51,.3,.79,.45,.12-.32,.34-.65,.32-.97,0-.15-.48-.27-.75-.41Zm51.57,26.35c-.22,.27-.43,.46-.55,.71-.07,.15-.06,.41,.02,.56,.26,.49,.59,.45,.71-.11,.07-.33-.1-.72-.18-1.16Zm82.98,91.14c-.74-.34-1.25-.79-1.59-.68-.41,.13-.9,.7-.95,1.12-.06,.46,.19,1.25,1.03,.8,.46-.25,.83-.67,1.52-1.24Zm-218.03,121.38c.28-.23,.71-.41,.8-.7,.1-.3-.13-.71-.21-1.06-.28,.23-.7,.41-.8,.7-.1,.3,.12,.71,.21,1.07Zm154.85-9.92c-.19-.33-.38-.66-.57-1-.22,.32-.55,.62-.62,.97-.09,.49-.1,1.19,.71,1.02,.22-.04,.32-.64,.47-.99Zm-63.74-16.33c.33-.12,.66-.25,.99-.37-.27-.17-.55-.5-.79-.48-.4,.04-.77,.32-1.16,.5,.32,.12,.63,.24,.96,.35Zm75.41-6.87c-.44-.37-.85-.72-1.27-1.07-.12,.33-.43,.79-.31,.96,.27,.38,.74,.62,1.13,.92,.14-.25,.27-.51,.44-.82ZM430.72,12.19c-.33-.1-.7-.34-.96-.25-.28,.09-.47,.49-.69,.76,.33,.1,.71,.34,.99,.25,.27-.08,.45-.49,.66-.76Zm-40.86,149.05c-.17-.06-.34-.11-.52-.17-.04,.15-.08,.31-.12,.46,.17,.04,.34,.13,.5,.11,.07-.01,.1-.26,.14-.4Zm264.76,2.84c-.05,.16-.09,.31-.14,.47,.17-.1,.33-.2,.5-.3-.12-.06-.24-.11-.36-.17Zm26.6,3.28c-.38-.15-.72-.31-1.08-.4-.05-.01-.31,.41-.26,.48,.17,.25,.44,.44,.67,.65,.21-.23,.42-.47,.66-.73Zm-398.35-38.98c-.05-.18-.09-.36-.14-.55-.14,.05-.39,.09-.39,.15-.01,.18,.07,.36,.12,.54,.14-.05,.28-.1,.41-.15Zm140.33-17.69c-.02-.13,0-.33-.07-.38-.11-.07-.29-.04-.44-.05,.03,.2,.05,.39,.08,.59,.14-.05,.29-.11,.43-.16Zm-4.75-5.32c-.16,.26-.36,.5-.47,.78-.03,.08,.2,.35,.32,.37,.13,.02,.41-.19,.4-.28-.03-.29-.16-.58-.26-.87Zm215.97-11.4c-.09-.13-.18-.26-.28-.39-.11,.11-.33,.29-.31,.32,.12,.19,.29,.35,.45,.51l.14-.44Zm-226.98,89.46c.17,.06,.34,.12,.51,.18-.11-.2-.21-.4-.32-.59-.06,.14-.12,.28-.19,.41Zm240.37-93.88c-.09-.17-.18-.33-.27-.5-.13,.13-.39,.33-.36,.39,.1,.23,.3,.41,.47,.6,.05-.17,.11-.33,.16-.5Zm-223.34-21.06c.14-.13,.28-.25,.42-.38-.14-.13-.28-.25-.41-.38-.18,.2-.36,.4-.54,.6l.53,.16Zm-14.93,120.88c-.09-.12-.17-.32-.29-.36-.16-.05-.35,.03-.53,.05,.12,.2,.24,.39,.36,.59,.15-.09,.31-.19,.46-.28ZM597.8,60.7c.12-.09,.3-.16,.34-.28,.05-.15-.02-.33-.04-.5-.19,.12-.39,.22-.55,.37-.03,.03,.16,.27,.25,.42Zm7.34,134.75c-.12-.14-.26-.42-.36-.4-.34,.06-.67,.21-1,.33,.13,.14,.27,.4,.38,.39,.33-.05,.65-.2,.98-.31Zm-16.08,5.05c.14-.08,.27-.16,.41-.24-.27-.01-.54-.02-.81-.04,.13,.09,.27,.19,.4,.28ZM524.57,25.93c.33,.16,.6,.33,.9,.4,.09,.02,.26-.23,.39-.36-.21-.21-.41-.55-.65-.6-.17-.03-.41,.35-.64,.55Zm-88.89-7.53c-.32-.13-.63-.3-.96-.35-.13-.02-.3,.22-.45,.34,.25,.21,.49,.54,.77,.58,.18,.03,.43-.36,.65-.57Zm128.01,23.06c-.05,.15-.17,.3-.15,.44,.1,.58,.34,.62,.61,.11,.06-.12,.02-.35-.06-.46-.06-.08-.26-.06-.41-.08Zm45.98,207.23c-.14-.14-.31-.41-.43-.39-.34,.06-.67,.23-1,.36,.33,.14,.65,.33,.99,.4,.11,.02,.29-.24,.44-.38Zm-144.04-1.11c-.38-.1-.6-.16-.82-.22,.05,.12,.08,.34,.14,.35,.16,.02,.33-.05,.68-.13ZM401.06,34.14l-.42,.16,.42,.17v-.33Zm161.64,200.93c.05-.15,.14-.3,.14-.46,0-.05-.21-.1-.32-.15-.05,.15-.13,.3-.13,.46,0,.05,.2,.1,.31,.16Zm75.65-17.82c-.17-.12-.32-.22-.46-.32-.14,.27-.31,.53-.39,.82-.02,.09,.23,.24,.36,.37,.16-.29,.33-.58,.49-.87ZM405.74,31.7c-.15-.06-.3-.11-.45-.17-.04,.12-.09,.24-.13,.36,.15,.05,.3,.12,.44,.12,.05,0,.09-.2,.14-.31Zm152.06,203.86l.18-.26-.29-.04,.11,.3Zm44.81,.05l.18-.27-.28-.04,.09,.32Zm-123.93-19.65l.27,.18,.04-.27-.31,.09Zm-10.83,31.42l.27,.21,.05-.31-.33,.11Zm-2.25-32.37l.21-.32-.33-.05,.11,.37Zm87.35,68.63l-.2,.29,.3,.05-.1-.34Zm83.66-73.95l-.21,.31,.33,.04-.12-.36Zm-109.88,77.81c-.11-.13-.22-.36-.35-.38-.13-.01-.27,.19-.41,.3,.11,.13,.22,.36,.35,.38,.13,.01,.27-.19,.41-.3Zm-51.37,10.55l-.23,.37,.38,.04-.15-.41Zm-33.95-88.39l-.22,.35,.36,.04-.14-.39Zm15.63-194.59l.27-.37-.39-.07,.13,.44Zm-45.7,177.72c-.13-.07-.29-.22-.38-.18-.53,.21-.54,.49-.02,.72,.09,.04,.29-.07,.37-.17,.06-.08,.01-.24,.02-.37Zm187.53-4.74l.34,.24,.06-.36-.4,.11Zm19.42-2.04l.23-.33-.37-.05,.14,.38Zm37.9-6.27l-.28-.2-.05,.3,.34-.09Zm15.93-2.42c-.12-.13-.24-.27-.36-.4-.13,.12-.36,.24-.37,.37,0,.13,.21,.27,.33,.4,.13-.12,.26-.25,.39-.37Zm-266.97-41.22l-.27-.2-.06,.28,.33-.08Zm-60.77-17.34c-.12,.09-.25,.19-.37,.28,.1,.12,.19,.32,.3,.33,.11,.01,.24-.17,.37-.26-.1-.12-.2-.24-.3-.36Zm260.69-13.29c-.12,.13-.33,.26-.33,.4,0,.13,.21,.26,.33,.4,.13-.12,.35-.24,.36-.37,0-.13-.21-.26-.36-.42Zm-50.56-38.36c-.1-.12-.19-.33-.31-.34-.11-.01-.25,.17-.37,.26,.1,.12,.19,.33,.31,.34,.11,.01,.25-.17,.37-.26Z"/>
  <path class="cls-1" d="M554.44,495.07c-12.47,0-23.77-.09-35.06,.06-2.83,.04-3.79-1.57-4.86-3.61-4.9-9.27-9.93-18.46-14.78-27.76-1.31-2.52-2.65-4.11-5.9-4.03-9.08,.23-18.18,.21-27.26,.02-3.45-.07-4.56,1.12-4.49,4.51,.18,8.67-.08,17.35,.11,26.02,.08,3.63-1.05,4.95-4.82,4.86-9.89-.23-19.79-.24-29.68,0-3.88,.1-4.73-1.43-4.72-4.95,.09-40.14,.09-80.28,0-120.42,0-3.65,1.11-4.94,4.83-4.9,25.44,.27,50.89,.28,76.33,.6,4.39,.06,8.88,.82,13.14,1.92,17.06,4.43,28.66,14.67,32.12,32.4,3.65,18.69,1.07,35.95-14.6,48.86-3.36,2.77-3.21,4.61-1.37,7.85,5.98,10.51,11.74,21.15,17.56,31.76,1.04,1.9,1.97,3.86,3.46,6.79Zm-127.98-90.86c-.15-.11-.29-.25-.46-.32-.06-.03-.19,.09-.29,.14,.31,0,.62,0,.93,0,.08,.45,.16,.9,.23,1.35,.26-.1,.52-.2,.78-.3-.39-.3-.78-.6-1.2-.87Zm54.29,26.21c0-.16,0-.31,0-.47,5.85,0,11.76,.56,17.53-.13,9.2-1.11,14.12-7.68,13.59-16.91-.55-9.71-6.12-14.93-17.36-15.41-9.28-.39-18.58,0-27.87-.19-3.46-.07-4.62,1.18-4.55,4.56,.16,7.67,.34,15.36-.06,23.01-.25,4.81,1.71,5.91,5.99,5.61,4.22-.3,8.48-.06,12.73-.06Zm-20.99,8.62c-.07,.22-.2,.46-.22,.72,0,.11,.25,.35,.34,.33,.23-.05,.43-.21,.65-.33-.25-.23-.5-.47-.77-.71Zm-1.07-42.56c-.11-.12-.2-.34-.32-.35-.12,0-.25,.18-.37,.28,.11,.12,.2,.33,.32,.35,.12,.01,.25-.18,.37-.28Z"/>
  <path class="cls-1" d="M679.8,381.36c2.52,3.91,1.09,8.24,1.04,12.33-.04,3.85-3.71,2.33-5.7,2.34-19.14,.16-38.28,.12-57.42,.09-12.11-.02-12.19-.05-12.09,11.94,.08,9.9-1.45,8.53,8.68,8.58,19.59,.09,39.18,.18,58.76-.02,4.3-.05,5.61,1.25,5.34,5.45-.34,5.2-.33,10.45,.02,15.65,.28,4.23-1.12,5.47-5.38,5.43-20.57-.21-41.15,.03-61.73-.2-4.42-.05-5.87,1-5.83,5.65,.13,15.01-.08,15.02,15.15,15.02,18.38,0,36.76,.13,55.13-.1,4.33-.05,5.53,1.32,5.35,5.48-.31,7.05-.22,14.12-.03,21.18,.1,3.46-.68,4.99-4.62,4.97-35.13-.14-70.25-.12-105.38-.02-3.49,.01-4.45-1.16-4.45-4.52,.09-40.35,.11-80.7-.02-121.05-.01-3.88,1.45-4.7,4.96-4.69,27.26,.11,54.52-.35,81.76,.32,7.85,.2,15.61-.79,23.43-.34,2.96,.17,4.56,.8,4.28,4.11-.35,4.18,.68,8.48-1.12,12.53-.05-.05-.1-.1-.14-.15Zm-77.53,64c-.06,.08-.12,.16-.17,.24,.12-.02,.24-.03,.36-.05-.24,0-.47-.02-.71-.02,.18-.05,.37-.1,.52-.16Zm28.13-7.75c-.04,.18-.09,.36-.13,.54,.05-.16,.09-.32,.14-.47-.35-.35-.7-.71-1.05-1.06l.34-.2s-.23,.31-.17,.35c.3,.27,.6,.54,.88,.85Zm.22-7.35l-.14,.33,.22-.26c-.14-.02-.28-.05-.42-.07,.11,0,.22,0,.34,0Zm-18.42-44.59c-.1,.06-.2,.12-.3,.19,.14-.01,.29-.02,.43-.03-.2,.03-.39,.05-.59,.08,.16-.08,.32-.15,.45-.23Zm66.63-.94c-.07,.04-.13,.07-.2,.11,.11,.05,.21,.1,.32,.15-.69-.09-1.38-.18-2.07-.28-1.17-.43-2.35-1.2-3.5,0-.04,.07-.09,.13-.13,.2l.26-.35c.54,.48,1.06,.98,1.63,1.42,2.56,1.96,2.25,.47,1.66-1.34,.69,.03,1.37,.06,2.03,.08Zm-75.06,99.03c.5,.06,1,.12,1.5,.18-.02-.19-.03-.39-.05-.58-.49,.13-.98,.26-1.47,.39-.33-.54,1.67-1.21-.09-1.67,.04,.56,.07,1.12,.11,1.68Zm19.45-51.98c.67-1.39,2.92-1.93,2.16-4.02-.09-.24-1.16-.35-1.67-.18-2.32,.76-1.22,2.46-.49,4.21Zm-25.85,51.59c-.46,.7-.77,1.16-1.07,1.63,.81,.45,1.61,.89,2.42,1.34,.21-.45,.72-1.09,.57-1.31-.36-.55-1.02-.92-1.92-1.66Zm23.7-62.53c.16-.27,.46-.77,.76-1.28-.49-.16-1.05-.54-1.44-.41-.37,.13-.56,.79-.83,1.22,.32,.1,.64,.2,1.51,.47Zm40.2-53.9c-.28,.2-.73,.35-.8,.61-.09,.33,.12,.74,.2,1.11,.4-.33,.81-.64,1.17-1.01,.03-.03-.37-.46-.57-.71Zm1.89,23.62c.33-.23,.71-.38,.94-.66,.62-.76-.02-.91-.56-.88-.28,.02-.7,.35-.77,.62-.07,.25,.24,.6,.4,.92Zm-3.55-1.34c.23,.24,.43,.63,.67,.65,.31,.03,.65-.24,.98-.38-.2-.25-.39-.69-.6-.7-.33-.02-.68,.26-1.05,.42Zm17.42-9.69l.35,.22,.07-.3-.42,.08Zm-103.5,96.02c.13-.11,.26-.22,.39-.33-.12-.12-.33-.35-.36-.33-.19,.14-.35,.33-.52,.5,.16,.05,.33,.11,.49,.16Zm103.11-98.22l.25-.39-.39-.05,.15,.43Zm-9.45,7.14c-.11-.12-.21-.34-.33-.35-.12,0-.25,.19-.38,.29,.11,.12,.21,.34,.33,.35,.12,0,.25-.19,.38-.29Zm5.57,5.82l.29,.23,.06-.34-.35,.11Zm-34.76,29.15l-.28-.19-.03,.32,.32-.13Zm-14.62,6.12l-.29-.2-.05,.3,.34-.09Zm53.51,3.71l-.34-.22-.05,.35,.39-.13Zm-67.03,6.27l.22-.34-.35-.04,.13,.38Z"/>
  <path class="cls-1" d="M208.19,499.26c-13.79-.06-27.46-.85-40.42-6.25-15.29-6.37-24.02-19.58-24.1-35.92-.02-3.43,.93-4.57,4.4-4.49,8.68,.2,17.38,.19,26.06,0,3.05-.07,4.64,.63,5.53,3.85,1.83,6.68,7.45,9.33,13.49,10.76,9.56,2.27,19.25,2.01,28.86,.09,1.72-.34,3.34-1.32,4.94-2.14,3.82-1.97,6.61-4.81,6.44-9.41-.19-4.88-3.41-7.53-7.62-9.18-7.22-2.83-14.94-3.34-22.48-4.63-10.94-1.87-21.95-3.39-32.44-7.24-13.4-4.91-22.23-13.67-23.57-28.51-1.47-16.18,4.06-29.06,18.72-36.92,17.46-9.36,36.44-9.53,55.54-7.97,9.51,.78,18.75,2.77,27.22,7.5,13.61,7.59,18.72,19.88,19.55,34.65,.15,2.7-.96,3.56-3.49,3.54-9.29-.06-18.59-.1-27.88,.03-2.5,.04-3.55-1.04-4.31-3.21-2.22-6.31-7.17-9.6-13.32-11.19-8.15-2.12-16.42-2.15-24.6-.19-6.74,1.62-10.45,5.71-10.26,10.96,.23,6.5,4.94,9.18,10.22,10.29,11.65,2.44,23.41,4.35,35.14,6.34,6.39,1.09,12.66,2.58,18.74,4.81,13.73,5.04,22.32,14.31,23.34,29.34,1.04,15.34-4.16,27.84-17.94,35.71-14.17,8.09-29.89,9.22-45.75,9.33Zm-54.44-114.65s-.82,.29-1.09,.85c-.26,.54,.37,.97,1.05,.81,.7-.16,1.68,.02,1.82-1.01,.08-.63-.29-1.08-1.77-.65Zm16.39,32.53c-.49-.17-.98-.34-1.47-.52-.1,.32-.38,.83-.27,.92,.38,.35,.89,.55,1.35,.81,.11-.35,.22-.7,.39-1.22Zm10.42-7.4c-.31,.22-.65,.41-.92,.68-.42,.41-.3,.86,.25,.82,.44-.03,.85-.47,1.27-.72-.2-.26-.4-.51-.61-.78Zm.48,17.6c-.07-.16-.14-.32-.21-.48-.1,.14-.28,.28-.29,.43-.02,.16,.12,.33,.19,.49,.1-.15,.21-.29,.31-.44Zm38.46,9.2c.36,.14,.67,.29,.99,.35,.1,.02,.25-.23,.38-.35-.24-.18-.47-.46-.73-.49-.18-.02-.41,.3-.64,.5Zm-55.49-37.61l-.33-.22-.04,.35,.37-.13Zm8.25,19.05c-.12,.1-.25,.21-.37,.31,.11,.12,.21,.33,.33,.33,.12,0,.24-.18,.37-.29l-.32-.36Z"/>
  <path class="cls-1" d="M914.38,420.87c14.74-3.05,37.93,9.67,42.99,23.57,6.38,17.53-.5,36.86-16.07,45.67-7.12,4.03-14.86,6.18-22.8,7.36-20.54,3.04-41.03,3.14-60.98-3.6-9.67-3.26-17.5-9.14-21.99-18.67-1.53-3.24-2.63-6.48-2.83-10.27-.21-3.96-3.44-10.58-.46-11.33,6.31-1.6,13.8-3.2,20.07,1.65,.96,.74,1.09,1.17,2.44-.16,4.38-4.28,10.39-2.93,12.67,2.44,2.78,6.57,8.7,9.09,14.83,10.2,8.74,1.58,17.68,1.74,26.46-.38,2.13-.51,4.22-1.38,6.16-2.41,3.59-1.9,6.07-4.72,6.01-9.07-.06-4.39-2.76-7.01-6.4-8.76-1.8-.86-3.85-1.18-5.7-1.95-6.48-2.69-14.37-.33-20.11-5.62-9.94,2.91-19-1.37-27.97-4.14-10.24-3.17-19.54-8.44-23.67-19.49-1.61-4.31-2.76-8.2,4.33-7.42,.96,.11,2.21-.08,2.32-1.36,.11-1.23-1.21-1.31-1.95-1.89-2.07-1.64-5.94,.47-6.82-2.73-.96-3.49-.15-7.14,.73-10.72,3.12-12.72,11.6-20.56,23.29-25.1,11.52-4.47,23.39-6.95,35.99-5.06,3.12,.47,6.64-1.27,10.08-.69,10.84,1.83,21.95,2.3,31.85,8.16,13.21,7.82,18.06,19.93,18.92,34.4,.16,2.7-.86,3.22-3.49,3.36-2.75,.14-4.63-.33-5.88-2.78-.17,4.03-3.21,2.81-5.44,2.89-2.62,.1-5.25,.03-7.87,.02-2.62,0-5.27,.13-7.87-.12-1.53-.15-3.77,.98-4.3-1.92-1.48-8.1-8.12-10.77-14.7-12.37-9.26-2.25-18.93-3.14-27.75,1.6-2.14,1.15-5.38-2.56-6.16,1.81l.16-.14c-.61,.24-1.21,.47-1.8,.68,.08-.19,.13-.35,.19-.51-.07,.14-.13,.28-.2,.42-.3,.24-.61,.48-.91,.72,3.17,2.78,.95,6.83,2.35,10.03-.7,1.12-2.3-1.09-2.83,.84,1.21,.68,1.61-1.65,2.81-.77,6.09,7.56,15.25,7.35,23.56,9.27,2.35,.54,4.76,.97,7.16,1.11,3.35,.2,4.24,1.73,2.84,5.47,2.3-5.99,5.72-3.53,8.9-2.27-2.55,1.09-2.17,4.86-5.12,5.5,.54-.13,.6-.03,.2,.26-.02-.13-.04-.27-.05-.4,4.42-1.35,1.52,4.96,4.99,4.7-1.18-3.34,.19-6.68-.15-10.01Zm28.02,52.92c.31,.11,.62,.22,.94,.33,.02-.13,.05-.26,.07-.39-.39,.09-.77,.18-1.16,.27,.08-.3,.15-.6,.23-.9-.09,.07-.24,.14-.24,.2,0,.18,.08,.35,.16,.48Zm-97.97-62.22c.95,.11,1.34-.34,1.09-1.23-.07-.24-.6-.59-.7-.53-.79,.5-.6,1.19-.25,1.88-.03,.08-.07,.17-.1,.25-.01-.12-.03-.25-.04-.37Zm20.94-27.97c-.33,0-.54-1.13-.97-.1,.38-.02,.76-.05,1.14-.07-.03,.35-.05,.71-.08,1.06l.78-.24c-.28-.23-.56-.45-.87-.66Zm35.4,2.02c-.07,.06-.14,.13-.21,.19,.12,0,.23,0,.35,0-.45-.3-.9-.61-1.34-.91-.08,.29-.16,.58-.24,.87,.49-.05,.98-.1,1.45-.15Zm32.25,106.52c.04-.17,.06-.36,.13-.51,.09-.18,.23-.34,.34-.5-.07,.31-.15,.62-.21,.9-.13-.04-.27-.09-.4-.13,.1-.04,.2-.07,.31-.11-.06,.12-.11,.24-.17,.36Zm10.45-100.67c.07-.28,.14-.56,.21-.84-.07,.07-.2,.15-.2,.22,0,.18,.06,.36,.09,.54,.67,.75,1.33,1.58,2.47,.91,.15-.09,.15-.81-.04-1-.9-.93-1.77-.45-2.54,.18Zm-5.06-15.44c-.46-.29-1.08-.74-1.33,.02-.29,.88,.32,1.56,1.22,1.33,.84-.21,.27-.91,.09-1.47-.06-.11-.12-.23-.18-.34,.06,.15,.13,.31,.19,.46Zm-77.72,13.42c-.53-.15-1.06-.31-1.59-.44-.02,0-.11,.25-.17,.38,.64-.04,1.29-.07,1.93-.11-5.06,3.05-2.21,6-.07,8.71,5.42-2.85,3.23-5.74-.1-8.55Zm84.68-2.61c-2.11-1.81-3.85-2.2-5.79-1.44-.18,.07-.31,.93-.15,1.07,1.58,1.42,3.38,1.41,5.94,.37Zm-23.15,95c-.5-.44-1.4-1.48-1.59-1.37-.78,.48-1.35,1.31-2,2.01,.45,.35,.87,.93,1.36,1,1.01,.14,1.9-.21,2.23-1.65Zm18.24-86.4c.43,.33,1.1,1.2,1.56,1.1,.62-.13,1.34-.93,1.54-1.59,.31-1.02-.6-1.26-1.42-1.22-.84,.04-1.49,.41-1.69,1.71Zm-89.4-2.51c-.43-.29-.75-.69-1.04-.67-.57,.03-1.18,.31-.84,1.09,.14,.32,.5,.54,.76,.8,.36-.4,.73-.8,1.12-1.22Zm-13.38,65.59c.28-.15,.56-.3,.84-.45-.16-.1-.36-.33-.47-.29-.3,.09-.56,.29-.84,.45,.16,.1,.32,.19,.47,.29Zm86.48,30.89c-.18,.28-.35,.55-.53,.83,.29,.09,.64,.33,.84,.24,.31-.14,.51-.52,.75-.79-.35-.1-.71-.19-1.07-.28Zm-38.37-63.65c.14-.08,.28-.16,.42-.24-.12-.11-.29-.33-.35-.3-.19,.08-.34,.26-.51,.39,.15,.05,.29,.1,.44,.15Zm72.47,28.24c.04-.17,.07-.35,.11-.52-.24,.06-.47,.12-.71,.17,.07,.16,.11,.34,.22,.45,.04,.04,.25-.07,.38-.11Zm-23.14,27.45l.52-.21-.51-.22v.42Zm5.66,5.97c-.13-.14-.26-.38-.36-.37-.3,.05-.6,.18-.89,.29,.11,.13,.24,.37,.33,.36,.31-.04,.61-.18,.92-.28Zm-20.71,3.48c.01,.17-.04,.4,.05,.49,.11,.11,.34,.1,.51,.14-.03-.27-.06-.54-.08-.81-.16,.06-.32,.12-.48,.19Zm-7.01-120.09l-.2,.27,.31,.04-.12-.32Zm26.62,8.97l.18-.27-.28-.04,.1,.31Zm-72.74,15.8c.12-.1,.31-.2,.32-.31,0-.11-.17-.24-.27-.36-.12,.1-.31,.2-.32,.31,0,.11,.17,.24,.27,.36Zm-.21,3.31l.31,.21,.04-.34-.35,.13Zm51.16,31.2l-.23,.34,.38,.04-.15-.38Zm-43.65,6l-.22,.37,.37,.04-.15-.41Zm50.61,36.75l.34,.21,.03-.37-.37,.16Zm7.53,.15l.21-.3-.33-.05,.12,.35Zm-45.76-108.01l-.31-.2-.04,.33,.35-.13Z"/>
  <path class="cls-1" d="M.08,411.46c0-15.24,.14-28.15-.08-41.05-.07-4.16,1.18-5.84,5.47-5.54,4.42,.3,8.88,.03,13.32,.09,1.74,.02,3.87-.5,4.8,1.59,1.14,2.55,1.18,1.8,2.77,0,3.02-3.41,7.56-1.77,11.25-1.21,3.27,.49,1.65,4.06,1.67,6.18,.13,20.98,.07,41.95,.08,62.93,0,2.42-.02,4.84,.09,7.26,.71,15.24,9.04,23.78,24.18,24.84,15.94,1.12,25.8-6.27,28.45-21.51,.51-2.96,.58-6.02,.59-9.03,.05-21.78,.15-43.56-.08-65.34-.05-4.47,1.09-5.99,5.7-5.83,9.48,.34,18.97,.09,28.46,.11,2.4,0,4.9-.4,4.87,3.46-.21,26.8,.92,53.68-.75,80.39-1.8,28.8-17.67,44.28-46.21,49.02-13.67,2.27-27.36,2.08-40.96-.51-25.76-4.92-40.91-22.06-43.06-48.25-1.09-13.3-.27-26.61-.57-37.59Zm111.33-41.86q4.25,.4,7.04-2.56c-2.8-.46-5.38-.46-7.04,2.56Zm8.65,11.55c.39-.62,.7-1.02,.86-1.48,.03-.09-.57-.59-.82-.55-.45,.07-.86,.41-1.28,.64,.35,.39,.7,.78,1.24,1.4Z"/>
  <path class="cls-1" d="M765.22,361.38c5.26-1.89,7.36,2.51,9.99,5.35,.89,.96,.54,3.56,2.74,2.72,1.98-.75,.89-2.66,.47-4.15-.21-.74-.27-1.51-.4-2.31,21.83-.15,40.53,19.03,39.81,40.36-.11,3.09-1.33,3.7-3.99,3.68-9.2-.09-18.39-.1-27.59-.01-3.81,.04-4.03-2.28-3.74-5.08,.25-2.43,.05-1.91-2.1-2.86-2.29-1.01-4.4-2.88-5.99-4.86-1.48-1.85,3.01-1.13,1.58-4.16-9.91,4.55-20.52-1.61-31.04,1.99-6.85,2.34-11.14,5.87-10.99,11.66,.15,5.56,5.19,9.39,12.17,10.78,17.19,3.42,34.9,4.33,51.55,10.3,23.57,8.44,31.7,35.99,16.53,55.92-6.57,8.64-16.02,12.74-26.12,15.34-13.63,3.5-27.63,4.06-41.52,2.77-9.59-.89-19.34-1.45-28.54-5.35-15.55-6.58-24.44-19.22-24.95-36.06-.11-3.76,.97-4.92,4.7-4.82,8.68,.23,17.37,.11,26.05,.05,2.33-.01,4.16,0,4.93,2.99,1.78,6.9,7.26,10.06,13.58,11.52,9.33,2.15,18.79,2.3,28.22,.26,2.81-.61,5.39-1.73,7.71-3.37,6.46-4.58,6.19-12.28-.7-16.28-5.15-2.99-11.01-3.73-16.8-4.62-13.75-2.11-27.63-3.71-40.8-8.55-16.2-5.96-24.05-17.51-23.43-34.17,.07-1.99-.08-4.07,1.29-5.79,.06,1.23,.87,1.11,1.66,.87,.21-.06,.35-.4,.52-.62-.76-.04-1.52-.08-2.28-.12,1.41-.72,2.83-1.28,4.5-1.06,2.81,.36,.44-1.36,.79-2,3.13-.57,3.18,4.09,6.24,3.75-.05-1.3-2.13-1.82-1.31-3.01,1.49-2.17,.81-3.31-1.38-3.99-3.04-.95-.59,4-3.48,3.28-3.84,.77-5.13-.7-4.06-4.46,1.59-5.61,7.15-11.95,11.12-12.58-.13-.1-.24-.2-.35-.29,.15,.02,.31,.04,.46,.06-.12,.07-.23,.13-.35,.2,4.76-7.95,13.35-9.09,21.08-11.12,8.12-2.12,16.54-3.67,25.09-1.61,1.13,.27,2.57-.75,4.03-1.23,1.23,1.94-1.54,2.98-.89,5.58,1.78-2.72,5.07-2.13,6.09-4.97l-.08,.05Zm-51.11,36.41c.09-.04,.19-.08,.28-.12-.13,0-.26,0-.39,0,.12-.16,.25-.32,.37-.48-.09,.21-.17,.42-.27,.6Zm-2.82-10.78c.41,.59,.82,1.19,1.22,1.78,1.16,1.58,2.34,3.07,4.71,1.84-1.34-2.06-2.91-2.49-4.85-1.69l-1.18-1.8c-.31-.52-.62-1.03-.93-1.55l-.37-.02s.37-.07,.35-.02c.26,.55-.07,1.53,1.05,1.47Zm1.99-11.36c0-.28,0-.55,0-.83-.05,.09-.15,.2-.13,.27,.05,.16,.17,.29,.26,.44,.33,.08,.04,1.1,.8,.52-.32-.12-.64-.25-.93-.39Zm.35,9.12c.04,.16,.05,.33,.12,.48,.04,.08,.17,.12,.26,.18-.18-.17-.36-.34-.54-.5-.08-.32-.16-.65-.24-.97-.15,.15-.3,.29-.45,.44,.29,.12,.57,.25,.86,.38Zm59.9-12.22c1.26,.19,2.49-.13,2.86-1.34,.24-.79-.7-1.15-1.58-1.04-1.71,.23-1.66,1.22-1.06,2.46-.84,.85-.9,1.72,.17,2.34,.3,.17,.93-.23,1.41-.37-.6-.69-1.2-1.37-1.8-2.06Zm-58.25,28.19c-1.54,.42-2.72-3.2-4.43-.4-.25,.41-.34,1.39-.14,1.52,1.78,1.13,2.88-.24,4.07-1.26,.13-.11,.39-.06,.57-.05-.47,.25-.56,.17-.26-.22l.18,.41Zm56.56-16.68c1.01-1.26,1.93-2.58,.5-4.07-.28-.3-1.4-.36-1.48-.21-.67,1.33-1.75,2.7-.37,4.2,.48-.45,.93-.57,1.34,.08Zm-1.46-12.33c-2.5-.68-.15-4.63-3.24-4.8-1.32-.07-1.63,1.21-1.21,2.09,.64,1.36-.63,4.03,2.39,3.84,.75-.05,2.03,.5,2.07-1.13Zm-11.42,5.76c2-1.28,5.35-.33,5.65-3.57,.16-1.79-2.43-.85-2.99-2.22-2.37,1.24-.94,4.12-2.65,5.8Zm-43.65,38.53l1.46-.15c0-2.21,0-4.41-.07-6.61,0-.04-1.44-.26-1.58-.02-1.42,2.36,.05,4.51,.19,6.78Zm43.44-48.66c3.6,2.48,5.05,1.8,5.58-2.54-1.73,.79-3.46,1.58-5.58,2.54Zm-42.43,13.41c2.97-.78,5.17-1.84,2.24-5.4-1.15,1.67-3.15,2.82-2.24,5.4Zm62.31,3.69c-1.63,.62-2.29,1.63-1.89,3.13,.09,.35,.84,.52,1.28,.78,.57-1.18,1.28-2.35,.6-3.91Zm-31.7-19.55c-1.41-.2-2.83-1.56-4.13,.06-.16,.2-.06,.85,.14,1.05,1.58,1.49,2.75,.09,3.98-1.11Zm19.2,14.28c-1.25-1-2.16,.24-3.2,.38,1.03-.22,2.23,.91,3.2-.38Zm-55.6,29.6c-1.16,.07-1.34,.66-1.09,1.2,.31,.67,.74,1.38,1.32,1.8,.54,.39,1.29-.02,1.07-.72-.27-.87-.91-1.62-1.31-2.28Zm50.14-25.2c-.31-.25-.67-.77-1.09-.83-.6-.09-1.13,.3-.84,1.06,.12,.32,.39,.71,.69,.82,.68,.26,1.02-.19,1.25-1.05Zm-9.46-4.08c.23-.3,.66-.6,.65-.9,0-.77-.59-.9-1.13-.54-.24,.16-.32,.7-.29,1.05,.01,.15,.49,.26,.77,.4Zm2.88-2.09c.43,.33,.88,.67,1.32,1.01,.12-.36,.44-.84,.32-1.04-.25-.4-.75-.65-1.14-.97-.15,.3-.3,.6-.49,1Zm-33.25,39.27c-.12-.35-.15-.77-.38-1-.1-.11-.59,.15-.9,.25,.19,.45,.38,.89,.56,1.34,.24-.19,.47-.39,.72-.59Zm35.29-43.08l.46-.03c-.14-.08-.29-.17-.43-.25,0,.09-.02,.19-.03,.28Zm15.02-3.41c.17-.32,.49-.65,.49-.97,0-.33-.33-.66-.52-.99-.17,.34-.48,.67-.49,1.01,0,.32,.33,.63,.52,.95Zm24.85,16.15c-.12-.32-.25-.66-.37-.99-.33,.14-.81,.18-.96,.43-.34,.55-.13,1.09,.55,1.18,.22,.03,.51-.39,.78-.62Zm-50.65,1.76c-.26,.33-.47,.6-.69,.87,.3,.06,.59,.16,.89,.17,.08,0,.27-.31,.24-.41-.08-.22-.27-.4-.44-.62Zm-38.98,11.88l-.48,.2,.49,.18v-.37Zm17.54,1.46l-.2,.38,.35,.05-.15-.43Zm-2.2,4.23c-.04-.16-.08-.33-.12-.49-.13,.04-.36,.08-.36,.13,0,.16,.07,.33,.12,.5,.12-.04,.24-.09,.37-.13Zm5.14,7.96l.06-.35-.49,.13,.44,.22Zm-18.62,3.64c.44,.18,.78,.35,1.14,.44,.06,.02,.33-.41,.29-.45-.2-.24-.46-.57-.71-.58-.21-.01-.45,.36-.72,.59Zm36.82,2.07l-.04,.3,.42-.11-.38-.19Zm40.49-40.57c-.06,.17-.2,.36-.16,.5,.16,.57,.42,.59,.64,.04,.05-.14-.04-.36-.12-.51-.04-.06-.24-.03-.36-.03Zm-78.34,43.05c.13,.13,.29,.38,.39,.36,.31-.07,.59-.25,.88-.38-.29-.13-.58-.29-.88-.35-.1-.02-.26,.23-.39,.37Zm81.1-44.73c.05-.17,.11-.34,.16-.5-.19,.11-.38,.21-.57,.32,.14,.06,.27,.13,.41,.19Zm25.27,74.14c.35,.14,.65,.29,.96,.35,.09,.02,.34-.35,.33-.37-.2-.22-.42-.53-.65-.55-.19-.01-.4,.35-.64,.57Zm-63.08-79.82c.12-.1,.24-.21,.36-.31-.11-.11-.22-.22-.33-.33-.16,.16-.32,.32-.48,.48,.15,.05,.3,.11,.45,.16Zm36.76,110.16c.29-.12,.59-.23,.89-.35-.11-.13-.24-.38-.33-.36-.31,.06-.61,.2-.91,.31,.11,.13,.22,.26,.35,.4Zm1.19-113.69c-.14-.26-.27-.53-.41-.79-.15,.08-.44,.22-.43,.24,.12,.3,.28,.59,.44,.87,.13-.11,.27-.22,.41-.33Zm-23.23,121.96c-.43-.11-.66-.17-.89-.23,.05,.13,.09,.37,.15,.37,.17,.02,.35-.06,.75-.15Zm-9.61-118.81l-.27-.18-.04,.28,.31-.1Zm-40.48,2.3l.34,.24,.06-.37-.39,.13Zm-3.53,18.21l.31,.23,.06-.33-.37,.11Zm8.52,5.1l.21-.26-.31-.06,.1,.32Zm-16.81,.61c-.13,.15-.37,.3-.37,.45,0,.15,.24,.3,.37,.44,.14-.14,.4-.27,.4-.42,0-.14-.24-.29-.4-.48Zm18.1,1.95l.26-.4-.43-.05,.17,.45Zm-3.63,22.95c.12-.11,.33-.21,.33-.33,0-.12-.18-.24-.29-.37-.12,.11-.33,.21-.33,.33,0,.12,.18,.24,.29,.37Zm64.4,23.7l-.25,.36,.4,.05-.16-.41Z"/>
  <path class="cls-1" d="M363.17,446.03c0,14.53-.21,29.07,.12,43.6,.11,4.84-1.68,5.67-5.95,5.53-8.88-.29-17.79-.37-26.67,.02-4.95,.22-6.51-1.1-6.46-6.27,.26-28.26-.01-56.52,.25-84.78,.05-5.24-1.17-7-6.65-6.8-11.91,.43-23.84-.01-35.76,.21-3.93,.07-5.28-1.1-5.14-5.1,.29-7.66,.23-15.34,.02-23.01-.09-3.4,1.01-4.55,4.46-4.55,41.63,.09,83.25,.08,124.88,.02,2.99,0,4.37,.79,4.3,4.08-.19,8.07-.23,16.15,.01,24.22,.11,3.71-1.53,4.33-4.7,4.3-12.33-.11-24.66,.14-36.98-.14-4.44-.1-5.96,.99-5.86,5.67,.31,14.33,.11,28.66,.11,43Zm16.67-74.5c.43-.29,.56-.18,.36,.32,0,.02-.32-.09-.47-.16,.04,.07,.08,.13,.12,.2,0-.12,0-.24,0-.36Zm-42.51,70.38c-.13-.34-.19-.9-.4-.96-.29-.09-.7,.2-1.05,.33,.17,.34,.26,.79,.53,.96,.17,.11,.61-.2,.93-.33Z"/>
  <path class="cls-1" d="M872.29,395.99c.88-.09,1.53,.13,1.25,1.19-.07,.27-.57,.71-.66,.66-.9-.47-.53-1.27-.43-1.99,0,0-.16,.14-.16,.14Z"/>
  <path class="cls-1" d="M765.3,361.33c-.62,.05-1.23,.1-1.85,.14,.07-.12,.15-.36,.2-.35,.51,.08,1.01,.19,1.54,.28,.03-.02,.11-.07,.11-.07Z"/>
  <polygon class="cls-1" points="776.08 362.83 775.94 362.49 776.28 362.52 776.08 362.83"/>
  <path class="cls-1" d="M630.03,210.61c-.47,0-.93,0-1.4-.01,.48-1.21,.94-1,1.4,.01Z"/>
  <path class="cls-1" d="M594.65,180.28c.48,0,.96,0,1.44,0-.48,0-.96,0-1.44,0Z"/>
  <path class="cls-1" d="M605.57,180.27c.5-.02,.99-.04,1.49-.06-.5,.02-.99,.04-1.49,.06Z"/>
  <path class="cls-1" d="M605.75,178.91c-.02,.49-.03,.97-.05,1.46,.02-.48,.03-.97,.05-1.46Z"/>
  <path class="cls-1" d="M771.94,383.83c-.51,0-1.01,0-1.52,0,.51-.79,1.02-.88,1.52,0Z"/>
</svg>
