<?xml version="1.0" encoding="UTF-8"?>
<svg id="Livello_1" data-name="Livello 1" xmlns="http://www.w3.org/2000/svg" viewBox="0 0 799.5 323.68" height="125px" width="125px">
  <g>
    <rect x="99.5" y="3.33" width="50.76" height="315.34"/>
    <rect y="3.33" width="249.76" height="50.25"/>
  </g>
  <rect x="343.85" y="-4.63" width="51.87" height="333.36" transform="translate(105.69 -143.33) rotate(25.48)"/>
  <path d="M761.17,227.37c-20.03,28.61-52.97,47.09-90.22,47.09-61.06,0-110.56-49.69-110.56-112.21s49.5-113.21,110.56-113.21c36.84,0,69.47,18.46,89.56,46.83l38.98-33.28C769.74,24.51,723.23,0,670.95,0c-89.84,0-162.67,72.38-162.67,161.66s72.83,160.66,162.67,160.66c52.18,0,98.61-24.08,128.38-61.76l-38.16-33.2Z"/>
</svg>
